<?xml version="1.0" encoding="UTF-8" standalone="no"?>
<!-- Created with Inkscape (http://www.inkscape.org/) -->

<svg
   version="1.1"
   id="svg1"
   width="395"
   height="690"
   viewBox="0 0 395 690"
   xmlns="http://www.w3.org/2000/svg"
   xmlns:svg="http://www.w3.org/2000/svg">
  <defs
     id="defs1" />
  <g
     id="g1"
     transform="translate(-447.96722,-2.4798412)">
    <path
       style="fill:#000000"
       d="M 447.96721,347.47984 V 2.4798413 h 197.5 197.5 v 344.9999987 345 h -197.5 -197.5 z m 386,2 V 12.479841 H 669.84443 505.72166 l -22.87723,22.11871 -22.87722,22.11871 V 371.59855 686.47984 h 187 187 z m -373,21.62427 V 56.728391 l 22.3828,-21.62427 22.38281,-21.62428 h 163.61719 163.6172 v 335.999999 336 h -186 -186 z m 23,304.37573 c 0,-0.55 -1.575,-1 -3.5,-1 -1.925,0 -3.5,-0.45 -3.5,-1 0,-0.55 1.82989,-1 4.06642,-1 3.84614,0 4.04929,-0.14897 3.75,-2.75 -0.28977,-2.51837 -0.71651,-2.77567 -5.06642,-3.05479 -2.85713,-0.18333 -4.75,0.11554 -4.75,0.75 0,0.58013 1.8,1.05479 4,1.05479 2.2,0 4,0.45 4,1 0,0.55 -1.75185,1 -3.89301,1 -4.02713,0 -5.59107,1.57492 -4.46861,4.5 0.65725,1.71277 9.36162,2.17767 9.36162,0.5 z m 13,-2.91667 c 0,-2.15555 0.56206,-4.17896 1.25,-4.5 1,-0.46666 1,-0.7 0,-1.16666 -0.6875,-0.32084 -1.25,-1.67084 -1.25,-3 0,-1.32917 -0.45,-2.41667 -1,-2.41667 -0.55,0 -1,1.125 -1,2.5 0,1.83333 -0.53333,2.5 -2,2.5 -1.1,0 -2,0.45 -2,1 0,0.55 0.9,1 2,1 1.55556,0 2,0.66667 2,3 0,2.53333 -0.38889,3 -2.5,3 -1.375,0 -2.5,0.45 -2.5,1 0,0.55 1.575,1 3.5,1 3.40426,0 3.5,-0.10714 3.5,-3.91667 z m 9,1.49846 c 0,-3.93492 1.06422,-5.58179 3.60699,-5.58179 2.12518,0 2.39301,0.44769 2.39301,4 0,2.2 0.45,4 1,4 0.55,0 1,-2.25 1,-5 v -5 h -4.39301 c -3.08336,0 -4.57397,0.47156 -5,1.58179 -0.97372,2.53749 -0.69918,8.41821 0.39301,8.41821 0.55,0 1,-1.0882 1,-2.41821 z m 23.81823,-1.39711 c 0.17503,-1.82343 -0.21757,-3.96093 -0.87244,-4.75 -1.65686,-1.9964 -8.55797,-1.88769 -9.3388,0.14711 -1.39744,3.64166 -0.70282,4.41821 3.95203,4.41821 2.7847,0 4.31848,0.38919 3.94098,1 -0.33992,0.55 -2.16647,1 -4.05901,1 -1.89255,0 -3.44099,0.47466 -3.44099,1.05479 0,0.63446 1.89287,0.93333 4.75,0.75 4.5754,-0.29359 4.7617,-0.42666 5.06823,-3.62011 z m -7.81823,-3.18468 c 0,-0.55 0.87344,-1 1.94099,-1 1.06754,0 2.21909,0.45 2.55901,1 0.35053,0.56716 -0.48961,1 -1.94098,1 -1.40746,0 -2.55902,-0.45 -2.55902,-1 z m 15.01532,4.25 c 0.008,-1.5125 0.45153,-3.425 0.98468,-4.25 0.70992,-1.09851 0.97348,-0.36246 0.98469,2.75 0.008,2.3375 0.46531,4.25 1.01531,4.25 0.55,0 1.00689,-1.2375 1.01532,-2.75 0.008,-1.5125 0.45153,-3.425 0.98468,-4.25 0.70992,-1.09851 0.97348,-0.36246 0.98469,2.75 0.008,2.3375 0.48997,4.25 1.0701,4.25 0.63446,0 0.93334,-1.89287 0.75,-4.75 -0.3041,-4.73924 -0.31362,-4.75072 -4.203,-5.0692 -2.4426,-0.20001 -4.21056,0.17339 -4.73469,1 -1.17837,1.85841 -1.07348,8.8192 0.1329,8.8192 0.55,0 1.00689,-1.2375 1.01532,-2.75 z m 23.98468,-2.25 c 0,-2.75 -0.45,-5 -1,-5 -0.55,0 -1,1.8 -1,4 0,3.77778 -0.16667,4 -3,4 -2.83333,0 -3,-0.22222 -3,-4 0,-2.2 -0.45,-4 -1,-4 -0.55,0 -1,1.5382 -1,3.41821 0,1.88002 -0.27314,4.13002 -0.60699,5 -0.50902,1.32648 0.298,1.58179 5,1.58179 h 5.60699 z m 14,0.16213 v -4.83786 l -4.5,-0.17021 c -2.475,-0.0936 -4.5,0.28342 -4.5,0.83786 0,0.55445 0.93214,1.00808 2.07143,1.00808 2.81834,0 4.92857,2.32431 4.92857,5.42857 0,1.41429 0.45,2.57143 1,2.57143 0.55,0 1,-2.17704 1,-4.83787 z m 13,0.9212 c 0,-2.15555 0.56206,-4.17896 1.25,-4.5 1,-0.46666 1,-0.7 0,-1.16666 -0.6875,-0.32084 -1.25,-1.67084 -1.25,-3 0,-1.32917 -0.45,-2.41667 -1,-2.41667 -0.55,0 -1,1.125 -1,2.5 0,2 -0.5,2.5 -2.5,2.5 -1.375,0 -2.5,0.45 -2.5,1 0,0.55 1.125,1 2.5,1 2.11111,0 2.5,0.46667 2.5,3 0,2.66667 -0.33333,3 -3,3 -1.65,0 -3,0.45 -3,1 0,0.55 1.8,1 4,1 3.98582,0 4,-0.0139 4,-3.91667 z m 17,2.91667 c 0,-0.55 -1.575,-1 -3.5,-1 -1.925,0 -3.5,-0.45 -3.5,-1 0,-0.55 1.82989,-1 4.06642,-1 3.84614,0 4.04928,-0.14897 3.75,-2.75 -0.28977,-2.51837 -0.71651,-2.77567 -5.06642,-3.05479 -2.85713,-0.18333 -4.75,0.11554 -4.75,0.75 0,0.58013 1.8,1.05479 4,1.05479 2.2,0 4,0.45 4,1 0,0.55 -1.75186,1 -3.89301,1 -4.02713,0 -5.59107,1.57492 -4.46862,4.5 0.65726,1.71277 9.36163,2.17767 9.36163,0.5 z m 8,-1.41821 c 0,-3.72854 1.03157,-5.58179 3.10699,-5.58179 1.54185,0 1.89301,0.74202 1.89301,4 0,2.2 0.45,4 1,4 0.55,0 1,-2.25 1,-5 v -5 h -3.89301 c -2.62743,0 -4.09034,0.51423 -4.5,1.58179 -0.97373,2.53749 -0.69918,8.41821 0.39301,8.41821 0.55,0 1,-1.0882 1,-2.41821 z m 19,1.41821 c 0,-0.55 -0.675,-1 -1.5,-1 -1.15152,0 -1.5,-1.27778 -1.5,-5.5 0,-4.22222 0.34848,-5.5 1.5,-5.5 0.825,0 1.5,-0.45 1.5,-1 0,-0.55 -1.575,-1 -3.5,-1 -1.925,0 -3.5,0.45 -3.5,1 0,0.55 0.45,1 1,1 0.55,0 1,2.475 1,5.5 0,3.025 -0.45,5.5 -1,5.5 -0.55,0 -1,0.45 -1,1 0,0.55 1.575,1 3.5,1 1.925,0 3.5,-0.45 3.5,-1 z m 29,-1.41821 c 0,-3.93492 1.06422,-5.58179 3.60699,-5.58179 2.12518,0 2.39301,0.44769 2.39301,4 0,2.2 0.45,4 1,4 0.55,0 1,-2.25 1,-5 v -5 h -4.39301 c -3.08336,0 -4.57397,0.47156 -5,1.58179 -0.97373,2.53749 -0.69918,8.41821 0.39301,8.41821 0.55,0 1,-1.0882 1,-2.41821 z m 22.81642,-0.33179 c -0.24853,-2.15997 -0.90645,-2.81789 -3.06642,-3.06642 -3.14694,-0.3621 -3.77257,-2.18358 -0.75,-2.18358 1.1,0 2,-0.45 2,-1 0,-0.55 -1.34143,-1 -2.98095,-1 -2.3746,0 -3.08653,0.50852 -3.5,2.5 -0.28548,1.375 -0.75262,3.625 -1.0381,5 -0.49974,2.40698 -0.32983,2.5 4.56642,2.5 4.95783,0 5.07753,-0.069 4.76905,-2.75 z m -6.81642,-0.25 c 0,-0.55 1.125,-1 2.5,-1 1.375,0 2.5,0.45 2.5,1 0,0.55 -1.125,1 -2.5,1 -1.375,0 -2.5,-0.45 -2.5,-1 z m 19,2 c 0,-0.55 -0.45,-1 -1,-1 -0.55,0 -1,-1.35 -1,-3 0,-1.65 0.45,-3 1,-3 0.55,0 1,-0.45 1,-1 0,-0.55 -0.9,-1 -2,-1 -1.66667,0 -2,0.66667 -2,4 0,2.88889 -0.41667,4 -1.5,4 -0.825,0 -1.5,0.45 -1.5,1 0,0.55 1.575,1 3.5,1 1.925,0 3.5,-0.45 3.5,-1 z m 14.31479,-2.53393 c 0.92686,-1.94366 1.68521,-4.19366 1.68521,-5 0,-2.70291 -1.58527,-1.50188 -2.93146,2.22093 l -1.33323,3.68699 -1.89155,-3.68699 c -1.57736,-3.07459 -3.84376,-4.96952 -3.84376,-3.21375 0,1.59059 4.59342,9.52675 5.51405,9.52675 0.61354,0 1.87387,-1.59027 2.80074,-3.53393 z m 17.68521,-1.46607 c 0,-2.75 -0.45,-5 -1,-5 -0.55,0 -1,1.8 -1,4 0,3.6 -0.25,4 -2.5,4 -2.25,0 -2.5,-0.4 -2.5,-4 0,-2.2 -0.45,-4 -1,-4 -0.55,0 -1,1.8 -1,4 0,2.2 -0.45,4 -1,4 -0.55,0 -1,0.45 -1,1 0,0.55 2.475,1 5.5,1 h 5.5 z m 15,0 c 0,-2.75 -0.45,-5 -1,-5 -0.55,0 -1,0.54 -1,1.2 0,0.93333 -0.26667,0.93333 -1.2,0 -1.44926,-1.44926 -6.8,-1.60664 -6.8,-0.2 0,0.55 0.58529,1 1.30064,1 0.71534,0 2.51183,0.5625 3.99219,1.25 1.96252,0.91142 2.69368,1.99487 2.69937,4 0.004,1.5125 0.4578,2.75 1.0078,2.75 0.55,0 1,-2.25 1,-5 z m 14.80479,0.25 c -0.3041,-4.73924 -0.31362,-4.75072 -4.203,-5.0692 -4.03501,-0.3304 -5.55769,0.77872 -5.58648,4.0692 -0.012,1.37755 0.836,1.75 3.98469,1.75 2.2,0 4,0.45 4,1 0,0.55 -1.575,1 -3.5,1 -1.925,0 -3.5,0.45 -3.5,1 0,0.55 2.04966,1 4.55479,1 h 4.55479 z m -6.80479,-2.25 c 0,-0.55 1.125,-1 2.5,-1 1.375,0 2.5,0.45 2.5,1 0,0.55 -1.125,1 -2.5,1 -1.375,0 -2.5,-0.45 -2.5,-1 z m 23,-0.5 v -7.5 l -3.75,0.0318 c -4.65181,0.0394 -7.25,1.91067 -7.25,5.22145 0,2.76528 1.59314,3.74675 6.08179,3.74675 2.57579,0 2.91821,0.35202 2.91821,3 0,1.65 0.45,3 1,3 0.57778,0 1,-3.16667 1,-7.5 z m -7.99513,-1.47583 c -1.28256,-0.81082 -1.21147,-1.15955 0.5,-2.45288 3.13817,-2.37146 5.49513,-1.97312 5.49513,0.92871 0,1.93046 -0.51258,2.49651 -2.25,2.48469 -1.2375,-0.008 -2.92281,-0.44066 -3.74513,-0.96052 z m -72.00487,-5.02417 c 0,-0.55 -0.45,-1 -1,-1 -0.55,0 -1,0.45 -1,1 0,0.55 0.45,1 1,1 0.55,0 1,-0.45 1,-1 z m 47.82134,-2.5 1.9665,-2.5 h 27.87484 27.87484 l 9.66503,-9.75 9.66502,-9.75 0.10572,-17.00847 0.10572,-17.00848 -4.0395,-3.94447 c -3.36957,-3.29029 -4.03951,-4.59847 -4.03951,-7.88782 0,-3.29421 0.74077,-4.73529 4.5,-8.75421 l 4.5,-4.81087 v -69.83989 -69.83989 l -4,-3.9059 c -5.56435,-5.43344 -5.4576,-8.65306 0.48013,-14.4805 l 4.48013,-4.39691 0.0296,-93.58301 0.0296,-93.583 -6.00969,-5.94698 c -5.96756,-5.90521 -6.00977,-5.98759 -6.00977,-11.72829 0,-5.6305 -0.0717,-5.78234 -2.75,-5.82134 l -2.75,-0.04 2.73743,-1.48531 c 4.75933,-2.58239 7.19606,-9.8876 4.79475,-14.37448 -0.72755,-1.35944 -0.49001,-2.24081 0.95679,-3.55015 1.83423,-1.65996 1.92758,-3.56123 1.98777,-40.48686 0.0546,-33.49843 -0.14267,-38.91594 -1.45679,-40.00656 -1.04445,-0.86686 -1.51995,-3.10022 -1.51995,-7.139049 v -5.87756 h -7.5 -7.5 v 7.45431 7.454319 l 6.75,0.29569 6.75,0.29569 0.26204,37.11756 c 0.22174,31.40897 0.0393,37.30241 -1.18608,38.3194 -1.05617,0.87654 -1.98894,0.91239 -3.4463,0.13243 -6.40064,-3.42552 -15.12966,2.59239 -15.12966,10.43061 0,3.74282 2.59444,8.2156 5.76257,9.93461 2.58568,1.40298 2.6127,1.48753 0.48743,1.52535 -2.12977,0.0379 -2.25,0.44079 -2.25,7.54004 v 7.5 h 6.21855 c 6.15486,0 6.27266,0.0534 11.5,5.21584 l 5.28145,5.21584 v 91.48654 91.48656 l -3.19617,3.2976 c -2.99868,3.09386 -3.61655,3.29761 -10,3.29761 h -6.80383 v 7.5 7.5 h 6.69528 c 5.90343,0 7.027,0.3178 9.5,2.68709 l 2.80472,2.68709 v 67.81003 67.81003 l -3.61636,4.00288 c -3.50065,3.8748 -3.82062,4.00288 -10,4.00288 h -6.38364 v 7 7 h 5.70784 c 5.23343,0 6.02302,0.30777 9.5,3.70295 l 3.79216,3.70295 v 15.02727 15.02726 l -8.72915,8.76979 -8.72915,8.76978 h -28.65584 -28.65584 l -1.63806,2.5 -1.63807,2.5 h -16.66188 -16.66188 l -8.68629,-8.5 -8.6863,-8.5 H 674.86231 663.49987 L 652.86054,630.8735 c -10.0969,-10.06559 -10.58703,-10.74487 -9.61366,-13.32364 2.7793,-7.36321 -5.00203,-15.61144 -12.86579,-13.63776 -3.31531,0.83209 -7.14953,4.66631 -7.98162,7.98162 -2.02313,8.0608 6.29204,15.63849 13.97729,12.73763 3.02354,-1.14125 3.17701,-1.03399 14.08929,9.84733 l 11.03245,11.00116 h 11.59513 11.59513 l 7.88922,8.40703 7.88923,8.40703 19.67742,0.093 19.67742,0.093 z m -22.78861,-8.01693 c 2.94713,-1.52401 5.96727,-6.04538 5.96727,-8.93341 0,-1.16997 1.10258,-1.54966 4.5,-1.54966 4.13333,0 4.5,0.2037 4.5,2.5 0,2.44444 0.16667,2.5 7.5,2.5 h 7.5 v -7.5 -7.5 h -7.5 c -7.33333,0 -7.5,0.0556 -7.5,2.5 0,2.3522 -0.31333,2.5 -5.3,2.5 -2.915,0 -5.84,-0.54 -6.5,-1.2 -0.82408,-0.82408 -1.2,-5.78778 -1.2,-15.84501 0,-13.37502 -0.17344,-14.80197 -2,-16.45499 -1.24067,-1.12279 -2,-3.07997 -2,-5.15499 v -3.34501 h -6 -6 v 3.5 c 0,2.94055 0.35204,3.5 2.20239,3.5 1.21132,0 3.68632,1.43828 5.5,3.19617 l 3.29761,3.19616 v 11.80384 c 0,11.23249 -0.0992,11.80383 -2.04966,11.80383 -5.25268,0 -10.95034,5.7235 -10.95034,11 0,3.28705 2.75968,7.80526 5.76257,9.43461 3.53914,1.92032 6.62226,1.93487 10.27016,0.0485 z m 54.96727,-12.98307 c 0,-7.33333 -0.0556,-7.5 -2.5,-7.5 -1.83333,0 -2.5,-0.53333 -2.5,-2 0,-1.1 0.45661,-2 1.0147,-2 1.49964,0 4.97724,-6.143 4.98156,-8.79966 0.009,-5.48644 -5.60087,-11.20034 -10.99626,-11.20034 -5.39539,0 -11.00518,5.7139 -10.99626,11.20034 0.006,3.77022 3.55983,8.51239 7.42696,9.91076 4.14764,1.49981 4.6618,2.8889 1.0693,2.8889 -2.44444,0 -2.5,0.16667 -2.5,7.5 v 7.5 h 7.5 7.5 z m -76,-8 c 4.22701,-4.30701 4.66481,-4.5 10.20821,-4.5 h 5.79179 v -7.5 -7.5 h -7.5 -7.5 v 5.21215 c 0,4.77787 -0.35063,5.56941 -4.20821,9.5 l -4.20821,4.28785 h -10.49418 c -10.44884,0 -10.50843,-0.0138 -13.79179,-3.19617 l -3.29761,-3.19616 v -12.30384 c 0,-11.63716 0.10837,-12.30383 2,-12.30383 1.46667,0 2,-0.66667 2,-2.5 0,-2.25 0.4,-2.5 4,-2.5 3.6,0 4,0.25 4,2.5 0,2.44444 0.16667,2.5 7.5,2.5 h 7.5 v -7.5 -7.5 h -7.5 c -7.33333,0 -7.5,0.0556 -7.5,2.5 0,2.25 -0.4,2.5 -4,2.5 -3.6,0 -4,-0.25 -4,-2.5 0,-2.42857 -0.2,-2.5 -7,-2.5 h -7 v 7.5 c 0,7.33333 0.0556,7.5 2.5,7.5 h 2.5 v 13.87264 13.87264 l 4.47766,4.12736 4.47765,4.12736 h 13.31414 13.31413 z m 100.03273,-0.0169 c 3.32805,-1.72102 5.96727,-6.13637 5.96727,-9.9831 0,-6.59395 -6.30093,-12.19968 -12.56926,-11.18247 -4.17446,0.67742 -6.43074,-1.65448 -6.43074,-6.64627 0,-2.59668 0.43905,-3.67126 1.5,-3.67126 1.2,0 1.5,-1.5 1.5,-7.5 v -7.5 h -3.1288 c -2.17118,0 -4.31452,-1.07123 -7.00288,-3.5 l -3.87408,-3.5 h -13.19951 -13.19952 l -3.14503,3.04829 c -2.93116,2.84099 -3.69944,3.06274 -11.29761,3.26076 l -8.15257,0.21248 v -7.40052 c 0,-8.86887 1.01773,-10.04237 8.75,-10.08921 l 5.25,-0.0318 v -7.5 c 0,-6.83333 -0.17778,-7.5 -2,-7.5 -1.61905,0 -2,-0.66667 -2,-3.5 0,-2.83333 0.38095,-3.5 2,-3.5 1.46667,0 2,-0.66667 2,-2.5 0,-1.68688 0.55326,-2.5 1.70106,-2.5 0.93558,0 7.1632,-5.4 13.83917,-12 l 12.13812,-12 h 6.07749 c 3.34262,0 6.22749,-0.3375 6.41083,-0.75 0.89862,-2.02189 7.27367,-6.25 9.42362,-6.25 1.34027,0 3.30626,-0.54295 4.36887,-1.20657 1.58099,-0.98734 2.89929,-0.80565 7.25575,1 2.92806,1.21362 5.87755,2.20657 6.55442,2.20657 0.89908,0 1.23067,-2.94175 1.23067,-10.91821 0,-11.73692 -0.43411,-14.08179 -2.60699,-14.08179 -0.92014,0 -1.39301,-1.16524 -1.39301,-3.43261 0,-2.59251 0.50637,-3.59333 2.069,-4.08929 2.51759,-0.79905 5.92214,-6.12808 5.92726,-9.27776 0.006,-3.58607 -2.73716,-8.01499 -6.01319,-9.70909 -2.44236,-1.263 -2.98307,-2.17237 -2.98307,-5.01693 0,-3.03927 0.31304,-3.47432 2.5,-3.47432 2.07143,0 2.5,-0.48 2.5,-2.8 0,-3.66351 -1.66138,-5.2 -5.62268,-5.2 -2.65969,0 -4.02231,-0.93598 -7.8,-5.35781 -4.26252,-4.98934 -4.57732,-5.74586 -4.57732,-11 v -5.64219 h -5.70784 c -5.22309,0 -6.02668,-0.31134 -9.46221,-3.66605 l -3.75438,-3.66605 -11.77273,0.23526 -11.77274,0.23526 -2.53628,3.03805 c -2.44788,2.93217 -2.84051,3.04303 -11.26534,3.18079 l -8.72906,0.14274 2.9e-4,-6.92126 c 3.8e-4,-8.97032 1.31634,-10.57874 8.65528,-10.57874 h 5.34501 v -7.5 c 0,-7.33333 -0.0556,-7.5 -2.5,-7.5 -2.2963,0 -2.5,-0.36667 -2.5,-4.5 0,-3.83333 0.2963,-4.5 2,-4.5 1.71603,0 2,-0.66667 2,-4.69528 0,-3.73296 0.55073,-5.27012 2.68709,-7.5 l 2.68709,-2.80472 15.06291,-0.009 15.06291,-0.009 5.8023,-4.96665 c 7.37624,-6.31392 12.31975,-7.81354 18.26837,-5.54174 2.34949,0.89728 4.81234,2.28273 5.47301,3.07879 0.66066,0.79605 2.04611,1.44737 3.07876,1.44737 1.74734,0 1.87756,-0.971 1.87756,-14 0,-15.14112 -0.31425,-15.88679 -5.11514,-12.13756 -1.31167,1.02434 -3.39736,2.17967 -4.63486,2.56739 -2.03904,0.63885 -2.25,0.37678 -2.25,-2.79505 0,-2.66065 0.49618,-3.65748 2.069,-4.15668 2.58664,-0.82097 5.92352,-6.16024 5.92352,-9.4781 0,-3.68027 -3.31281,-8.47581 -6.87425,-9.95101 -2.64794,-1.09658 -3.11827,-1.81736 -3.11827,-4.77849 0,-3.3038 0.14454,-3.451 2.75,-2.80076 1.5125,0.37748 3.425,1.26582 4.25,1.9741 0.825,0.70827 2.7375,1.58178 4.25,1.94113 l 2.75,0.65336 V 278.9989 253.47985 h -6 -6 v 4.5 4.5 h -4 c -3.77778,0 -4,-0.16667 -4,-3 0,-2.78219 -0.26347,-3 -3.6288,-3 -2.74261,0 -4.57489,-0.85473 -7.50288,-3.5 l -3.87408,-3.5 h -13.19951 -13.19952 l -3.0476,2.90209 c -2.78995,2.65674 -3.76625,2.93151 -11.54761,3.25 l -8.5,0.34791 -0.3002,-5.19054 c -0.28257,-4.88585 -0.0771,-5.39789 3.5,-8.72294 3.22721,-2.99979 4.5164,-3.53648 8.5502,-3.55946 l 4.75,-0.0271 v -7.5 c 0,-6.83333 -0.17778,-7.5 -2,-7.5 -1.61905,0 -2,-0.66667 -2,-3.5 0,-3.06667 0.30952,-3.5 2.5,-3.5 2.35243,0 2.5,-0.31308 2.5,-5.30383 0,-4.7487 0.36633,-5.6589 3.5,-8.69617 3.3087,-3.20692 3.5,-3.26829 3.5,-1.12284 0,4.15981 3.06014,1.87852 4.93784,-3.68111 2.10764,-6.24044 6.01032,-10.72977 11.56216,-13.30019 5.20061,-2.4078 7.55257,-2.35903 13.6965,0.28402 4.98606,2.14494 5.08895,2.14895 6.42012,0.25 3.5022,-4.99598 7.94847,-8.38989 12.52955,-9.56398 l 4.85383,-1.244 v -17.34233 c 0,-14.67967 -0.23602,-17.43291 -1.53725,-17.93224 -0.84548,-0.32444 -2.30798,0.076 -3.25,0.88978 -2.11111,1.82383 -7.70841,3.76289 -10.86197,3.76289 -2.01994,0 -2.35078,-0.49258 -2.35078,-3.5 0,-3.08485 0.30243,-3.5 2.54966,-3.5 5.82894,0 11.45586,-5.50586 11.4466,-11.20034 -0.005,-3.10178 -3.3955,-8.47421 -5.83696,-9.2491 -2.03936,-0.64727 -2.09911,-0.92955 -3.76811,-17.800569 l -0.56883,-5.75 h -3.71501 c -2.93291,0 -4.42919,-0.73684 -7.10735,-3.5 l -3.39233,-3.5 h -13.26904 c -13.1612,0 -13.29573,0.0232 -16.55383,2.85595 -2.87595,2.50046 -4.31166,2.92433 -11.5348,3.40543 l -8.25,0.5495 v -6.59099 c 0,-8.84365 2.0489,-11.21989 9.67431,-11.21989 h 5.32569 v -7.5 -7.5 h -3.5 c -3.33333,0 -3.5,-0.16666 -3.5,-3.5 0,-3.22222 0.2381,-3.5 3,-3.5 h 3 v -7.5 -7.5 h -7.5 -7.5 v 7.5 c 0,7.33334 0.0556,7.5 2.5,7.5 2.19048,0 2.5,0.43334 2.5,3.5 0,2.83334 -0.38095,3.5 -2,3.5 -1.80856,0 -2,0.66667 -2,6.96482 0,5.94136 -0.29389,7.1221 -2,8.03518 -1.75819,0.94096 -2,2.09383 -2,9.53519 v 8.46481 h -11.80887 c -8.83501,0 -12.29771,0.36974 -13.75,1.4682 -3.65346,2.76334 -5.44113,1.95241 -5.44113,-2.4682 v -4 h 4 c 3.6,0 4,-0.25 4,-2.5 0,-2.11111 -0.46667,-2.5 -3,-2.5 h -3 v -11 -11 h -3 -3 v 13.5 c 0,8.33334 0.38272,13.5 1,13.5 0.55,0 1,1.8 1,4 0,3.77778 -0.16667,4 -3,4 h -3 v 7.500009 7.5 h 7.5 7.5 v -5.37756 c 0,-3.61911 0.50291,-5.794939 1.53797,-6.653959 1.1893,-0.98703 6.10133,-1.14188 21.66686,-0.68305 21.75441,0.64127 22.92329,0.44348 27.71948,-4.69042 2.31541,-2.47844 2.90167,-2.59502 13.05,-2.59502 6.93109,0 11.04294,0.41725 11.82569,1.2 0.71416,0.71416 1.2,4.15556 1.2,8.499999 v 7.30001 h 3.08882 3.08882 l -0.4261,5.75 c -0.23435,3.1625 -1.04798,7.2125 -1.80806,9 -1.17171,2.75555 -1.17357,3.74445 -0.0123,6.5 1.72452,4.09191 2.59898,12.75 1.28774,12.75 -0.53574,0 -1.53427,-0.675 -2.21896,-1.5 -0.68469,-0.825 -2.14227,-1.5 -3.23908,-1.5 -1.59121,0 -1.86471,0.45466 -1.35348,2.25 1.72161,6.04588 1.74733,8.05621 0.15638,12.22206 -2.04737,5.36097 -7.07679,10.00213 -12.64752,11.67116 -4.05895,1.21609 -4.10598,1.28354 -3.34307,4.79511 0.42559,1.95892 0.80502,5.69346 0.84318,8.29897 0.0685,4.67591 -0.0534,4.86058 -9.40376,14.25 l -9.47311,9.5127 h -5.76975 -5.76975 v 7.5 c 0,7.33333 0.0556,7.5 2.5,7.5 2.19048,0 2.5,0.43333 2.5,3.5 0,3.21116 -0.2441,3.5 -2.95794,3.5 h -2.95793 l -0.29207,7.73991 c -0.27672,7.33348 -0.43646,7.80893 -3.04206,9.05456 -2.63315,1.2588 -2.75,1.62852 -2.75,8.7013 v 7.38663 l -11.75,0.51436 c -6.4625,0.2829 -14.7875,0.79776 -18.5,1.14413 l -6.75,0.62976 v 7.41468 7.41467 h 7.4501 7.45009 l 0.29991,-5.75 0.2999,-5.75 21.25,0.17041 c 17.54946,0.14074 21.25,-0.0715 21.25,-1.21861 0,-0.76397 0.57664,-1.16775 1.28143,-0.8973 0.70478,0.27045 2.81806,-1.09367 4.69617,-3.03138 l 3.41473,-3.52312 h 11.24482 c 7.32674,0 11.48987,0.39651 11.94812,1.13797 0.38681,0.62588 0.60978,4.67588 0.49548,9 l -0.20783,7.86203 h 3.56354 c 3.48605,0 3.56354,0.0863 3.56354,3.96826 v 3.96827 l -11.75,0.28173 -11.75,0.28174 -0.28893,8.75 -0.28894,8.75 h 14.03894 c 9.64661,0 14.03893,0.34838 14.03893,1.1135 0,0.6684 1.19919,0.9375 3,0.67319 2.8844,-0.42334 3,-0.29383 3,3.36081 0,3.20727 -0.46605,4.04213 -2.98307,5.34374 -3.27603,1.6941 -6.01902,6.12302 -6.01319,9.70909 0.006,3.50313 3.39495,8.30795 6.87799,9.75067 2.62088,1.08561 3.11827,1.83055 3.11827,4.67031 0,2.89642 -0.34137,3.37868 -2.39159,3.37868 -1.69676,0 -2.56827,0.70394 -2.99971,2.42293 -0.93347,3.71923 -5.58415,8.66098 -10.06733,10.69741 -4.90697,2.22892 -9.44574,2.36429 -14.09799,0.42045 -4.17931,-1.74623 -5.34874,-1.40312 -7.83634,2.29917 -2.39335,3.56202 -7.59045,7.16004 -10.34219,7.16004 -1.16127,0 -3.44839,1.125 -5.08248,2.5 -2.39588,2.016 -4.05633,2.5 -8.57673,2.5 h -5.60564 v 7.5 c 0,7.33333 0.0556,7.5 2.5,7.5 2.2963,0 2.5,0.36667 2.5,4.5 0,4.13333 -0.2037,4.5 -2.5,4.5 -2.42488,0 -2.5,0.20713 -2.5,6.89301 0,5.20463 -0.36741,7.034 -1.5,7.46862 -1.1793,0.45254 -1.5,2.49627 -1.5,9.55924 v 8.98364 l -15.75,0.49072 c -8.6625,0.26989 -18.7875,0.77977 -22.5,1.13307 l -6.75,0.64235 v 7.41468 7.41467 h 7.4501 7.45009 l 0.29991,-5.75 0.2999,-5.75 24.25,0.13314 c 13.46136,0.0739 24.25,-0.25976 24.25,-0.75 0,-0.48573 0.81172,-0.88314 1.80383,-0.88314 0.99211,0 3.33039,-1.575 5.19617,-3.5 l 3.39233,-3.5 h 9.49912 c 8.94624,0 9.66235,0.1564 12.30383,2.68709 2.493,2.38845 2.80472,3.38871 2.80472,9 0,6.0671 0.0973,6.31291 2.5,6.31291 1.375,0 2.5,0.39375 2.5,0.875 0,0.48125 0.2953,2.35149 0.65622,4.1561 l 0.65622,3.28109 -11.80723,-0.7059 -11.80722,-0.7059 -3.349,3.24597 c -3.1012,3.0058 -3.34899,3.71239 -3.34899,9.54981 v 6.30383 h 16.08971 c 15.47031,0 16.16099,-0.0866 17.94137,-2.25 l 1.85166,-2.25 2.66078,2.62488 c 2.22505,2.19503 2.48029,2.96211 1.55863,4.68425 -2.44429,4.56721 -0.098,11.10743 4.91478,13.69962 2.3419,1.21105 2.98307,2.21194 2.98307,4.65669 0,1.71274 -0.60296,3.61368 -1.3399,4.22432 -0.73695,0.61063 -2.11616,3.22677 -3.06491,5.81364 -0.95461,2.60283 -3.27469,6.06404 -5.1949,7.75 -3.28252,2.88209 -3.92682,3.0466 -11.93221,3.0466 -8.26663,0 -8.5519,-0.0809 -12.3364,-3.5 -5.31591,-4.8026 -6.52377,-4.60034 -5.691,0.953 1.19889,7.99476 -3.51963,17.10572 -10.16805,19.63345 -1.62245,0.61685 -2.27263,1.67135 -2.27263,3.68585 0,1.97446 -1.20115,3.99469 -4,6.7277 l -4,3.9059 v -2.70295 c 0,-2.697 -0.0165,-2.70295 -7.5,-2.70295 h -7.5 v 7.5 7.5 h 3 c 2.7619,0 3,0.27778 3,3.5 0,3.22222 -0.2381,3.5 -3,3.5 h -3 v 6.39301 c 0,4.76019 -0.38311,6.54003 -1.5,6.96862 -1.18816,0.45593 -1.5,2.55713 -1.5,10.10699 v 9.53138 h -10.03333 -10.03334 l -3.46666,3.46667 c -3.14969,3.14969 -3.46667,3.99111 -3.46667,9.20239 0,5.09677 -0.35605,6.10308 -3.19617,9.03333 -2.94977,3.04339 -3.68214,3.29761 -9.5,3.29761 h -6.30383 v 7.5 7.5 h 7.5 7.5 v -5.79705 c 0,-5.4028 0.2605,-6.05143 3.83038,-9.53732 3.46647,-3.38492 3.85205,-4.28302 4.05839,-9.45295 0.18444,-4.62111 0.7303,-6.23815 2.85671,-8.46268 2.5893,-2.70878 2.81328,-2.75 14.94161,-2.75 7.54194,0 12.31291,0.38748 12.31291,1 0,1.69649 11.69424,1.23919 12.35516,-0.48314 0.31302,-0.81573 1.16281,-1.25533 1.88841,-0.97689 0.72561,0.27845 2.85592,-1.07914 4.73403,-3.01685 l 3.41473,-3.52312 h 11.18139 c 8.71906,0 11.45554,0.33032 12.42628,1.5 0.8601,1.03636 0.89795,1.5 0.12244,1.5 -0.73015,0 -1.12244,2.62123 -1.12244,7.5 0,7.33333 0.0556,7.5 2.5,7.5 2.38058,0 2.5,0.27829 2.5,5.82569 0,4.87033 0.397,6.19864 2.4209,8.1 1.94052,1.82302 2.31195,2.94571 1.87184,5.6578 -0.73397,4.52293 1.36101,9.2342 5.12757,11.53104 3.73343,2.27664 6.72188,2.38042 10.61242,0.36854 z m -6.87393,-173.81407 c -2.08169,-2.21586 -2.10265,-2.4064 -0.42432,-3.8584 0.97104,-0.84008 3.22802,-2.01774 5.01552,-2.61701 l 3.25,-1.08958 v 3.9128 c 0,2.84501 -0.52785,4.19529 -1.93426,4.94798 -2.75548,1.47468 -3.44666,1.32306 -5.90694,-1.29579 z m -3.96263,-16.96664 c -3.66753,-3.78392 -3.93385,-4.70239 -1.36353,-4.70239 1.00794,0 3.27915,1.8 5.04712,4 2.73354,3.40153 2.93755,4 1.36353,4 -1.01803,0 -3.28923,-1.48392 -5.04712,-3.29761 z m -5.19617,-164.70238 c 0,-3.5295 0.27583,-4 2.34501,-4 2.85718,0 5.65499,2.88378 5.65499,5.82874 0,1.86647 -0.5615,2.17126 -4,2.17126 h -4 z m 12,0.68709 c 0,-2.37563 -0.84875,-4.12606 -3,-6.18709 -4.15985,-3.98539 -3.88447,-5.5 1,-5.5 h 4 v 7.5 c 0,4.33333 -0.42222,7.5 -1,7.5 -0.55,0 -1,-1.49081 -1,-3.31291 z m -9.74782,-165.18709 c 0.0111,-2.2 0.21589,-2.98225 0.45508,-1.73834 0.23919,1.24391 0.23011,3.04391 -0.0202,4 -0.25029,0.95609 -0.446,-0.0617 -0.4349,-2.26166 z m -45.25218,507.99999 c 0,-4.33333 -0.42222,-7.5 -1,-7.5 -0.55,0 -1,-2.283 -1,-5.07332 0,-4.29137 0.26973,-5.02223 1.75,-4.74181 1.16047,0.21983 1.857,1.4429 2.06763,3.63066 0.51434,5.34219 2.74838,5.05132 9.04271,-1.17733 5.46045,-5.40347 5.91502,-5.6382 10.91866,-5.6382 h 5.221 v -7 -7 h -7.5 -7.5 v 5.32569 c 0,4.35998 -0.44463,5.74339 -2.45204,7.62925 l -2.45203,2.30357 -3.12469,-2.62926 c -2.60433,-2.19139 -4.11111,-2.62925 -9.04797,-2.62925 h -5.92327 v 3.5 c 0,2.83333 0.38095,3.5 2,3.5 1.73333,0 2,0.66667 2,5 v 5 h -4 -4 v 7.5 7.5 h 7.5 7.5 z M 632.74937,589.17419 c 17.99478,-18.07294 20.21784,-19.99716 20.21784,-17.5 v 2.80565 h 7 7 v -7.5 c 0,-4.33333 -0.42222,-7.5 -1,-7.5 -0.55,0 -1,-1.35 -1,-3 0,-2.93333 -0.11111,-3 -5,-3 -4.88889,0 -5,0.0667 -5,3 0,1.65 -0.45,3 -1,3 -0.55,0 -1,1.125 -1,2.5 0,1.84621 -0.53124,2.5 -2.03138,2.5 -1.11727,0 -2.30185,0.7875 -2.63241,1.75 -0.33057,0.9625 -8.9745,10.1875 -19.20875,20.5 l -18.60772,18.75 h -48.40616 -48.40617 l -4.81086,-4.5 -4.81087,-4.5 h -10.27305 -10.27306 l -8.76978,-8.72915 -8.76979,-8.72915 v -89.9865 -89.9865 l 4.71241,-4.78435 c 2.59183,-2.63139 5.50527,-4.78435 6.47432,-4.78435 0.96905,0 2.45609,1.34238 3.30452,2.98307 1.65663,3.20358 6.10267,6.01693 9.50875,6.01693 5.30015,0 11,-5.69986 11,-11 0,-5.30014 -5.69985,-11 -11,-11 -3.40608,0 -7.85212,2.81335 -9.50875,6.01693 -1.17574,2.27363 -2.23446,2.98307 -4.45171,2.98307 -2.19698,0 -4.27141,1.36231 -8.47432,5.56522 l -5.56522,5.56521 v 92.1669 92.16689 l 9.73124,9.76789 9.73124,9.76789 h 10.56055 10.56056 l 4.41641,4.5 4.41642,4.5 h 50.57394 50.57395 z m -7.09103,-9.94435 21.17368,-21.25 0.10303,-16 0.10303,-16 12.39824,-12.5 12.39823,-12.5 0.10665,-16.51554 0.10664,-16.51555 -11.54032,-11.38595 -11.54031,-11.38595 v -15.05634 -15.05634 l 3.70295,-3.79217 c 3.36517,-3.44624 4.18614,-3.79216 9,-3.79216 h 5.29705 v -7.5 c 0,-4.33333 -0.42222,-7.5 -1,-7.5 -0.55,0 -1,-1.35 -1,-3 0,-2.93333 -0.11111,-3 -5,-3 -4.88889,0 -5,0.0667 -5,3 0,1.65 -0.45,3 -1,3 -0.56286,0 -1,2.80736 -1,6.42208 0,6.25511 -0.10399,6.51109 -4,9.84592 l -4,3.42386 v 17.57839 17.57839 l 11.5,11.23732 11.5,11.23733 v 14.67077 14.67077 l -12.5,12.25595 -12.5,12.25595 v 16.1527 16.1527 l -20.24085,20.25894 -20.24085,20.25893 h -41.92422 -41.92422 l -6.24837,-6 -6.24838,-6 h -9.80756 -9.80755 l -5.779,-5.7187 -5.779,-5.71869 v -81.59422 -81.59421 l 2.80472,-2.68709 c 2.66159,-2.54997 3.31498,-2.68709 12.80383,-2.68709 9.97698,0 10.006,-0.007 13.1065,-3.25 l 3.10738,-3.25 0.13499,-13.00194 0.13499,-13.00193 -3.99798,-3.90392 c -3.18164,-3.10679 -3.80363,-4.26705 -3.0462,-5.68232 1.82506,-3.41016 1.05762,-7.75987 -1.9662,-11.14411 -2.58167,-2.8894 -3.51313,-3.26578 -8.08203,-3.26578 -4.5689,0 -5.50035,0.37638 -8.08203,3.26578 -3.94362,4.41368 -3.94329,9.05551 9.6e-4,13.46844 2.68331,3.00217 3.40441,3.26578 8.93336,3.26578 5.29135,0 6.38313,0.35312 9.08108,2.93709 3.05826,2.92908 3.06663,2.96711 3.06663,13.93555 0,9.91607 -0.21398,11.22623 -2.17431,13.31291 -2.0014,2.13039 -2.99814,2.31445 -12.53333,2.31445 h -10.35902 l -3.46667,3.46667 -3.46667,3.46666 v 83.75824 83.75824 l 6.72318,6.77509 6.72318,6.7751 h 10.17388 10.17387 l 5.35295,5.93602 5.35294,5.93602 44.50872,0.064 44.50872,0.064 z m -25.67111,9.73965 c 5.07211,-2.62289 5.44869,-4.3594 5.10452,-23.53821 -0.27051,-15.0746 -0.0908,-17.73455 1.27473,-18.86784 1.41833,-1.17711 1.14318,-1.85253 -2.55331,-6.26759 l -4.14295,-4.9483 -4.85458,4.78159 -4.85458,4.78158 5.00307,5.066 5.00308,5.06601 v 7.15568 7.15569 l -3.34521,-0.54285 c -6.12453,-0.99388 -12.65479,4.51145 -12.65479,10.66859 0,3.28705 2.75968,7.80526 5.76257,9.43461 3.53584,1.91853 6.62184,1.93509 10.25745,0.055 z m -28.02002,-2.18493 c 0,-0.38241 -1.12976,-1.8745 -2.51057,-3.31576 l -2.51057,-2.62047 2.52381,-2.371 c 1.95654,-1.83807 2.79231,-2.10251 3.71834,-1.17648 1.76954,1.76954 11.20713,-7.60021 9.60259,-9.53356 -1.50601,-1.81463 2.45538,-6.06587 6.04092,-6.4829 3.31694,-0.3858 3.92223,-3.15049 1.20004,-5.4813 -1.80415,-1.54476 -2.06456,-2.91075 -2.06456,-10.82965 v -9.06192 l 5.51396,-5.44547 5.51396,-5.44547 9.70078,9.70078 9.70077,9.70077 -2.71473,2.83357 c -2.60714,2.72127 -2.71474,3.25748 -2.71474,13.52886 0,7.80251 0.33301,10.69528 1.23121,10.69528 0.67717,0 5.40217,-4.15361 10.5,-9.23025 l 9.26879,-9.23025 v -15.33549 c 0,-8.43452 0.44498,-16.16695 0.98885,-17.18317 0.54387,-1.01623 6.16887,-6.90939 12.5,-13.09591 l 11.51115,-11.24822 V 484.5264 472.89626 l -4.28785,-4.20821 c -2.35832,-2.31452 -4.82176,-4.20821 -5.47432,-4.20821 -0.65256,0 -1.9155,1.4098 -2.80654,3.13288 l -1.62008,3.13288 -2.50775,-2.50776 c -2.08421,-2.08421 -2.32161,-2.85557 -1.40561,-4.56713 3.55015,-6.63353 -2.29247,-16.19087 -9.89785,-16.19087 -3.40608,0 -7.85212,2.81335 -9.50875,6.01693 -1.31703,2.54685 -2.12016,2.98307 -5.49218,2.98307 -3.85252,0 -3.92498,-0.0647 -2.94885,-2.63208 1.02014,-2.68319 0.45472,-6.36792 -0.97716,-6.36792 -0.4357,0 -2.30691,-1.5492 -4.15826,-3.44266 -3.62027,-3.70261 -5.71692,-8.34007 -5.83872,-12.91433 -0.0599,-2.25068 -0.43267,-2.72015 -1.75636,-2.2122 -1.17949,0.45261 -3.2658,-0.92104 -7,-4.60885 l -5.31972,-5.25364 v -8.56832 -8.56832 l 5.50727,-5.43885 5.50726,-5.43886 9.4061,9.36699 c 5.56655,5.5434 9.19369,9.92052 8.88575,10.72302 -0.351,0.91469 0.27955,1.35602 1.93741,1.35602 3.09921,0 8.79042,1.88558 10.75621,3.56369 0.825,0.70427 2.7375,1.58933 4.25,1.96681 2.5815,0.64426 2.75,0.48489 2.75,-2.60109 0,-3.96477 2.02567,-9.92941 3.37215,-9.92941 0.5337,0 1.7933,-0.74474 2.79911,-1.65499 1.67217,-1.51329 1.82874,-3.65372 1.82874,-25 v -23.34501 h 8 c 4.4,0 8,-0.35631 8,-0.79179 0,-0.43549 -2.00595,-2.76049 -4.45767,-5.16667 -5.35277,-5.25334 -8.79671,-5.68817 -13.52697,-1.70791 -1.74323,1.46682 -4.2437,2.93656 -5.5566,3.26608 -3.60419,0.90459 -4.03316,3.92894 -1.05868,7.46391 7.09673,8.43399 5.19597,20.24859 -4.28563,26.63824 -9.62287,6.48484 -22.53125,1.89437 -26.70962,-9.49846 -2.23206,-6.08598 -3.95547,-8.05276 -5.60813,-6.4001 -0.95679,0.95679 -2.4577,-0.01 -7.00715,-4.51155 l -5.78955,-5.72914 v -8.78131 c 0,-6.22604 0.35374,-8.7813 1.21565,-8.7813 0.66861,0 3.37289,-2.1248 6.00951,-4.72177 l 4.79385,-4.72177 9.75839,9.72177 c 8.93106,8.89755 12.2226,11.26698 12.2226,8.7985 0,-0.50781 -1.13115,-2.26758 -2.51368,-3.91062 -3.15551,-3.75011 -5.49295,-9.26138 -5.46436,-12.88399 0.0575,-7.28261 7.42202,-16.2475 15.03,-18.29611 5.28311,-1.4226 9.85609,0.0327 15.15998,4.82443 3.50112,3.16305 4.53853,3.5592 9.1193,3.48231 6.6206,-0.11113 9.05836,1.33861 18.4826,10.99162 7.19786,7.37258 12.1568,15.09611 12.17702,18.96563 0.008,1.57285 1.27453,1.75 12.50914,1.75 h 12.5 l 0.007,-3.25 c 0.009,-4.20978 1.77962,-6.78292 11.86145,-17.23302 9.31791,-9.65827 9.74695,-11.36624 3.81116,-15.17191 -3.48941,-2.23694 -6.67961,-7.60848 -6.67961,-11.2462 0,-2.06675 -0.32907,-2.09887 -21.5,-2.09887 h -21.5 v -2.46146 c 0,-2.04911 -0.71097,-2.65289 -4.24427,-3.6043 -6.23239,-1.67821 -14.77011,-9.677 -15.27051,-14.30658 -0.12649,-1.17021 -0.2874,-2.69015 -0.3576,-3.37765 -0.0702,-0.6875 -1.02762,-1.25 -2.12762,-1.25 -1.93644,0 -2,-0.66667 -2,-20.97695 0,-20.89353 -0.009,-20.98305 -2.3416,-22.51122 -2.02641,-1.32775 -7.91546,-1.49911 -43.75,-1.27305 l -41.4084,0.26122 -0.28753,9.25 c -0.26877,8.64672 -0.15849,9.25 1.69099,9.25 1.08818,0 2.21847,-0.38827 2.51176,-0.86283 0.29329,-0.47455 2.53119,-1.42221 4.9731,-2.1059 4.90948,-1.37457 10.11351,-0.29287 14.32215,2.97698 l 2.21047,1.7174 -2.45058,2.3022 c -2.11905,1.99074 -2.7965,2.14458 -5.00752,1.13717 -5.53639,-2.52255 -12.27832,-0.35631 -14.94591,4.80225 -4.32688,8.36726 2.37362,17.00491 12.15159,15.66469 l 4.33148,-0.5937 v 3.43556 c 0,3.15217 -0.29666,3.49121 -3.59646,4.11025 -3.57123,0.66997 -10.74674,-0.84805 -13.10974,-2.77343 -2.11604,-1.72417 -3.2938,0.16398 -3.2938,5.2805 0,2.7352 -0.76011,6.64614 -1.68914,8.69098 -0.92902,2.04483 -1.72212,4.25258 -1.76244,4.90612 -0.0999,1.61943 -14.15929,15.30382 -15.76402,15.34355 -0.70642,0.0175 -2.18221,0.71026 -3.27953,1.53949 -1.71147,1.29333 -1.78256,1.64206 -0.5,2.45288 0.99572,0.62948 1.0776,0.95032 0.24513,0.96052 -0.7218,0.009 -1.25,1.29657 -1.25,3.04743 0,1.66766 -0.67201,4.64047 -1.49336,6.60623 -1.58936,3.80387 -1.2836,5.36165 1.05238,5.36165 1.16315,0 1.44098,2.02446 1.44098,10.5 0,7.58882 0.33785,10.5 1.21856,10.5 2.06706,0 11.78144,-10.29499 11.78144,-12.48559 0,-1.26374 3.65199,-5.69072 9.49273,-11.50718 l 9.49274,-9.45326 5.50726,5.43886 5.50727,5.43885 v 7.87987 c 0,5.60588 -0.48818,8.7063 -1.69167,10.74363 -1.58832,2.68881 -1.58841,2.97786 -10e-4,4.73138 1.59809,1.76587 1.55334,1.99617 -0.82158,4.22729 -1.94718,1.82928 -2.78024,2.09117 -3.70627,1.16514 -0.92603,-0.92603 -2.26873,-0.13647 -5.97365,3.51274 l -4.77913,4.70727 1.9925,2.12092 1.9925,2.12092 -2.39957,2.25428 c -2.07662,1.95088 -2.67688,2.08108 -4.46012,0.96743 -1.13331,-0.70776 -2.24322,-1.07887 -2.46646,-0.8247 -0.22324,0.25418 -0.67864,3.51956 -1.01198,7.25639 -0.76843,8.61406 0.7875,9.71184 6.156,4.34335 3.11649,-3.11649 3.47576,-3.91981 2.47196,-5.52715 -0.9817,-1.57196 -0.77111,-2.25965 1.28284,-4.18924 2.29738,-2.15827 2.56626,-2.19963 4.13058,-0.63532 1.55306,1.55307 1.8037,1.55516 3.48986,0.0292 1.69622,-1.53505 1.98236,-1.48834 4.31673,0.70469 l 2.50009,2.34871 -2.51057,2.62047 c -3.19937,3.33943 -3.15507,4.01939 0.48943,7.51104 2.86046,2.74049 3,3.25939 3,11.15571 0,6.89257 -0.24768,8.18648 -1.47676,7.71484 -0.94498,-0.36263 -1.90464,0.37242 -2.66502,2.04127 -1.02829,2.25685 -0.89603,2.91903 0.98236,4.91849 l 2.17063,2.31053 -2.49513,2.34405 c -2.3301,2.18902 -2.61533,2.23527 -4.31259,0.69927 -1.71086,-1.54831 -2.09282,-1.36522 -6.5121,3.12152 l -4.69463,4.76631 4.79385,4.72177 c 3.71634,3.66046 5.06235,4.45328 5.98838,3.52725 0.92603,-0.92603 1.76188,-0.66152 3.71869,1.17681 l 2.52417,2.37133 -4.01093,3.97123 c -2.206,2.18417 -4.01092,4.48053 -4.01092,5.10301 0,0.62249 2.25,3.34796 5,6.05661 l 5,4.92482 v 7.7562 c 0,5.99053 -0.29874,7.64157 -1.31231,7.25263 -0.72446,-0.278 -1.92089,0.63357 -2.67091,2.035 -1.219,2.27772 -1.13495,2.77666 0.81791,4.85539 l 2.17652,2.3168 -2.52621,2.37325 c -2.36177,2.21877 -2.63514,2.26434 -4.19946,0.70003 -1.55306,-1.55307 -1.8037,-1.55516 -3.48986,-0.0292 -1.69611,1.53496 -1.9818,1.48886 -4.30616,-0.69475 -1.36973,-1.28634 -2.49001,-2.93535 -2.49001,-3.66447 0,-1.03545 -2.9556,-1.32569 -13.5,-1.32569 h -13.5 v 3.47432 c 0,2.7784 0.55084,3.75946 2.75,4.89785 1.5125,0.78294 7.90011,6.64449 14.19468,13.02568 10.84071,10.98987 15.05532,13.76321 15.05532,9.90687 0,-0.93241 -1.12976,-2.8745 -2.51057,-4.31576 l -2.51057,-2.62047 2.53118,-2.37792 c 2.36641,-2.22313 2.6401,-2.269 4.20442,-0.70469 1.55306,1.55307 1.8037,1.55516 3.48986,0.0292 1.69632,-1.53515 1.98291,-1.48782 4.32731,0.71462 l 2.51066,2.35865 -4.52114,4.59017 c -2.48663,2.5246 -4.52115,5.04164 -4.52115,5.59342 0,0.55178 2.25,3.21941 5,5.92806 l 5,4.92482 v 7.7562 c 0,5.99053 -0.29874,7.64157 -1.31231,7.25263 -0.72446,-0.278 -1.92089,0.63357 -2.67091,2.035 -1.219,2.27772 -1.13495,2.77666 0.81791,4.85539 l 2.17652,2.3168 -2.52621,2.37325 c -2.36177,2.21877 -2.63514,2.26434 -4.19946,0.70003 -1.55306,-1.55307 -1.8037,-1.55516 -3.48986,-0.0292 -1.69493,1.53389 -1.97593,1.49438 -4.19441,-0.58977 -1.30777,-1.22859 -2.18406,-2.9901 -1.9473,-3.91447 0.28023,-1.09411 -2.20181,-4.28948 -7.11175,-9.15564 -4.14822,-4.11125 -7.54222,-8.17533 -7.54222,-9.03132 0,-2.51675 -11.21564,-12.99372 -13.90984,-12.99372 -2.19401,0 -2.29786,0.25166 -1.54749,3.75 1.6403,7.64728 1.11237,12.66178 -1.79567,17.05613 -1.51085,2.28304 -2.747,4.7572 -2.747,5.49812 0,0.74092 -1.08709,2.3684 -2.41577,3.61662 -2.2241,2.08944 -2.70015,2.16667 -6,0.97343 -2.93078,-1.05979 -4.23531,-1.06064 -7.15549,-0.005 -3.14786,1.13828 -3.80406,1.08071 -5.53482,-0.48561 -1.07996,-0.97735 -2.51645,-2.93058 -3.19221,-4.3405 -1.52603,-3.18395 -5.07295,-3.46601 -5.50497,-0.43777 -0.1668,1.16915 -1.3664,3.12448 -2.66577,4.34518 -2.13905,2.00953 -2.68725,2.10203 -5.79577,0.97798 -10.8986,-3.94099 -19.46132,9.4159 -11.28065,17.59656 8.01053,8.01054 21.66589,-0.44011 17.69795,-10.9524 -1.05599,-2.79762 -0.90077,-3.30631 1.84733,-6.05441 l 3.00017,-2.99987 3.00018,3.00018 c 2.7481,2.7481 2.90331,3.25679 1.84733,6.05441 -3.0611,8.10978 5.4294,16.62819 13.52718,13.57162 2.63606,-0.995 3.31758,-0.86294 5.33688,1.03409 2.81591,2.64541 2.02784,3.68602 -4.44313,5.86702 -9.94205,3.3509 -6.80642,3.93422 21.14823,3.93422 14.62083,0 26.58333,-0.31288 26.58333,-0.69528 z m -40.64688,-12.39604 c -1.80338,-1.80339 -1.94818,-2.52123 -1.00992,-5.00695 0.81295,-2.15375 0.78409,-3.72616 -0.11196,-6.10006 -1.07521,-2.84857 -0.96865,-3.45227 0.97444,-5.52061 2.72975,-2.90568 4.16623,-1.74478 5.893,4.76243 0.98911,3.7274 0.94259,5.33272 -0.25901,8.9375 -1.74178,5.22534 -2.68538,5.72886 -5.48655,2.92769 z m 27.35001,-1.70065 -3.70276,-3.79198 4.48217,-4.39891 4.48217,-4.39892 2.52325,2.37047 2.52325,2.37047 -2.02112,2.15139 -2.02113,2.15139 2.02362,1.83134 c 1.89451,1.71451 1.91751,1.94859 0.36053,3.66903 -2.46912,2.72835 -4.53278,2.26211 -8.64998,-1.95428 z m 0.50311,-66.49789 -4.21018,-4.28986 4.48433,-4.40103 4.48432,-4.40103 2.52325,2.37047 2.52325,2.37047 -2.02112,2.15139 -2.02113,2.15139 2.03104,1.83806 2.03104,1.83806 -2.18984,2.33097 c -1.2044,1.28203 -2.46769,2.33097 -2.80731,2.33097 -0.33961,0 -2.51205,-1.93044 -4.82765,-4.28986 z m 57.25239,2.4102 c -3.81236,-1.73172 -9.45863,-7.20652 -9.45863,-9.17139 0,-1.34311 -5.89589,-4.13133 -7.12704,-3.37044 -0.58757,0.36314 -3.49935,-1.7406 -6.47063,-4.67497 l -5.40233,-5.33522 v -8.58121 -8.58121 l 4.03363,-3.93874 c 5.80255,-5.66603 8.59879,-5.15447 16.99147,3.10855 8.80215,8.66617 10.23458,8.38201 5.42257,-1.07571 l -2.54395,-5 3.79814,-0.3257 c 2.81901,-0.24174 4.05593,0.12979 4.79814,1.44121 3.42697,6.05518 8.69285,8.43974 14.22223,6.44029 2.96184,-1.07101 3.67882,-1.00283 5.34903,0.50869 2.54964,2.30739 2.4332,3.24854 -0.57126,4.61746 -3.13225,1.42715 -3.13151,3.05678 0.004,9.23753 2.95756,5.82963 3.11111,9.65218 0.60577,15.08052 -2.23426,4.84098 -5.40003,7.8876 -10.34149,9.95227 -4.8195,2.01372 -8.33914,1.92594 -13.30984,-0.33193 z m 12.5741,-6.63727 c 3.32805,-1.72099 5.96727,-6.13634 5.96727,-9.98307 0,-5.77985 -5.47145,-11.5 -11,-11.5 -3.20967,0 -7.79924,2.73875 -9.25927,5.52531 l -1.30996,2.50016 -3.91688,-4.01124 c -2.97342,-3.04507 -3.63722,-4.2909 -2.75584,-5.17228 0.88138,-0.88138 0.17154,-2.34288 -2.94701,-6.06764 l -4.10803,-4.9066 -4.85313,4.78015 -4.85312,4.78015 4.68485,4.75637 c 3.56933,3.62383 4.99537,4.49866 5.98895,3.67407 0.99216,-0.82342 2.68247,0.17058 7.06677,4.1557 3.16947,2.8809 6.3346,6.29684 7.03363,7.59097 2.62045,4.85133 9.01637,6.59046 14.26177,3.87795 z m -44.99307,5.05914 c -1.79069,-1.9061 -2.07209,-2.7982 -1.21023,-3.83669 0.83277,-1.00343 0.82244,-1.65365 -0.04,-2.51607 -0.88395,-0.88395 -0.59329,-1.76935 1.21149,-3.69045 l 2.37445,-2.52749 3.31231,3.21041 c 1.82176,1.76573 3.29801,3.68464 3.28055,4.26425 -0.0175,0.57961 -1.50857,2.52213 -3.31357,4.31673 l -3.28182,3.2629 z m 0,-67 c -1.79069,-1.9061 -2.07209,-2.7982 -1.21023,-3.83669 0.74067,-0.89245 0.78613,-1.68996 0.13353,-2.34256 -0.6526,-0.6526 -0.13154,-1.79541 1.53053,-3.35684 l 2.51998,-2.3674 2.99326,2.86773 c 1.6463,1.57725 2.97898,3.34604 2.96152,3.93064 -0.0175,0.5846 -1.50857,2.53121 -3.31357,4.32581 l -3.28182,3.2629 z m -0.0361,-60.03838 c -1.81859,-1.93579 -2.10148,-2.80595 -1.20401,-3.70342 0.89747,-0.89747 0.82422,-1.55861 -0.31175,-2.81385 -1.32728,-1.46662 -1.21637,-1.89296 1.0451,-4.0175 l 2.52994,-2.37676 3.98493,3.98492 3.98492,3.98492 -3.82601,3.736 -3.82601,3.73601 z m 2.67181,-101.1538 c -1.06095,-2.0249 -1.13471,-3.32223 -0.3127,-5.5 0.79029,-2.0937 0.7554,-3.69877 -0.13147,-6.04835 -1.07285,-2.8423 -0.96784,-3.45315 0.94335,-5.48751 2.71333,-2.88821 4.13438,-1.85393 5.84441,4.25372 1.01686,3.63185 1.0211,5.36271 0.0214,8.73099 -2.12505,7.15972 -4.0832,8.40604 -6.36496,4.05115 z m 157.19727,296.17231 4.12736,-4.47765 v -9.25733 -9.25732 l 11.73437,-11.76502 11.73437,-11.76502 h 6.19824 c 5.38889,0 6.28399,0.27017 6.85492,2.069 0.85039,2.67935 6.20034,5.92249 9.77776,5.92726 5.96828,0.008 11.70034,-5.37915 11.70034,-10.99626 0,-5.52855 -5.72015,-11 -11.5,-11 -3.86581,0 -8.26482,2.64454 -10.00875,6.01693 -1.4935,2.8881 -1.76987,2.98307 -8.681,2.98307 h -7.13838 l -12.83594,12.70059 -12.83593,12.7006 v 9.48495 c 0,8.36213 -0.2574,9.75894 -2.17431,11.79941 -1.74491,1.85737 -3.2261,2.31445 -7.5,2.31445 h -5.32569 v 3.5 3.5 h 5.87264 c 5.67465,0 6.01179,-0.15096 10,-4.47766 z m -26.87264,-0.0223 c 0,-2.88562 -0.36755,-3.5 -2.09384,-3.5 -1.94713,0 -2.04534,-0.36784 -1.40162,-5.25 0.53,-4.01963 1.46914,-6.07024 4.00734,-8.75 l 3.31512,-3.5 0.12105,-13 0.12106,-13 7.22674,-7.25324 c 7.05277,-7.07862 7.30047,-7.2254 10.28909,-6.09732 7.69048,2.90283 16.00672,-4.67162 13.9828,-12.73556 -0.83209,-3.31531 -4.66631,-7.14953 -7.98162,-7.98162 -7.90476,-1.98397 -15.6437,6.27824 -12.83944,13.70757 1.00043,2.65045 0.66466,3.15721 -6.84733,10.33412 l -7.89935,7.54699 v 13.36709 c 0,10.6619 -0.30356,13.61902 -1.5,14.61197 -1.22851,1.01957 -1.5,0.95124 -1.5,-0.37756 0,-1.35237 -1.24844,-1.62244 -7.5,-1.62244 h -7.5 v 7.5 7.5 h 5 c 4.66667,0 5,0.16667 5,2.5 0,1.83333 -0.53333,2.5 -2,2.5 -1.61905,0 -2,0.66667 -2,3.5 v 3.5 h 6 6 z m 71,-3 c 0,-2.25 0.4,-2.5 4,-2.5 3.33333,0 4,0.33333 4,2 0,1.82222 0.66667,2 7.5,2 h 7.5 v -7 -7 h -7.5 c -7.33333,0 -7.5,0.0556 -7.5,2.5 0,2.25 -0.4,2.5 -4,2.5 -3.6,0 -4,-0.25 -4,-2.5 0,-2.44444 -0.16667,-2.5 -7.5,-2.5 -7.33333,0 -7.5,0.0556 -7.5,2.5 0,2.19048 -0.43333,2.5 -3.5,2.5 -3.06667,0 -3.5,-0.30952 -3.5,-2.5 0,-2.44444 -0.16667,-2.5 -7.5,-2.5 h -7.5 v 7 7 h 7.5 c 6.83333,0 7.5,-0.17778 7.5,-2 0,-1.61905 0.66667,-2 3.5,-2 3.06667,0 3.5,0.30952 3.5,2.5 0,2.44444 0.16667,2.5 7.5,2.5 7.33333,0 7.5,-0.0556 7.5,-2.5 z m -123,-24 c 0,-2.44444 0.45238,-3.5 1.5,-3.5 1.2,0 1.5,-1.5 1.5,-7.5 v -7.5 h -7.5 -7.5 v 7.5 c 0,4.33333 0.42222,7.5 1,7.5 0.55,0 1,1.575 1,3.5 v 3.5 h 5 5 z m -88.70463,-12.70775 c -3.13213,-3.17995 -5.04189,-4.44573 -5.70582,-3.7818 -0.66393,0.66393 -5.89161,-3.85668 -15.61879,-13.50625 l -14.62083,-14.5042 h -4.67496 -4.67497 v -3.5 -3.5 h -11 -11 v 10.5 10.5 h 11 11 v -3.5 c 0,-3.28511 0.2004,-3.5 3.2639,-3.5 2.8585,0 4.93497,1.67453 16.71807,13.48193 10.6219,10.64381 13.19612,13.73998 12.22834,14.70776 -0.96779,0.96779 -0.23185,2.23501 3.49593,6.0197 l 4.72177,4.79385 4.78762,-4.71562 4.78761,-4.71563 z m -81.26263,10.69082 c 3.16015,-1.63417 5.96726,-6.09519 5.96726,-9.48307 0,-5.30014 -5.69985,-11 -11,-11 -5.30014,0 -11,5.69986 -11,11 0,3.28705 2.75968,7.80526 5.76257,9.43461 3.53915,1.92032 6.62226,1.93487 10.27017,0.0485 z m 30,0 c 3.16015,-1.63417 5.96726,-6.09519 5.96726,-9.48307 0,-5.30014 -5.69985,-11 -11,-11 -5.30014,0 -11,5.69986 -11,11 0,3.28705 2.75968,7.80526 5.76257,9.43461 3.53915,1.92032 6.62226,1.93487 10.27017,0.0485 z m 167.96726,-3.98307 c 0,-2.11111 0.46667,-2.5 3,-2.5 2.53333,0 3,0.38889 3,2.5 0,2.44444 0.16667,2.5 7.5,2.5 h 7.5 v -7.5 -7.5 h -7.5 c -7.33333,0 -7.5,0.0556 -7.5,2.5 0,2.11111 -0.46667,2.5 -3,2.5 -2.53333,0 -3,-0.38889 -3,-2.5 0,-2.44444 -0.16667,-2.5 -7.5,-2.5 h -7.5 v 7.5 7.5 h 7.5 c 7.33333,0 7.5,-0.0556 7.5,-2.5 z m -194.75,-28.45407 c 3.76903,-4.21792 3.7093,-8.94078 -0.16797,-13.28019 -2.58167,-2.8894 -3.51313,-3.26578 -8.08203,-3.26578 -4.5689,0 -5.50035,0.37638 -8.08203,3.26578 -4.79256,5.36381 -3.05908,13.50901 3.47015,16.30532 3.96205,1.69686 9.88785,0.3031 12.86188,-3.02513 z m 284.78273,-16.5629 c 3.32805,-1.72099 5.96727,-6.13634 5.96727,-9.98307 0,-5.75572 -5.46972,-11.5 -10.95034,-11.5 -1.61073,0 -2.04966,-0.64244 -2.04966,-3 v -3 h -7.5 -7.5 v 7.5 7.5 h 3 c 2.54891,0 3,0.38337 3,2.54966 0,5.74811 5.26802,11.314 10.79966,11.4103 1.26481,0.022 3.6197,-0.64258 5.23307,-1.47689 z m -284.78273,-13.4371 c 3.76903,-4.21792 3.7093,-8.94078 -0.16797,-13.28019 -2.58167,-2.8894 -3.51313,-3.26578 -8.08203,-3.26578 -4.5689,0 -5.50035,0.37638 -8.08203,3.26578 -4.79256,5.36381 -3.05908,13.50901 3.47015,16.30532 3.96205,1.69686 9.88785,0.3031 12.86188,-3.02513 z m 29.61158,0.5999 c 2.61606,-2.4932 2.80455,-2.51637 22.23585,-2.7335 10.77859,-0.12044 20.04042,0.0548 20.58184,0.38941 0.54142,0.33461 3.0858,-1.5251 5.65418,-4.13269 l 4.66979,-4.74108 -4.78761,-4.71563 -4.78762,-4.71562 -4.73831,4.81065 c -2.60607,2.64585 -4.42738,5.12158 -4.04734,5.50162 0.38004,0.38003 -6.42384,0.69097 -15.11971,0.69097 h -15.81069 l -3.24162,-3.75 c -2.97049,-3.43635 -3.67625,-3.75 -8.43801,-3.75 -4.60541,0 -5.52824,0.37141 -8.11436,3.26578 -4.79256,5.36381 -3.05908,13.50901 3.47015,16.30532 3.5049,1.50107 9.59644,0.31668 12.47346,-2.42523 z m 223.13842,-7.14587 v -7.5 h -7.5 -7.5 v 3 c 0,2.42229 -0.42275,3 -2.19528,3 -1.20741,0 -3.45741,-1.20919 -5,-2.68709 l -2.80472,-2.68709 -0.0216,-14.56291 -0.0216,-14.56291 -5.16481,-5.37103 -5.16481,-5.37103 -6.90506,0.49405 c -7.56794,0.54148 -11.98697,2.86638 -12.54173,6.59834 -0.30351,2.04174 -0.84324,2.14967 -10.75,2.14967 h -10.43039 v -10.32569 c 0,-9.72109 0.14638,-10.4632 2.5,-12.67431 2.43057,-2.2834 2.5,-2.72887 2.5,-16.03946 0,-12.17663 -0.2212,-13.97203 -2,-16.23341 -1.80967,-2.30062 -2,-4.05678 -2,-18.45389 v -15.91131 l -8.76117,-8.57326 -8.76117,-8.57327 -7.77569,-0.72864 c -7.2229,-0.67684 -7.88091,-0.93212 -9.25576,-3.59077 -1.60197,-3.09788 -6.08494,-5.89599 -9.44621,-5.89599 -5.52855,0 -11,5.72015 -11,11.5 0,5.77985 5.47145,11.5 11,11.5 3.42206,0 7.85497,-2.81887 9.53159,-6.06109 1.5529,-3.00297 1.61518,-3.02198 7.76693,-2.37134 6.08843,0.64395 6.34276,0.79472 13.95148,8.27071 l 7.75,7.6148 v 16.11847 c 0,14.84848 0.15758,16.26108 2,17.92845 1.77467,1.60606 2,3.07997 2,13.08241 0,10.83286 -0.0975,11.34911 -2.5,13.23893 -2.45529,1.93133 -2.5,2.21843 -2.5,16.05353 0,16.73231 -1.6358,15.33827 17.5,14.91362 l 13,-0.28849 0.33468,-2.5 c 0.52506,-3.92221 1.78122,-4.50494 8.95641,-4.15485 5.59736,0.2731 7.16454,0.75825 9.45891,2.92818 l 2.75,2.60085 v 14.52075 14.52074 l 3.70295,3.79217 c 2.80642,2.87403 4.5012,3.79216 7,3.79216 2.85019,0 3.29705,0.33884 3.29705,2.5 0,2.44444 0.16667,2.5 7.5,2.5 h 7.5 z m -60,-17 c 0,-2.41026 0.23333,-2.5 6.5,-2.5 6.26667,0 6.5,0.0897 6.5,2.5 0,2.42857 0.2,2.5 7,2.5 h 7 v -7.5 -7.5 h -7 c -6.8,0 -7,0.0714 -7,2.5 0,2.41026 -0.23333,2.5 -6.5,2.5 -6.26667,0 -6.5,-0.0897 -6.5,-2.5 0,-2.44444 -0.16667,-2.5 -7.5,-2.5 -7.33333,0 -7.5,0.0556 -7.5,2.5 0,3.7257 -1.85795,3.07197 -7.71855,-2.71584 -4.91248,-4.85145 -5.28145,-5.55007 -5.28145,-10 0,-4.11749 0.2787,-4.78416 2,-4.78416 1.82222,0 2,-0.66667 2,-7.5 v -7.5 h -7 -7 v 7.5 c 0,7.33333 0.0556,7.5 2.5,7.5 2.41042,0 2.50339,0.24187 2.5945,6.75 l 0.0945,6.75 6.37824,5.75 c 4.21594,3.80067 7.23502,5.75 8.9055,5.75 2.02907,0 2.52725,0.49281 2.52725,2.5 0,2.44444 0.16667,2.5 7.5,2.5 7.33333,0 7.5,-0.0556 7.5,-2.5 z m 52,-5 v -7.5 h -3 c -2.93911,0 -3,-0.10296 -3,-5.07332 0,-4.29137 0.26973,-5.02223 1.75,-4.74181 1.16047,0.21983 1.857,1.4429 2.06763,3.63066 0.50333,5.22785 2.74297,5.05009 8.54319,-0.67808 5.0405,-4.97789 5.37968,-5.13745 10.92063,-5.13745 h 5.71855 v -7.5 -7.5 h -7.5 -7.5 v 5.32569 c 0,4.35998 -0.44463,5.74339 -2.45204,7.62925 l -2.45203,2.30357 -3.12469,-2.62926 c -2.60433,-2.19139 -4.11111,-2.62925 -9.04797,-2.62925 h -5.92327 v 3.5 c 0,2.83333 0.38095,3.5 2,3.5 1.73333,0 2,0.66667 2,5 0,3.77778 -0.36667,5 -1.5,5 -1.2,0 -1.5,1.5 -1.5,7.5 v 7.5 h 7 7 z m -244.75,-1.45403 c 3.76903,-4.21792 3.7093,-8.94078 -0.16797,-13.28019 -2.58167,-2.8894 -3.51313,-3.26578 -8.08203,-3.26578 -4.5689,0 -5.50035,0.37638 -8.08203,3.26578 -4.79256,5.36381 -3.05908,13.50901 3.47015,16.30532 3.96205,1.69686 9.88785,0.3031 12.86188,-3.02513 z m 29.6663,0.53422 c 2.45583,-2.35283 3.42939,-2.58019 11.04842,-2.58019 h 8.35528 l 5.84,-5.84 5.84,-5.84 v -7.44416 -7.44416 l 5.47526,-5.40725 c 3.01139,-2.97398 5.79733,-5.08517 6.19097,-4.69153 0.39365,0.39364 2.88051,-1.41653 5.52636,-4.0226 l 4.81065,-4.73831 -4.71562,-4.78762 -4.71563,-4.78761 -4.75637,4.68485 c -3.75333,3.69689 -4.51643,4.97396 -3.61859,6.0558 0.90071,1.08529 -0.1473,2.66757 -5.02962,7.59368 l -6.16741,6.22272 v 7.93093 c 0,7.79732 -0.0624,7.99482 -3.70295,11.7231 -3.52877,3.61379 -4.00592,3.79216 -10.14402,3.79216 -6.20006,0 -6.56237,-0.14032 -9.68269,-3.75 -2.97049,-3.43635 -3.67625,-3.75 -8.43801,-3.75 -4.60541,0 -5.52824,0.37141 -8.11436,3.26578 -4.79256,5.36381 -3.05908,13.50901 3.47015,16.30532 3.54802,1.51954 9.59765,0.31672 12.52818,-2.49091 z m 98.11643,-13.09712 c 3.16015,-1.63417 5.96727,-6.09519 5.96727,-9.48307 0,-7.40687 -8.95323,-13.23613 -15.1971,-9.89452 -1.79474,0.96052 -2.66714,0.50396 -6.65268,-3.48157 -3.52004,-3.52005 -4.31305,-4.86108 -3.4091,-5.76503 0.90395,-0.90395 0.22237,-2.31931 -2.93008,-6.08457 l -4.10803,-4.9066 -4.85313,4.78015 -4.85312,4.78015 4.68485,4.75637 c 3.68442,3.74067 4.97615,4.51462 6.04897,3.62426 1.07014,-0.88814 2.31169,-0.20215 5.76106,3.18316 3.70749,3.63863 4.30787,4.76066 3.82885,7.15574 -0.78867,3.94337 1.43947,8.73492 5.09982,10.96699 3.73343,2.27664 6.72188,2.38042 10.61242,0.36854 z m -130.99999,-14 c 3.16015,-1.63417 5.96726,-6.09519 5.96726,-9.48307 0,-5.30014 -5.69985,-11 -11,-11 -5.30014,0 -11,5.69986 -11,11 0,3.28705 2.75968,7.80526 5.76257,9.43461 3.53915,1.92032 6.62226,1.93487 10.27017,0.0485 z m 30,0 c 3.21055,-1.66024 5.96726,-6.10736 5.96726,-9.62638 0,-1.49654 3.3269,-5.62345 10,-12.40469 l 10,-10.16206 v -11.41472 -11.41472 l 9.37538,-9.3364 c 6.23415,-6.20823 9.62429,-8.93365 10.11829,-8.13435 0.50626,0.81915 2.31686,-0.34158 5.68401,-3.64385 l 4.9411,-4.8459 -4.77444,-4.16307 -4.77444,-4.16306 -4.8116,4.02849 c -3.94155,3.30005 -4.5948,4.28972 -3.61266,5.47312 0.98648,1.18864 -0.60359,3.2533 -8.97336,11.65165 l -10.17228,10.20702 v 11.505 11.50501 l -8.45352,8.40961 c -8.03263,7.9909 -8.58266,8.35077 -11.04706,7.22792 -5.25194,-2.39294 -11.34953,-0.30601 -13.98249,4.78558 -1.91636,3.70583 -1.91751,6.35741 -0.004,10.05704 2.78703,5.38952 9.01939,7.30332 14.52016,4.45876 z m 191.96726,-15.48307 c 0,-3.32478 -0.33546,-4 -1.98725,-4 -1.86661,0 -1.94874,-0.47046 -1.35295,-7.75 0.56823,-6.94285 0.9835,-8.14086 3.98725,-11.50288 l 3.35295,-3.75288 v -15.79417 -15.79417 l 3.90556,-3.81368 c 3.80176,-3.71232 3.93543,-3.75785 5.02964,-1.7133 1.3092,2.44626 6.04388,5.12108 9.0648,5.12108 5.52855,0 11,-5.72015 11,-11.5 0,-5.77985 -5.47145,-11.5 -11,-11.5 -3.61807,0 -7.90026,2.89448 -10.01667,6.77061 -1.11997,2.05116 -4.46276,5.75439 -7.42843,8.22939 l -5.39213,4.5 -0.0814,16.44528 c -0.0813,16.4359 -0.0829,16.44688 -2.76848,19.25 -2.34066,2.44312 -3.43653,2.80472 -8.5,2.80472 h -5.81289 v 7.5 7.5 h 5 c 4.66667,0 5,0.16667 5,2.5 0,1.83333 -0.53333,2.5 -2,2.5 -1.66667,0 -2,0.66667 -2,4 v 4 h 6 6 z m 25.86741,-0.22351 3.93965,-4.22351 0.14131,-14.02514 0.14131,-14.02515 3.15132,-3.25134 3.15133,-3.25135 h 14.18252 14.18251 l 1.29163,3.11827 c 1.44272,3.48304 6.24754,6.8723 9.75067,6.87799 5.71658,0.009 11.20034,-5.61935 11.20034,-11.49626 0,-5.77985 -5.47145,-11.5 -11,-11.5 -3.40608,0 -7.85212,2.81335 -9.50875,6.01693 l -1.54261,2.98307 h -15.47432 -15.47432 l -4,4 -4,4 v 14.17126 c 0,17.19182 -0.32705,17.82874 -9.15499,17.82874 h -5.84501 v 3.5 3.5 h 5.46388 c 5.13419,0 5.7016,-0.25484 9.40353,-4.22351 z m 47.13259,-3.27649 c 0,-2.19048 0.43333,-2.5 3.5,-2.5 2.83333,0 3.5,0.38095 3.5,2 0,1.82222 0.66667,2 7.5,2 h 7.5 v -7 -7 h -7.5 c -7.33333,0 -7.5,0.0556 -7.5,2.5 0,2.19048 -0.43333,2.5 -3.5,2.5 -3.06667,0 -3.5,-0.30952 -3.5,-2.5 0,-2.44444 -0.16667,-2.5 -7.5,-2.5 -7.33333,0 -7.5,0.0556 -7.5,2.5 0,2.2963 -0.36667,2.5 -4.5,2.5 -4.13333,0 -4.5,-0.2037 -4.5,-2.5 0,-2.44444 -0.16667,-2.5 -7.5,-2.5 h -7.5 v 7 7 h 7.5 c 6.83333,0 7.5,-0.17778 7.5,-2 0,-1.7037 0.66667,-2 4.5,-2 4.13333,0 4.5,0.2037 4.5,2.5 0,2.44444 0.16667,2.5 7.5,2.5 7.33333,0 7.5,-0.0556 7.5,-2.5 z M 524.99995,396.96291 c 3.16015,-1.63417 5.96726,-6.09519 5.96726,-9.48307 0,-5.30014 -5.69985,-11 -11,-11 -5.30014,0 -11,5.69986 -11,11 0,3.28705 2.75968,7.80526 5.76257,9.43461 3.53915,1.92032 6.62226,1.93487 10.27017,0.0485 z m 139.96726,-15.48307 c 0,-2 0.5,-3 1.5,-3 1.2,0 1.5,-1.5 1.5,-7.5 v -7.5 h -7.5 -7.5 v 7.5 c 0,4.33333 0.42222,7.5 1,7.5 0.55,0 1,1.35 1,3 0,2.93333 0.11111,3 5,3 4.88889,0 5,-0.0667 5,-3 z m -36.96727,-1.51693 c 3.32805,-1.72099 5.96727,-6.13634 5.96727,-9.98307 0,-5.87691 -5.48376,-11.50555 -11.20034,-11.49626 -1.26481,0.002 -3.70755,0.86223 -5.42831,1.9115 l -3.12864,1.90776 -4.3255,-4.40736 c -3.28928,-3.35153 -4.04672,-4.68613 -3.16181,-5.57104 0.88491,-0.88491 0.17956,-2.33911 -2.94436,-6.07029 l -4.10803,-4.9066 -4.85313,4.78015 -4.85312,4.78015 4.68485,4.75637 c 3.68849,3.7448 4.97544,4.51521 6.05119,3.62241 1.8731,-1.55453 11.2672,7.57949 11.2672,10.95528 0,5.54353 5.36197,11.10322 10.79966,11.19789 1.26481,0.022 3.6197,-0.64258 5.23307,-1.47689 z m 64.96727,-3.98307 c 0,-2 0.5,-2.5 2.5,-2.5 2,0 2.5,0.5 2.5,2.5 0,2.44444 0.16667,2.5 7.5,2.5 h 7.5 v -7.5 -7.5 h -7.5 c -7.33333,0 -7.5,0.0556 -7.5,2.5 0,2 -0.5,2.5 -2.5,2.5 -2,0 -2.5,-0.5 -2.5,-2.5 0,-2.44444 -0.16667,-2.5 -7.5,-2.5 h -7.5 v 7.5 7.5 h 7.5 c 7.33333,0 7.5,-0.0556 7.5,-2.5 z m -162,-18 v -10.5 h -11 -11 v 10.5 10.5 h 11 11 z m 243.03273,-16.01693 c 3.23222,-1.67144 5.96933,-6.11588 5.96353,-9.68341 -0.005,-3.14968 -3.40967,-8.47871 -5.92726,-9.27776 -2.64248,-0.83869 -2.68853,-2.5219 -0.069,-2.5219 1.82222,0 2,-0.66667 2,-7.5 v -7.5 h -7.5 -7.5 v 7.5 7.5 l 3.25,0.0442 3.25,0.0442 -3.73186,1.97039 c -6.12731,3.23516 -8.2281,9.21729 -5.25557,14.96553 2.81926,5.45184 9.74959,7.44284 15.52016,4.45876 z m -275.66882,-7.56458 c 2.45423,-2.74654 2.79486,-3.81753 2.38126,-7.48698 -0.44092,-3.91181 -0.15953,-4.59747 3.25502,-7.93169 l 3.73765,-3.64972 15.17734,0.25686 15.17733,0.25686 8.45375,-8.40983 8.45374,-8.40982 v -32.08499 -32.08499 l 2.80472,-2.68709 2.80472,-2.68709 h 44.28755 c 42.77336,0 44.37448,0.0684 46.83014,2 1.39842,1.1 3.3819,2 4.40773,2 1.6544,0 1.86514,0.84743 1.86514,7.5 v 7.5 h 7.5 7.5 v -7.5 c 0,-4.33333 -0.42222,-7.5 -1,-7.5 -0.55,0 -1,-2.025 -1,-4.5 v -4.5 h -5.5 c -4.83333,0 -5.5,0.24242 -5.5,2 0,2.57453 -2.45415,2.57453 -5.72713,0 -2.46043,-1.93538 -4.05678,-2 -49.40485,-2 h -46.86226 l -4.00288,3.61636 -4.00288,3.61636 v 32.11152 32.11151 l -7.72654,7.77212 -7.72654,7.77212 H 519.27547 504.0368 l -3.70257,3.25 c -3.28428,2.88283 -4.37063,3.25 -9.61587,3.25 -5.41474,0 -6.15939,0.27534 -8.83222,3.26578 -4.7937,5.36332 -3.06064,13.50875 3.46919,16.30532 4.03155,1.72662 9.88709,0.30395 12.97579,-3.15261 z m 29.88609,0.12748 c 3.76903,-4.21792 3.7093,-8.94078 -0.16797,-13.28019 -2.58167,-2.8894 -3.51313,-3.26578 -8.08203,-3.26578 -4.5689,0 -5.50035,0.37638 -8.08203,3.26578 -4.79256,5.36381 -3.05908,13.50901 3.47015,16.30532 3.96205,1.69686 9.88785,0.3031 12.86188,-3.02513 z m 222.75,-21.54597 v -7.5 h -7.5 -7.5 v 3.06955 c 0,2.61125 -0.33594,3.02184 -2.25,2.75 -2.20476,-0.31312 -2.25556,-0.62117 -2.52656,-15.31954 l -0.27655,-15 -7.19842,-7.25 -7.19841,-7.25 h -5.71753 -5.71753 l -0.3075,4.25 -0.3075,4.25 -12.31496,0.2813 -12.31495,0.2813 0.60921,-10.7813 c 0.33506,-5.92971 0.82724,-23.89291 1.09372,-39.9182 l 0.48451,-29.13691 -3.10549,-2.61309 c -2.92761,-2.46343 -3.72228,-2.6131 -13.87378,-2.6131 -9.54021,0 -10.97714,0.23079 -12.59965,2.02363 -1.00725,1.113 -2.08949,1.64942 -2.40499,1.19204 -1.39628,-2.02423 -5.75862,-4.21567 -8.39183,-4.21567 -5.85195,0 -11.68179,5.73912 -11.68179,11.5 0,5.67763 5.82237,11.5 11.5,11.5 5.22487,0 11.5,-5.77849 11.5,-10.58984 0,-0.97969 0.97844,-2.82276 2.17431,-4.09571 1.92124,-2.04506 3.10512,-2.31445 10.17126,-2.31445 12.3106,0 11.65443,-1.63023 11.65443,28.95499 0,16.25051 -0.37707,26.02208 -1.02933,26.67434 -0.63535,0.63535 -0.92242,6.3575 -0.75,14.95 l 0.27933,13.92067 15.21848,0.27588 15.21847,0.27587 3.90273,-3.52587 c 2.1465,-1.93924 4.28403,-3.52588 4.75008,-3.52588 0.46604,0 3.224,2.34713 6.12879,5.21584 l 5.28145,5.21584 v 14.72746 c 0,14.0853 0.0969,14.79532 2.22251,16.28415 1.22237,0.85618 3.47237,1.5567 5,1.5567 2.11082,0 2.77749,0.48005 2.77749,2 0,1.82222 0.66667,2 7.5,2 h 7.5 z m -252.75,-8.45403 c 7.52871,-8.42536 -2.80183,-20.90808 -13.06575,-15.78776 -2.98977,1.49149 -2.99046,1.49114 -9.08712,-4.6602 l -6.09713,-6.15181 v -27.4441 -27.4441 l 5.7187,-5.77899 5.7187,-5.779 h 29.07309 29.0731 l 4.41641,-4.5 4.41642,-4.5 h 23.56055 23.56055 l 9.69977,-9.75 9.69977,-9.75 0.0503,-47.43544 0.0502,-47.435439 5.23123,-5.70163 5.23121,-5.70163 14.25,-0.11293 14.25,-0.11294 v 3 3 h 7.5 7.5 v -7.5 c 0,-4.33333 -0.42222,-7.5 -1,-7.5 -0.55,0 -1,-1.35 -1,-3 0,-2.96969 -0.0556,-3 -5.5,-3 -5.44444,0 -5.5,0.0303 -5.5,3 0,1.65 -0.45,3 -1,3 -0.55,0 -1,1.125 -1,2.5 v 2.5 h -16.02475 c -15.87981,0 -16.0328,0.0212 -16.91424,2.33952 -0.48921,1.28674 -2.95307,4.15597 -5.47524,6.37608 l -4.58577,4.03655 v 47.854149 47.85414 l -8.72915,8.76979 -8.72915,8.76978 h -23.89478 -23.89477 l -3.96106,4.5 -3.96106,4.5 H 508.47482 479.1524 l -6.59259,6.59259 -6.5926,6.5926 v 29.63231 29.63231 l 6.71308,6.76491 c 6.16862,6.21626 6.69084,7.07291 6.43888,10.56253 -0.30017,4.15731 2.42988,8.6637 6.23616,10.29384 3.96205,1.69686 9.88785,0.3031 12.86188,-3.02513 z m 30.11391,-0.12748 c 2.45175,-2.74375 2.79465,-3.81941 2.38269,-7.47435 -0.46303,-4.10798 -0.26171,-4.48656 5.32657,-10.01653 l 5.80779,-5.74719 0.0875,-27.0902 0.0875,-27.09021 6.1931,-6.25 6.1931,-6.25 h 22.04279 22.04278 l 13.20129,-13.25 13.20129,-13.25 0.0562,-38.23383 0.0562,-38.23384 4.19968,-3.91742 c 3.50782,-3.27206 4.71435,-3.8339 7.32382,-3.41044 5.89875,0.95723 12.43373,-4.668879 12.43373,-10.704479 0,-5.30014 -5.69986,-11 -11,-11 -3.38788,0 -7.8489,2.80712 -9.48307,5.96727 -1.90102,3.67617 -1.9184,6.35571 -0.0644,9.94083 1.37075,2.650749 1.30042,2.949159 -1.25,5.303759 -1.48637,1.37223 -3.48998,2.77181 -4.45248,3.11017 -1.62651,0.5718 -1.75,3.3861 -1.75,39.88215 v 39.26695 l -12.23504,12.26444 -12.235,12.26444 H 574.3356 552.17405 l -7.10345,7.10345 -7.10345,7.10345 v 27.18071 27.18071 l -5.29953,5.2337 c -5.11175,5.04826 -5.41383,5.19386 -8.52511,4.10926 -10.24315,-3.57078 -19.44316,7.39337 -13.03724,15.53717 2.80193,3.56207 5.47808,4.62125 10.36188,4.10107 2.92067,-0.31108 4.77278,-1.29085 6.86391,-3.63104 z m 168.63609,-8.41848 c 0,-2.36364 0.3,-2.5 5.5,-2.5 5.2,0 5.5,0.13636 5.5,2.5 0,2.44444 0.16667,2.5 7.5,2.5 h 7.5 v -7.5 -7.5 h -7.5 c -7.33333,0 -7.5,0.0556 -7.5,2.5 0,2.36364 -0.3,2.5 -5.5,2.5 -5.2,0 -5.5,-0.13636 -5.5,-2.5 0,-2.44444 -0.16667,-2.5 -7.5,-2.5 -7.33333,0 -7.5,0.0556 -7.5,2.5 0,2.31096 -0.3543,2.5 -4.68555,2.5 -6.7649,0 -9.31445,-2.64806 -9.31445,-9.67431 0,-5.01407 0.14628,-5.32569 2.5,-5.32569 2.44444,0 2.5,-0.16667 2.5,-7.5 v -7.5 h -7.5 -7.5 v 7.5 c 0,7.33333 0.0556,7.5 2.5,7.5 2.42499,0 2.5,0.20691 2.5,6.89641 0,6.64253 0.13013,7.01066 3.5348,10 3.10879,2.72955 4.2537,3.10359 9.5,3.10359 5.69621,0 5.9652,0.11273 5.9652,2.5 0,2.44444 0.16667,2.5 7.5,2.5 7.33333,0 7.5,-0.0556 7.5,-2.5 z m 51,-5 c 0,-6.83333 -0.17778,-7.5 -2,-7.5 -1.61905,0 -2,-0.66667 -2,-3.5 0,-3.29839 0.19157,-3.5 3.32569,-3.5 2.25443,0 4.08221,-0.80529 5.67431,-2.5 1.935,-2.05972 3.28655,-2.5 7.67431,-2.5 h 5.32569 v -7.5 -7.5 h -7.5 -7.5 v 5.67126 c 0,3.87384 -0.52452,6.25085 -1.65499,7.5 -2.00828,2.21913 -5.34501,2.4089 -5.34501,0.30399 0,-2.11586 -4.13269,-3.47525 -10.5651,-3.47525 h -5.4349 v 3.5 3.5 h 5.5 5.5 v 5 c 0,4.88889 -0.0667,5 -3,5 h -3 v 7.5 7.5 h 7.5 7.5 z M 494.99995,277.96292 c 3.16015,-1.63417 5.96726,-6.09519 5.96726,-9.48307 0,-5.30014 -5.69985,-11 -11,-11 -5.30014,0 -11,5.69986 -11,11 0,3.28705 2.75968,7.80526 5.76257,9.43461 3.53915,1.92032 6.62226,1.93487 10.27017,0.0485 z m 30,0 c 3.16015,-1.63417 5.96726,-6.09519 5.96726,-9.48307 0,-5.30014 -5.69985,-11 -11,-11 -5.30014,0 -11,5.69986 -11,11 0,3.28705 2.75968,7.80526 5.76257,9.43461 3.53915,1.92032 6.62226,1.93487 10.27017,0.0485 z m 191.96726,-29.98307 c 0,-2.83333 -0.38095,-3.5 -2,-3.5 -1.55556,0 -2,-0.66667 -2,-3 0,-1.65 0.45,-3 1,-3 0.55,0 1,-2.15867 1,-4.79705 0,-4.25891 0.43778,-5.22453 3.90236,-8.60761 l 3.90236,-3.81055 0.14165,-14.0591 c 0.0779,-7.7325 0.37341,-14.43408 0.65666,-14.89239 0.28325,-0.45832 1.5437,-0.8333 2.801,-0.8333 1.2573,0 3.08586,-0.88384 4.06346,-1.96408 1.4363,-1.58709 2.59678,-1.85178 6.04591,-1.37903 12.72717,1.74445 18.48256,-14.50234 7.44677,-21.02135 -7.59043,-4.48377 -17.57912,1.95896 -16.81356,10.84478 0.32253,3.74362 -2.72836,7.99088 -6.89661,9.60103 -2.20085,0.85016 -2.25,1.21201 -2.25,16.56516 0,19.36723 0.008,19.35349 -10.65499,19.35349 h -7.34501 v 7.5 7.5 h 4.5 c 4.33333,0 4.5,0.11111 4.5,3 0,2.33333 -0.44444,3 -2,3 -1.61905,0 -2,0.66667 -2,3.5 v 3.5 h 6 6 z m 25.92405,-0.05 3.83692,-3.55005 0.15644,-9.69995 0.15644,-9.69995 7.65362,-7.71379 7.65362,-7.7138 3.17749,1.9638 c 3.87123,2.39255 7.71945,2.50334 11.40159,0.32825 7.82445,-4.62202 7.82445,-15.1069 0,-19.72892 -7.49723,-4.42877 -16.96017,1.50276 -16.96017,10.63088 0,3.03262 -1.04538,4.4615 -8.5,11.61823 l -8.5,8.16034 v 9.14874 c 0,11.58845 -0.87056,12.80622 -9.15499,12.80622 h -5.84501 v 3.5 3.5 h 5.54356 c 4.96319,0 5.94527,-0.37167 9.38049,-3.55005 z m -241.92405,-9.45 v -11 h -11 -11 v 11 11 h 11 11 z m 24.03274,9.48307 c 3.16015,-1.63417 5.96726,-6.09519 5.96726,-9.48307 0,-5.30014 -5.69985,-11 -11,-11 -5.30014,0 -11,5.69986 -11,11 0,3.28705 2.75968,7.80526 5.76257,9.43461 3.53915,1.92032 6.62226,1.93487 10.27017,0.0485 z m 240.96726,-3.98307 c 0,-2.19048 0.43333,-2.5 3.5,-2.5 3.06667,0 3.5,0.30952 3.5,2.5 0,2.44444 0.16667,2.5 7.5,2.5 7.33333,0 7.5,-0.0556 7.5,-2.5 0,-2.11111 0.46667,-2.5 3,-2.5 2.33333,0 3,0.44444 3,2 0,1.82222 0.66667,2 7.5,2 h 7.5 v -7.5 -7.5 h -7.5 -7.5 v 3 c 0,2.66667 -0.33333,3 -3,3 -2.53333,0 -3,-0.38889 -3,-2.5 0,-2.44444 -0.16667,-2.5 -7.5,-2.5 -7.33333,0 -7.5,0.0556 -7.5,2.5 0,2.19048 -0.43333,2.5 -3.5,2.5 -3.06667,0 -3.5,-0.30952 -3.5,-2.5 0,-2.44444 -0.16667,-2.5 -7.5,-2.5 h -7.5 v 7.5 7.5 h 7.5 c 7.33333,0 7.5,-0.0556 7.5,-2.5 z m -95,-24.5 c 0,-1.65 0.45,-3 1,-3 0.57778,0 1,-3.16667 1,-7.5 v -7.5 h -7 -7 v 5.86043 c 0,3.22323 0.28617,7.94823 0.63592,10.5 l 0.63593,4.63957 h 5.36407 c 5.29342,0 5.36408,-0.0395 5.36408,-3 z m 27,-5.5 c 0,-1.55556 0.56667,-2.5 1.5,-2.5 0.93333,0 1.5,0.94444 1.5,2.5 0,2.42857 0.2,2.5 7,2.5 h 7 v -7.5 -7.5 h -7 c -6.8,0 -7,0.0714 -7,2.5 0,1.55556 -0.56667,2.5 -1.5,2.5 -0.93333,0 -1.5,-0.94444 -1.5,-2.5 0,-2.42857 -0.2,-2.5 -7,-2.5 h -7 v 7.5 7.5 h 7 c 6.8,0 7,-0.0714 7,-2.5 z m 26.34803,-66.15556 c 0.35859,-5.86056 0.65197,-15.89424 0.65197,-22.29705 v -11.64149 l -4,-3.9059 c -2.2,-2.14824 -4,-4.71457 -4,-5.70295 0,-1.52973 -0.89253,-1.79706 -6,-1.79706 -5.91132,0 -6,0.0416 -6,2.81292 0,1.77656 -1.03333,3.8029 -2.80472,5.5 -2.70243,2.58909 -3.21302,2.68709 -14,2.68709 H 676.96721 V 74.056571 34.633301 l -2.58889,-3.07673 -2.5889,-3.07673 h -13.45394 -13.45395 l -4.95716,4.63685 c -2.72644,2.55026 -4.95716,5.2387 -4.95716,5.97432 0,0.73561 -1.34238,2.03165 -2.98307,2.88008 -3.37239,1.74393 -6.01693,6.14294 -6.01693,10.00875 0,5.77985 5.47145,11.5 11,11.5 5.61711,0 11.00423,-5.73205 10.99626,-11.70034 -0.005,-3.63363 -3.26234,-8.93194 -6.03196,-9.81099 -2.08602,-0.66207 -2.02012,-0.84718 1.63395,-4.58928 l 3.80765,-3.89939 h 10.46831 c 8.33755,0 10.84054,0.33687 12.29705,1.65499 1.71331,1.55053 1.82874,4.1677 1.82874,41.46482 0,38.335359 0.0716,39.848169 1.93426,40.845019 1.06384,0.56935 7.91088,1.03518 15.21565,1.03518 h 13.28139 l 4.77953,-4.70766 4.77952,-4.70765 4.00483,3.9106 4.00482,3.91061 v 12.09705 c 0,8.07548 -0.39893,12.49598 -1.2,13.29705 -0.66,0.66 -3.135,1.2 -5.5,1.2 h -4.3 v 7.5 7.5 h 7.34803 7.34804 z m 35.88504,9.0265 c 2.9837,-1.53361 5.76693,-6.05621 5.76693,-9.37094 0,-5.52855 -5.72015,-11 -11.5,-11 -3.40706,0 -8.16677,2.50883 -9.50554,5.01035 -0.84348,1.57605 -2.09689,1.98965 -6.02964,1.98965 h -4.96482 v 7.5045 7.50449 l 11.75,-0.11663 c 7.9219,-0.0786 12.64042,-0.57431 14.48307,-1.52142 z m -251.23307,-3.87094 c 0.99319,-1.19672 0.99319,-1.80328 0,-3 -0.68469,-0.825 -1.86479,-1.5 -2.62244,-1.5 -1.03888,0 -1.37756,-1.72098 -1.37756,-7 0,-5.27902 0.33868,-7 1.37756,-7 0.75765,0 1.93775,-0.675 2.62244,-1.5 1.81913,-2.19191 -0.44918,-4.5 -4.42244,-4.5 -4.87453,0 -5.57756,1.41172 -5.57756,11.2 0,6.80791 -0.31184,8.8 -1.37755,8.8 -0.75766,0 -1.93776,0.675 -2.62245,1.5 -2.25228,2.71384 0.52619,4.5 7,4.5 3.89571,0 6.15732,-0.48463 7,-1.5 z m 27,0 c 0.99319,-1.19672 0.99319,-1.80328 0,-3 -0.68469,-0.825 -1.86479,-1.5 -2.62244,-1.5 -1.03888,0 -1.37756,-1.72098 -1.37756,-7 0,-5.27902 0.33868,-7 1.37756,-7 0.75765,0 1.93775,-0.675 2.62244,-1.5 1.81913,-2.19191 -0.44918,-4.5 -4.42244,-4.5 -4.87453,0 -5.57756,1.41172 -5.57756,11.2 0,6.80791 -0.31184,8.8 -1.37755,8.8 -0.75766,0 -1.93776,0.675 -2.62245,1.5 -2.25228,2.71384 0.52619,4.5 7,4.5 3.89571,0 6.15732,-0.48463 7,-1.5 z m 36.8,0.3 c 1.67751,-1.67751 1.67751,-30.92249 0,-32.6 -0.72022,-0.72022 -4.20174,-1.2 -8.70784,-1.2 -7.30937,0 -7.60808,0.0979 -11.3,3.70295 -4.94486,4.82853 -5.04861,8.2406 -0.39216,12.89705 3.1235,3.1235 3.89608,3.4 9.5,3.4 h 6.1 v 6.3 c 0,5.58489 1.07418,8.7 3,8.7 0.33,0 1.14,-0.54 1.8,-1.2 z m -15.14352,-21.62709 c -1.54775,-1.71025 -1.50558,-1.96605 0.65947,-4 1.51057,-1.41911 3.59149,-2.17291 5.9985,-2.17291 3.63314,0 3.68555,0.0569 3.68555,4 v 4 h -4.34501 c -2.93796,0 -4.88047,-0.59167 -5.99851,-1.82709 z m 159.34352,-1.67291 v -7.5 h -7.5 c -7.33333,0 -7.5,0.0556 -7.5,2.5 0,2.11111 -0.46667,2.5 -3,2.5 -2.7619,0 -3,-0.27778 -3,-3.5 v -3.5 h -7.5 -7.5 v 3 c 0,2.98156 -0.0349,3 -5.68555,3 -8.45348,0 -10.31445,-2.10633 -10.31445,-11.67431 0,-6.65902 0.18201,-7.32569 2,-7.32569 1.82222,0 2,-0.66667 2,-7.500009 v -7.5 h -7.5 -7.5 v 7.5 7.500009 h 3 3 v 8.70239 c 0,8.43353 0.0987,8.80428 3.19617,12 3.0409,3.13742 3.55097,3.29761 10.5,3.29761 6.63716,0 7.30383,0.18255 7.30383,2 0,1.82222 0.66667,2 7.5,2 6,0 7.5,-0.3 7.5,-1.5 0,-1 1,-1.5 3,-1.5 2.53333,0 3,0.38889 3,2.5 0,2.44444 0.16667,2.5 7.5,2.5 h 7.5 z m 25,0 c 0,-7.33333 -0.0556,-7.5 -2.5,-7.5 -2.41312,0 -2.5,-0.22845 -2.5,-6.57332 0,-5.71999 0.22718,-6.53028 1.75,-6.24169 1.22887,0.23288 1.84341,1.4625 2.06369,4.12915 0.48637,5.88781 2.5711,5.73204 9.04665,-0.67594 5.46045,-5.40347 5.91502,-5.6382 10.91866,-5.6382 h 5.221 v -7.500009 -7.5 h -7.5 -7.5 v 5.68555 c 0,4.440539 -0.47056,6.186439 -2.14885,7.972909 l -2.14886,2.28735 -3.38594,-2.9729 c -2.9459,-2.58654 -4.16118,-2.97291 -9.35115,-2.97291 h -5.9652 v 3.50001 c 0,2.83333 0.38095,3.5 2,3.5 1.79487,0 2,0.66667 2,6.5 0,6.26667 -0.0897,6.5 -2.5,6.5 -2.44444,0 -2.5,0.16667 -2.5,7.5 v 7.5 h 7.5 7.5 z m -237.95834,-6.05019 c 1.06278,-1.28057 0.99711,-1.83961 -0.37756,-3.21428 -1.55213,-1.55213 -1.77607,-1.55213 -3.32819,0 -1.37467,1.37467 -1.44034,1.93371 -0.37756,3.21428 0.7076,0.85261 1.62634,1.55019 2.04165,1.55019 0.41531,0 1.33406,-0.69758 2.04166,-1.55019 z m 27,0 c 1.06278,-1.28057 0.99711,-1.83961 -0.37756,-3.21428 -1.55213,-1.55213 -1.77607,-1.55213 -3.32819,0 -1.37467,1.37467 -1.44034,1.93371 -0.37756,3.21428 0.7076,0.85261 1.62634,1.55019 2.04165,1.55019 0.41531,0 1.33406,-0.69758 2.04166,-1.55019 z M 716.96721,83.979841 c 0,-2.44444 -0.45238,-3.5 -1.5,-3.5 -1.21304,0 -1.5,-1.59032 -1.5,-8.3129 0,-7.9123 0.14311,-8.45002 2.96963,-11.158 2.91818,-2.79579 2.97449,-3.04594 3.25,-14.43709 l 0.28037,-11.59201 10.17178,-0.28412 c 9.58509,-0.26773 10.21029,-0.16281 10.83929,1.819 0.8082,2.5464 6.12115,5.95624 9.28859,5.96139 5.71658,0.009 11.20034,-5.61936 11.20034,-11.49627 0,-5.8769 -5.48376,-11.50555 -11.20034,-11.49626 -3.50313,0.006 -8.30795,3.39495 -9.75067,6.87799 l -1.29163,3.11827 H 729.5684 c -14.49994,0 -14.60119,0.0988 -14.60119,14.24226 0,10.04994 -0.21079,11.35322 -2.17431,13.44329 -1.79022,1.9056 -3.20345,2.31445 -8,2.31445 h -5.82569 v 7.5 7.5 h 5 c 4.88889,0 5,0.0667 5,3 0,2.33334 -0.44444,3 -2,3 -1.61905,0 -2,0.66667 -2,3.5 v 3.5 h 6 6 z m 25.93888,-0.75 c 3.98315,-4.22037 4.01129,-4.3055 4.03612,-12.21214 l 0.025,-7.96215 4.20821,-4.28785 c 5.32953,-5.4304 8.5699,-5.71224 11.12504,-0.96763 4.53082,8.41323 15.23736,8.75527 20.03121,0.63994 3.1434,-5.32136 1.22399,-11.99992 -4.40429,-15.32462 -5.3586,-3.16541 -12.00107,-1.22205 -15.38116,4.5 -1.4017,2.37288 -2.36065,2.86445 -5.58793,2.86445 -3.34658,0 -4.60749,0.71165 -8.94346,5.04762 l -5.04762,5.04762 v 7.63793 c 0,9.99521 -1.79153,12.26683 -9.67431,12.26683 h -5.32569 v 3.5 3.5 h 5.46388 c 5.13223,0 5.70735,-0.25796 9.475,-4.25 z m 23.06112,-3.25 c 0,-2.19047 0.43333,-2.5 3.5,-2.5 3.06667,0 3.5,0.30953 3.5,2.5 0,2.44445 0.16667,2.5 7.5,2.5 7.33333,0 7.5,-0.0556 7.5,-2.5 0,-2.25 0.4,-2.5 4,-2.5 3.6,0 4,0.25 4,2.5 0,2.44445 0.16667,2.5 7.5,2.5 h 7.5 v -7.5 -7.5 h -7.5 c -7.33333,0 -7.5,0.0556 -7.5,2.5 0,2.25 -0.4,2.5 -4,2.5 -3.6,0 -4,-0.25 -4,-2.5 0,-2.44444 -0.16667,-2.5 -7.5,-2.5 -7.33333,0 -7.5,0.0556 -7.5,2.5 0,2.19048 -0.43333,2.5 -3.5,2.5 -3.06667,0 -3.5,-0.30952 -3.5,-2.5 0,-2.44444 -0.16667,-2.5 -7.5,-2.5 h -7.5 v 7.5 7.5 h 7.5 c 7.33333,0 7.5,-0.0556 7.5,-2.5 z m -267.5,-18 v -7.5 h -4.12755 c -5.12366,0 -6.09298,1.18153 -6.15297,7.5 -0.0593,6.25081 0.96549,7.5 6.15297,7.5 h 4.12755 z m -7.22185,4.37815 c -1.69011,-1.69011 -0.37619,-3.87815 2.32884,-3.87815 1.88588,0 2.39301,0.52981 2.39301,2.5 0,2.6939 -2.63658,3.46343 -4.72185,1.37815 z m -0.6028,-6.53614 c -1.02716,-1.02715 1.36049,-3.34201 3.4471,-3.34201 1.21089,0 1.87755,0.71015 1.87755,2 0,1.42858 -0.66666,2 -2.33333,2 -1.28333,0 -2.62943,-0.29609 -2.99132,-0.65799 z m 23.32465,2.15799 v -7.5 h -5 c -2.75,0 -5,0.45 -5,1 0,0.55 1.8,1 4,1 3.33334,0 4,0.33334 4,2 0,1.55556 -0.66666,2 -3,2 -1.65,0 -3,0.45 -3,1 0,0.55 1.35,1 3,1 2.76191,0 3,0.27778 3,3.5 0,1.925 0.45,3.5 1,3.5 0.57778,0 1,-3.16666 1,-7.5 z m 9,5 c 0,-2.19047 0.43334,-2.5 3.5,-2.5 4.05773,0 4.22099,-0.66642 1.47968,-6.03983 -1.53339,-3.00569 -2.61798,-3.96017 -4.5,-3.96017 -2.2175,0 -2.47968,0.41412 -2.47968,3.91667 0,2.15556 -0.56205,4.17896 -1.25,4.5 -1,0.46667 -1,0.7 0,1.16667 0.6875,0.32083 1.25,1.67083 1.25,3 0,1.32916 0.45,2.41666 1,2.41666 0.55,0 1,-1.125 1,-2.5 z m 0,-7.5 c 0,-3.67009 1.28058,-3.87437 2.83949,-0.45294 1.52447,3.34585 1.49843,3.45294 -0.83949,3.45294 -1.55555,0 -2,-0.66666 -2,-3 z m 23,9.20821 c 0,-0.43548 -1.98862,-2.74348 -4.41916,-5.12887 -4.22974,-4.15117 -5.04055,-7.07934 -1.96028,-7.07934 0.77362,0 2.28001,0.54547 3.34753,1.21215 2.4014,1.49969 3.76593,0.37721 2.05197,-1.68798 -1.72381,-2.07706 -8.61009,-2.03491 -9.41307,0.0576 -1.16363,3.03238 -0.58571,4.84495 2.58918,8.12061 l 3.19617,3.2976 h -3.19617 c -1.75789,0 -3.19617,0.45 -3.19617,1 0,0.55 2.475,1 5.5,1 3.025,0 5.5,-0.3563 5.5,-0.79179 z m 13.96482,-1.14246 c 1.58101,-2.95415 1.23734,-9.18488 -0.61981,-11.237 -2.30627,-2.5484 -5.00296,-2.28042 -6.94966,0.69062 -1.79069,2.73295 -1.43575,8.5221 0.6787,11.06986 1.69113,2.03769 5.68234,1.73448 6.89077,-0.52348 z m -5.30698,-2.14386 c -1.99228,-2.84438 -2.06165,-3.98738 -0.38146,-6.28518 1.82288,-2.49293 4.72362,-1.09332 4.72362,2.27915 0,1.48604 -0.60397,3.52787 -1.34216,4.5374 -1.28153,1.75259 -1.41707,1.72859 -3,-0.53137 z m 18.34216,3.07811 c 0,-0.55 -0.675,-1 -1.5,-1 -1.11111,0 -1.5,-1.16666 -1.5,-4.5 0,-3.33333 0.38889,-4.5 1.5,-4.5 2.11747,0 1.86331,-1.73519 -0.43426,-2.96481 -1.06384,-0.56935 -2.18884,-1.03519 -2.5,-1.03519 -0.31116,0 -0.56574,2.925 -0.56574,6.5 0,3.66667 -0.4359,6.5 -1,6.5 -0.55,0 -1,0.45 -1,1 0,0.55 1.575,1 3.5,1 1.925,0 3.5,-0.45 3.5,-1 z m 17,-1.5 c 0,-1.375 -0.45,-2.5 -1,-2.5 -0.55,0 -1,0.675 -1,1.5 0,2.3688 -4.73892,1.89795 -5.51523,-0.54798 -0.88213,-2.77936 1.15261,-4.95202 4.63767,-4.95202 2.53062,0 2.87756,-0.3617 2.87756,-3 0,-2.93333 -0.11111,-3 -5,-3 -2.75,0 -5,0.45 -5,1 0,0.55 1.8,1 4,1 4.72704,0 5.40168,1.73381 0.85085,2.18665 -3.9985,0.39787 -5.31663,2.51701 -4.44745,7.15011 0.66909,3.56659 0.80476,3.66324 5.14191,3.66324 4.085,0 4.45469,-0.20747 4.45469,-2.5 z m 12,1.5 c 0,-0.55 -0.45,-1 -1,-1 -1.48287,0 -1.24648,-8.75037 0.25,-9.25404 0.97451,-0.32799 0.94752,-0.78714 -0.12244,-2.08333 -2.41324,-2.92347 -3.12756,-1.81862 -3.12756,4.83737 0,5.11112 -0.32051,6.5 -1.5,6.5 -0.825,0 -1.5,0.45 -1.5,1 0,0.55 1.575,1 3.5,1 1.925,0 3.5,-0.45 3.5,-1 z m 65,-12.5 c 0,-1.925 0.45,-3.5 1,-3.5 0.57778,0 1,-3.16666 1,-7.5 v -7.5 h -7.5 -7.5 v 7.5 c 0,4.33334 0.42222,7.5 1,7.5 0.55,0 1,1.575 1,3.5 v 3.5 h 5.5 5.5 z m 27,-5.5 c 0,-1.33333 0.66667,-2 2,-2 1.33333,0 2,0.66667 2,2 0,1.80953 0.66667,2 7,2 h 7 v -7.5 -7.5 h -7 c -6.33333,0 -7,0.19048 -7,2 0,1.33334 -0.66667,2 -2,2 -1.33333,0 -2,-0.66666 -2,-2 0,-1.82222 -0.66667,-2 -7.5,-2 h -7.5 v 7.5 7.5 h 7.5 c 6.83333,0 7.5,-0.17777 7.5,-2 z m -151,-6 c 0,-0.55 -2.025,-1 -4.5,-1 -2.475,0 -4.5,0.45 -4.5,1 0,0.55 2.025,1 4.5,1 2.475,0 4.5,-0.45 4.5,-1 z m -29.2,-4.2 c 2.89684,-2.89683 0.33282,-11.8 -3.39828,-11.8 -1.99608,0 -4.40172,4.11123 -4.40172,7.52251 0,3.5908 1.55,5.47749 4.5,5.47749 1.155,0 2.64,-0.54 3.3,-1.2 z m -4.81434,-2.31728 c -1.72385,-2.0771 0.24368,-6.71568 2.48392,-5.85602 1.90016,0.72916 2.00447,4.73499 0.1631,6.26319 -1.04117,0.8641 -1.67257,0.76698 -2.64702,-0.40717 z m 19.40735,1.9355 c 1.82751,-4.76242 -0.13776,-11.41822 -3.37149,-11.41822 -3.97081,0 -6.82095,8.80058 -3.82152,11.8 1.73846,1.73846 6.47589,1.48701 7.19301,-0.38178 z m -5.35318,-1.87023 c -1.36282,-1.64209 -0.66267,-4.78618 1.4577,-6.54593 1.15025,-0.95462 1.54006,-0.70049 2.05157,1.33752 0.68643,2.73498 -0.19411,6.66042 -1.49404,6.66042 -0.44559,0 -1.35245,-0.6534 -2.01523,-1.45201 z m 30.675,-0.45279 2.28517,-3.39096 v 3.64788 c 0,2.00634 0.45,3.64788 1,3.64788 0.5654,0 1,-2.86111 1,-6.58333 0,-7.68307 -1.39964,-8.19103 -4.42119,-1.60454 -1.05665,2.30333 -2.29415,4.18787 -2.75,4.18787 -0.45584,0 -0.82881,-2.025 -0.82881,-4.5 0,-2.475 -0.45,-4.5 -1,-4.5 -0.56525,0 -1,2.85778 -1,6.57333 0,5.67067 0.23548,6.52797 1.71483,6.24308 0.94316,-0.18164 2.74316,-1.85618 4,-3.72121 z m 14.28517,2.9048 c 0,-0.55 -0.45,-1 -1,-1 -0.55,0 -1,-2.025 -1,-4.5 0,-2.475 0.45,-4.5 1,-4.5 0.55,0 1,-0.45 1,-1 0,-0.55 -1.35,-1 -3,-1 -1.65,0 -3,0.45 -3,1 0,0.55 0.45,1 1,1 0.55,0 1,2.025 1,4.5 0,2.475 -0.45,4.5 -1,4.5 -0.55,0 -1,0.45 -1,1 0,0.55 1.35,1 3,1 1.65,0 3,-0.45 3,-1 z m 15.79772,-5.25 -0.29772,-6.25 -3.39514,-0.32418 c -2.04185,-0.19496 -3.72977,0.20363 -4.23468,1 -1.24364,1.96153 -1.05126,2.82418 0.62982,2.82418 0.825,0 1.5,-0.45 1.5,-1 0,-0.55 0.9,-1 2,-1 1.7037,0 2,0.66667 2,4.5 0,3.66667 -0.33333,4.5 -1.8,4.5 -0.99,0 -2.3325,-0.5325 -2.98333,-1.18333 -1.5044,-1.5044 -2.45686,-0.60617 -1.63322,1.54021 0.43728,1.13953 1.83831,1.64312 4.57126,1.64312 h 3.94072 z m 13.70228,-0.25 v -6.5 l -3,0.008 c -3.31011,0.009 -5.5,3.19054 -5.5,7.99157 0,3.42699 1.71505,5.00063 5.45,5.00063 h 3.05 z m -5.49925,3.00091 c -0.99182,-1.19507 -0.99205,-2.1077 -10e-4,-4.5 1.78418,-4.30768 3.00025,-3.70009 3.00025,1.49909 0,4.67807 -0.87814,5.55669 -2.99925,3.00091 z"
       id="path1" />
  </g>
</svg>
