<?xml version="1.0" encoding="UTF-8" standalone="no"?>
<!-- Created with Inkscape (http://www.inkscape.org/) -->

<svg
   version="1.1"
   id="svg1"
   width="394.99997"
   height="690"
   viewBox="0 0 394.99997 690"
   xmlns="http://www.w3.org/2000/svg"
   xmlns:svg="http://www.w3.org/2000/svg">
  <defs
     id="defs1" />
  <g
     id="g1"
     transform="translate(-448.96866,2.2906561)">
    <path
       style="fill:#000000"
       d="M 448.96865,342.70935 V -2.290656 h 197.5 197.5 v 345.000006 345 h -197.5 -197.5 z m 386,2 V 7.7093442 H 670.84587 506.72309 L 483.84587,29.828052 460.96865,51.94676 v 314.88129 314.8813 h 187 187 z m -373,21.62427 V 51.957888 l 22.3828,-21.624272 22.3828,-21.6242718 h 163.6172 163.6172 v 336.0000058 336 h -186 -186 z m 364,215.79239 c 0,-72.04444 -0.25583,-90.48953 -1.25,-90.125 -0.6875,0.25209 -1.1,1.07709 -0.91667,1.83334 0.18333,0.75625 -2.6e-4,1.0414 -0.40799,0.63367 -1.07,-1.07 -3.52615,1.25293 -2.75401,2.60463 0.35713,0.62518 0.27305,0.79508 -0.18682,0.37755 -1.14147,-1.03636 -5.5802,3.27379 -4.79337,4.65451 0.34623,0.60755 0.26126,0.77104 -0.18881,0.36331 -1.11957,-1.01424 -3.6378,1.21312 -2.83681,2.50914 0.35392,0.57266 0.17495,0.75163 -0.39771,0.39771 -0.57266,-0.35393 -1.59729,0.0265 -2.27695,0.84549 -0.92495,1.11449 -0.9386,1.48899 -0.0543,1.48899 0.6498,0 0.90383,0.44921 0.56451,0.99824 -0.65743,1.06375 1.84874,5.31859 2.65679,4.51055 0.26317,-0.26317 0.47849,3.33287 0.47849,7.99121 0,4.65833 -0.21532,8.25437 -0.47849,7.99121 -0.90346,-0.90346 -3.2738,3.51219 -2.55548,4.76054 0.39504,0.68654 0.35941,0.92404 -0.0792,0.52779 -0.4386,-0.39625 -2.12613,0.22565 -3.75007,1.382 -1.62395,1.15635 -4.82474,2.65895 -7.11288,3.3391 -4.99686,1.48532 -10.18511,0.25336 -16.22909,-3.85363 -4.75282,-3.22962 -11.24598,-3.6141 -13.77836,-0.81586 -0.91144,1.00713 -1.43119,2.13213 -1.15499,2.5 0.2762,0.36786 0.19807,0.43973 -0.17363,0.1597 -1.07926,-0.8131 -5.32815,3.68475 -4.63304,4.90451 0.34623,0.60755 0.26126,0.77104 -0.18881,0.36331 -1.12747,-1.02138 -3.63499,1.21767 -2.82728,2.52457 0.40778,0.65981 0.0236,0.81511 -1.02286,0.41353 -1.63632,-0.62791 -6.65356,1.04209 -6.65081,2.21374 7.6e-4,0.32422 -7.25778,0.45495 -16.1301,0.29052 l -16.13148,-0.29897 2.63039,3.12604 c 1.44671,1.71932 2.90326,4.21325 3.23677,5.54206 0.33351,1.32881 0.89588,2.23679 1.24971,2.01774 0.35383,-0.21906 0.51853,14.28188 0.366,32.22431 -0.25963,30.54131 -0.15806,32.78417 1.5921,35.15519 3.26279,4.42027 6.44185,17.92727 3.84112,16.31993 -0.57068,-0.3527 -0.73832,0.28945 -0.40668,1.55767 0.31035,1.18677 0.15624,1.90558 -0.34247,1.59736 -0.49871,-0.30822 -0.90674,0.10366 -0.90674,0.91529 0,0.81162 0.3375,1.66443 0.75,1.89512 0.4125,0.23069 0.26964,0.31383 -0.31747,0.18476 -0.5871,-0.12907 -2.5628,1.29469 -4.39044,3.1639 -1.82764,1.86921 -4.04728,3.40546 -4.93254,3.41388 -1.23302,0.0117 -1.30484,0.20859 -0.307,0.8415 0.74192,0.47058 -2.34973,0.8066 -7.18293,0.78068 -4.66702,-0.025 -8.29573,-0.35254 -8.0638,-0.72781 0.42681,-0.6906 -3.36186,-2.23789 -4.88015,-1.99306 -0.45339,0.0731 -0.61312,-0.21572 -0.35496,-0.64185 0.64062,-1.05746 -1.93526,-3.32689 -2.79749,-2.46466 -0.37944,0.37944 -0.60372,0.23989 -0.49841,-0.31011 0.30654,-1.60086 -1.18667,-5.51801 -1.92865,-5.05944 -0.88023,0.54402 -0.58866,-11.1513 0.36365,-14.58635 l 0.7335,-2.64579 -18.09666,-0.73189 -18.09665,-0.7319 v -3.87232 c 0,-2.77539 0.42491,-3.87231 1.5,-3.87231 1.2,0 1.5,-1.5 1.5,-7.5 v -7.5 h -3 c -2.81966,0 -3,-0.23406 -3,-3.89346 v -3.89346 l 24.05268,-0.73531 24.05269,-0.7353 -0.30269,-3.62124 -0.30268,-3.62123 -11.98376,-0.28376 c -6.59107,-0.15607 -12.41857,-0.71857 -12.95,-1.25 -0.53143,-0.53143 -5.9702,-0.96624 -12.08614,-0.96624 -11.02168,0 -11.15018,0.0273 -14.55,3.09097 -1.88656,1.70004 -3.30645,3.53349 -3.15533,4.07433 0.15113,0.54085 -0.12623,0.73552 -0.61635,0.43261 -0.49012,-0.30291 -1.69602,0.33864 -2.67976,1.42567 -1.75955,1.94427 -1.7048,1.97642 3.36635,1.97642 h 5.15499 v 4 c 0,3.77777 -0.16667,4 -3,4 h -3 v 7.5 c 0,6.83333 0.17777,7.5 2,7.5 1.66666,0 2,0.66666 2,4 v 4 l -5.75,0.11848 c -3.1625,0.0652 -6.35766,0.0351 -7.10036,-0.0669 -0.74269,-0.10195 -1.12466,0.18223 -0.84881,0.63152 0.27585,0.44928 -2.11234,0.95282 -5.30709,1.11897 -6.53972,0.34011 -11.64372,-1.36116 -15.42357,-5.14101 -1.34693,-1.34693 -2.62623,-2.27169 -2.8429,-2.05502 -0.21667,0.21666 -0.43552,-0.16856 -0.48634,-0.85606 -0.0508,-0.6875 -0.76009,-3.6125 -1.57616,-6.5 -0.81606,-2.8875 -1.07448,-5.25 -0.57426,-5.25 0.50022,0 0.91245,-1.2375 0.91608,-2.75 0.007,-3.08052 2.67459,-7.63796 5.71734,-9.76919 1.10644,-0.77499 2.29657,-2.83334 2.64473,-4.57412 0.41408,-2.07043 2.62135,-5.05543 6.38217,-8.63094 3.16204,-3.00624 5.63667,-5.8731 5.49917,-6.37082 -0.1375,-0.49771 0.3125,-0.79243 1,-0.65493 0.6875,0.1375 1.1,-0.425 0.91666,-1.25 -0.18333,-0.825 2.7e-4,-1.16641 0.40799,-0.75868 0.97449,0.97449 3.56926,-1.19945 2.84001,-2.37941 -0.30983,-0.5013 0.0326,-0.78782 0.76101,-0.63669 0.72838,0.15113 1.32433,-0.40022 1.32433,-1.22522 0,-0.825 -0.675,-1.35 -1.5,-1.16667 -0.825,0.18333 -1.16152,-0.005 -0.74782,-0.41885 0.9211,-0.9211 -2.08616,-4.41448 -3.80018,-4.41448 -0.68092,0 -1.50602,-0.69838 -1.83356,-1.55194 -0.37124,-0.96744 -0.18565,-1.29861 0.49278,-0.87932 0.77543,0.47924 0.77214,0.0818 -0.0115,-1.38232 -0.71879,-1.34309 -1.09976,-11.06107 -1.09976,-28.05329 0,-28.79399 0.1744,-28.08845 -6.5,-26.2956 l -3,0.80584 -0.26276,35.79695 -0.26276,35.79695 -2.01333,-2.55953 c -1.10733,-1.40774 -2.90159,-2.84145 -3.98724,-3.18602 -1.52439,-0.48383 -1.97391,-1.52208 -1.97391,-4.55911 v -3.93261 h -6.5 c -5.15974,0 -6.5,0.31458 -6.5,1.52568 0,1.36757 -0.30575,1.36757 -2.95034,0 -3.72463,-1.92608 -6.37026,-1.92838 -10.0824,-0.009 -3.16015,1.63418 -5.96726,6.0952 -5.96726,9.48308 0,5.39539 5.7139,11.00518 11.20034,10.99626 1.26481,-0.002 3.82013,-0.9307 5.6785,-2.06366 l 3.37884,-2.05991 2.62116,2.44147 c 3.85452,3.59028 7.02148,4.95577 10.07666,4.34474 1.91368,-0.38274 2.71116,-0.13111 2.71116,0.85544 0,0.76872 -0.31486,1.20309 -0.69968,0.96525 -0.38483,-0.23784 -1.49497,0.44635 -2.46698,1.52041 -0.97202,1.07406 -2.15359,1.71409 -2.62573,1.42229 -0.47214,-0.29179 -1.6495,-0.0222 -2.61635,0.59909 -1.60078,1.02864 -1.60435,1.08208 -0.0399,0.5978 0.94489,-0.29251 1.98394,-0.10149 2.30902,0.42449 0.33895,0.54844 -1.14019,0.95633 -3.46798,0.95633 -2.23246,0 -4.05901,-0.43588 -4.05901,-0.96862 0,-0.53274 0.7875,-0.68604 1.75,-0.34067 2.27661,0.81691 1.39432,-0.0841 -1.62068,-1.65503 -1.67384,-0.87214 -2.16141,-0.89662 -1.65875,-0.0833 0.47006,0.76058 -0.0835,1.08137 -1.62932,0.94425 -4.27104,-0.37886 -6.96737,0.0903 -6.34125,1.10337 0.33991,0.55 -0.11009,1 -1,1 -0.88992,0 -1.37378,-0.39521 -1.07525,-0.87825 0.67426,-1.09098 -5.20631,-2.35514 -6.77746,-1.45697 -0.63101,0.36073 -0.81266,0.28658 -0.40366,-0.16476 1.05293,-1.16194 -2.98666,-3.76577 -4.49539,-2.89763 -0.68653,0.39504 -0.93143,0.3668 -0.54421,-0.0628 0.38722,-0.42956 -0.40028,-2.40617 -1.75,-4.39246 -1.34972,-1.98629 -2.45403,-4.20853 -2.45403,-4.93831 0,-0.72979 -0.3375,-1.11865 -0.75,-0.86413 -0.4125,0.25451 -0.75,-1.92615 -0.75,-4.84592 0,-2.91977 0.40313,-5.05933 0.89584,-4.75458 0.50528,0.31251 0.60103,-0.70988 0.21962,-2.34507 -0.3775,-1.61847 -0.31098,-2.35597 0.15059,-1.66953 0.58258,0.86642 1.39774,0.27566 2.75969,-2 1.06309,-1.77629 1.81855,-3.60057 1.6788,-4.05395 -0.13975,-0.45338 0.20626,-0.53981 0.76893,-0.19207 1.27123,0.78567 5.28091,-1.89589 4.30065,-2.87615 -0.39224,-0.39224 -0.0519,-0.46654 0.75636,-0.16511 0.80823,0.30142 2.81952,0.13888 4.46952,-0.3612 2.26154,-0.68543 2.50769,-0.95954 1,-1.11361 -1.1,-0.11241 -2.45,-0.14457 -3,-0.0715 -0.55,0.0731 -0.18145,-0.50843 0.81901,-1.29229 1.72973,-1.35524 1.70519,-1.45834 -0.5,-2.10066 -1.27546,-0.37151 -3.3809,-1.8742 -4.67876,-3.3393 -1.29786,-1.4651 -2.06199,-2.10647 -1.69806,-1.42527 0.43901,0.82175 0.14135,1.03888 -0.88451,0.64522 -0.85041,-0.32633 -1.29722,-0.99618 -0.99292,-1.48855 0.3043,-0.49237 -0.31819,-0.89521 -1.3833,-0.89521 -1.98624,0 -4.88453,2.63026 -3.93956,3.57523 0.94019,0.94019 -4.69814,6.0186 -6.15595,5.54463 -0.96557,-0.31393 -1.15443,-0.0397 -0.59549,0.86471 0.51986,0.84115 0.4302,1.08443 -0.24571,0.66669 -1.23162,-0.76118 -4.42915,0.24294 -3.83252,1.20352 0.22041,0.35487 -6.09615,0.49929 -14.03681,0.32093 l -14.43756,-0.32428 0.33954,4.51493 c 0.18674,2.4832 -0.0243,4.29007 -0.46893,4.01526 -0.44466,-0.27481 -0.80847,0.22846 -0.80847,1.11838 0,0.9684 0.46353,1.33156 1.15451,0.90451 0.74414,-0.45991 0.8818,-0.27227 0.38727,0.52788 -1.01245,1.63819 -7.54178,-4.57638 -7.54178,-7.17822 0,-3.16368 -2.89831,-7.65023 -5.96727,-9.23725 -4.15957,-2.15099 -7.205,-1.88924 -11.43759,0.98308 -2.69257,1.82722 -5.0056,2.5 -8.59514,2.5 -3.58954,0 -5.90257,-0.67278 -8.59514,-2.5 -4.23259,-2.87232 -7.27802,-3.13407 -11.43759,-0.98308 -5.07962,2.62678 -7.17841,8.7308 -4.79819,13.95482 1.03738,2.27681 0.84733,2.90169 -1.68709,5.54706 -1.57089,1.63966 -3.33448,2.94567 -3.91908,2.90225 -0.60987,-0.0453 -0.55407,-0.28595 0.13091,-0.56461 0.65661,-0.26711 0.94695,-1.129 0.64522,-1.91531 -0.30174,-0.7863 -0.90065,-1.21207 -1.33092,-0.94615 -0.43027,0.26592 -0.76223,-0.0742 -0.73768,-0.75575 0.10667,-2.96188 -0.32567,-4.82308 -1.02044,-4.39298 -0.91323,0.56533 -0.72803,-6.76376 0.20923,-8.28029 0.36756,-0.59472 -0.0354,-1.785 -0.89547,-2.64506 -1.41835,-1.41835 -1.56376,3.9758 -1.56376,58.00767 v 59.57143 h 177.5 177.5 z m -40.23544,52.43783 c -0.64299,-0.39739 -1.64056,-0.4611 -2.21682,-0.14159 -0.57626,0.31952 0.66537,-1.21787 2.75917,-3.41643 2.93114,-3.07778 4.37075,-3.88959 6.25784,-3.52885 1.348,0.25769 3.81501,-0.0965 5.48223,-0.78708 2.72671,-1.12945 3.27549,-1.02622 5.46134,1.02728 2.80737,2.63738 2.46011,3.66374 -1.87837,5.55179 -1.72148,0.74915 -2.44258,1.37972 -1.60246,1.40124 0.84012,0.0215 2.53921,-0.66949 3.77576,-1.5356 1.23655,-0.86611 2.79917,-1.35164 3.47251,-1.07895 0.67983,0.27532 0.41978,0.53091 -0.58478,0.57475 -0.99496,0.0434 -1.57726,0.45395 -1.29399,0.91228 0.63303,1.02427 0.13616,1.09528 -10.18018,1.45492 -4.55575,0.15882 -8.80927,-0.0364 -9.45225,-0.43376 z m 2.73544,-0.85449 c -2.74909,-1.18133 -4.32797,-1.18133 -2.5,0 0.825,0.53315 2.175,0.94463 3,0.9144 0.98905,-0.0362 0.81874,-0.34772 -0.5,-0.9144 z m -27.85692,-0.23151 c 0.26122,-0.42267 -0.42505,-0.76849 -1.52505,-0.76849 -1.1,0 -2.32538,-0.52648 -2.72306,-1.16994 -0.50561,-0.81809 -0.14743,-0.9474 1.19098,-0.42997 1.05273,0.40698 3.26405,0.94298 4.91405,1.19112 2.16795,0.32602 1.84616,0.0659 -1.16026,-0.93804 -8.96903,-2.99491 -14.25925,-9.85944 -14.64895,-19.00836 -0.10494,-2.46352 -0.0157,-4.30381 0.19831,-4.08953 0.214,0.21427 1.27981,-1.41071 2.36846,-3.61107 1.08865,-2.20035 2.83866,-4.46053 3.88891,-5.0226 1.05025,-0.56208 1.64857,-1.44423 1.3296,-1.96033 -0.31897,-0.51611 0.11842,-0.67038 0.97199,-0.34284 1.34992,0.51801 1.55194,-0.98045 1.55194,-11.51145 v -12.10699 h 16.5 16.5 v 2.5 c 0,2.47059 0.1,2.5 8.5,2.5 h 8.5 v 11.69528 c 0,11.28449 -0.0929,11.79229 -2.64596,14.45707 -2.15551,2.24986 -3.00579,2.56921 -4.58719,1.72287 -1.7926,-0.95937 -1.88717,-1.76002 -1.23512,-10.45707 l 0.7061,-9.41815 h -5.61891 -5.61892 v 5 c 0,3.77777 0.36666,5 1.5,5 1.10773,0 1.5,1.15918 1.5,4.43261 0,3.60363 -0.38695,4.55542 -2.069,5.08929 -4.41602,1.40159 -7.35102,9.95626 -4.95309,14.43683 0.79919,1.4933 0.1636,2.57788 -3.47765,5.93426 -4.60991,4.24926 -6.76976,5.41348 -4.37271,2.35701 1.23834,-1.579 1.20454,-1.61847 -0.34586,-0.40386 -0.94507,0.74038 -3.64507,1.94778 -6,2.6831 -2.35493,0.73533 -3.49419,1.36707 -2.53169,1.40386 3.84546,0.147 1.45557,1.56813 -2.66612,1.58539 -2.42867,0.0102 -4.20203,-0.32733 -3.9408,-0.75 z m 9.38965,-10.28542 c 3.7417,-1.93491 6.15281,-6.59026 5.85228,-11.29952 -0.12929,-2.02596 -0.15631,-5.82105 -0.0601,-8.43355 0.16848,-4.57222 0.28732,-4.75 3.17504,-4.75 1.65,0 3,-0.45 3,-1 0,-0.55 0.9,-1 2,-1 1.73333,0 2,-0.66667 2,-5 0,-4.33334 -0.26667,-5 -2,-5 -1.55556,0 -2,-0.66667 -2,-3 v -3 h -9 -9 v 9 9 h 3.5 c 3.23123,0 3.5,0.23307 3.5,3.03518 0,2.69092 -0.2194,2.91777 -1.93426,2 -6.11692,-3.27368 -15.06574,2.64527 -15.06574,9.96482 0,3.28705 2.75967,7.80526 5.76257,9.43461 3.53914,1.92032 6.62226,1.93486 10.27016,0.0485 z m 4.96727,-35.5997 c 0,-0.62456 -0.88196,-0.886 -2.00138,-0.59326 -1.10076,0.28785 -1.74921,0.11534 -1.44099,-0.38337 0.92307,-1.49355 4.44237,-1.02356 4.44237,0.59326 0,0.825 -0.225,1.5 -0.5,1.5 -0.275,0 -0.5,-0.50249 -0.5,-1.11663 z m -5,44.73326 c 0,-0.21085 0.9,-0.61873 2,-0.90638 1.1,-0.28766 2,-0.11514 2,0.38337 0,0.49851 -0.9,0.90638 -2,0.90638 -1.1,0 -2,-0.17252 -2,-0.38337 z m -17.68817,-3.56541 c -0.91773,-1.07182 -2.15082,-1.67467 -2.74021,-1.33967 -0.58939,0.335 -0.73803,0.24086 -0.3303,-0.20922 0.40773,-0.45007 0.2311,-1.43309 -0.3925,-2.18449 -2.53197,-3.05084 -0.0973,-1.72739 3.40118,1.84882 2.0625,2.10834 3.29559,3.83334 2.74021,3.83334 -0.55538,0 -1.76065,-0.87695 -2.67838,-1.94878 z m 53.79188,-2.44422 c -2.77929,-2.8675 -3.11942,-3.70913 -2.19617,-5.43426 1.34947,-2.5215 1.40984,-6.7112 0.13112,-9.1005 -0.74147,-1.38545 -0.3935,-2.32971 1.52151,-4.12877 2.38612,-2.24165 5.4722,-3.46691 5.29039,-2.10044 -0.25299,1.90151 0.25582,3.20925 1.05618,2.7146 0.49871,-0.30821 0.65282,0.4106 0.34247,1.59736 -0.31034,1.18676 -0.15588,1.9057 0.34326,1.59764 0.49974,-0.30843 0.90753,1.82529 0.90753,4.74856 0,2.92415 -0.40764,5.05655 -0.90753,4.74737 -0.50061,-0.30963 -0.64309,0.4499 -0.31775,1.69398 0.32437,1.24041 0.32312,1.98864 -0.003,1.66273 -0.32591,-0.3259 -1.25524,0.35356 -2.06518,1.50992 -1.2459,1.77877 -1.25971,2.23731 -0.0897,2.97832 0.76061,0.48172 0.9087,0.88275 0.32909,0.89117 -0.57961,0.008 -2.53371,-1.51153 -4.34245,-3.37768 z m 4.70879,0.70988 c 0.72187,-0.28887 1.58437,-0.25334 1.91666,0.079 0.33229,0.33229 -0.25833,0.56864 -1.3125,0.52522 -1.16494,-0.048 -1.4019,-0.28494 -0.60416,-0.60417 z m -225.8125,-35.3759 c 0,-0.58246 0.45,-0.7809 1,-0.44098 0.55,0.33992 1,0.81647 1,1.05901 0,0.24254 -0.45,0.44099 -1,0.44099 -0.55,0 -1,-0.47656 -1,-1.05902 z m -5.78786,-5.97289 c -1.79091,-2.86771 -1.47307,-3.78564 0.38986,-1.12593 0.88109,1.25794 1.42656,2.46261 1.21214,2.67703 -0.21442,0.21442 -0.93532,-0.48358 -1.602,-1.5511 z m 34.03229,1.33492 c -0.91321,-0.34431 -0.7087,-1.16863 0.75,-3.02306 2.78882,-3.54542 2.53235,-4.27995 -1.49443,-4.27995 -1.925,0 -3.5,-0.45 -3.5,-1 0,-0.55 1.8,-1 4,-1 3.6,0 4,-0.25 4,-2.5 0,-1.375 0.47045,-2.5 1.04545,-2.5 1.71048,0 5.95346,4.76647 5.9682,6.70454 0.008,0.9875 0.28499,2.80796 0.61663,4.04546 0.35417,1.32156 0.15517,2.25 -0.48227,2.25 -0.59688,0 -0.83192,-0.7875 -0.5223,-1.75 0.46319,-1.43989 0.37916,-1.49014 -0.47418,-0.28354 -0.64096,0.90629 -0.68416,1.89176 -0.1131,2.57985 0.65569,0.79005 -0.44994,1.13033 -3.8072,1.17174 -2.60218,0.0321 -5.29624,-0.15467 -5.9868,-0.41504 z m -130.49081,-7.45528 c -0.63697,-0.39367 -1.58664,-0.45093 -2.11038,-0.12724 -0.52374,0.32369 -0.63042,0.0678 -0.23706,-0.56869 0.50026,-0.80944 1.27826,-0.85587 2.58877,-0.15451 1.03046,0.55149 2.46565,0.98509 3.18931,0.96356 0.72366,-0.0215 -0.19325,-0.69435 -2.03757,-1.49516 -1.84432,-0.80081 -3.66581,-1.26289 -4.04775,-1.02684 -0.38194,0.23605 -1.34795,-0.0254 -2.14669,-0.58097 -1.23392,-0.85828 -1.23682,-0.95195 -0.0193,-0.62302 0.78814,0.21292 2.58814,-0.88946 4,-2.44971 2.40151,-2.65392 2.77659,-2.75656 5.81703,-1.59176 2.59315,0.99344 3.90685,0.99344 6.5,0 3.04044,-1.1648 3.41552,-1.06216 5.81702,1.59176 1.41187,1.56025 3.21187,2.66263 4,2.44971 1.21755,-0.32893 1.21465,-0.23526 -0.0193,0.62302 -0.79874,0.55558 -1.76474,0.81702 -2.14668,0.58097 -0.38194,-0.23605 -2.20343,0.22603 -4.04775,1.02684 -1.84432,0.80081 -2.76123,1.47364 -2.03757,1.49516 0.72366,0.0215 2.15885,-0.41207 3.18931,-0.96356 1.25242,-0.67027 2.07903,-0.67027 2.49328,0 0.67866,1.0981 0.3401,1.14397 -10.29246,1.3944 -4.01177,0.0945 -7.81528,-0.1503 -8.45225,-0.54396 z m 29.96721,0.33702 c -0.94646,-0.18227 -1.72083,-0.76424 -1.72083,-1.29326 0,-0.59054 0.74671,-0.56224 1.93426,0.0733 1.06384,0.56935 2.52634,1.01757 3.25,0.99604 0.72366,-0.0215 -0.19325,-0.69435 -2.03757,-1.49516 -1.84432,-0.80081 -3.72573,-1.22586 -4.1809,-0.94455 -0.45518,0.28132 -1.15583,-0.0584 -1.55702,-0.75483 -0.40118,-0.69647 -0.39353,-0.96507 0.017,-0.59689 0.41053,0.36818 1.94518,-0.64398 3.41033,-2.24926 2.58102,-2.82786 2.78288,-2.87681 6.48759,-1.57301 4.29899,1.51295 10.09786,6.60684 7.65359,6.72313 -1.06908,0.0509 -0.98944,0.26322 0.28822,0.76852 1.73787,0.68731 -10.19015,0.99197 -13.54466,0.34595 z m 93.27917,-1.18475 c 0,-0.55 0.45,-1 1,-1 0.55,0 1,0.45 1,1 0,0.55 -0.45,1 -1,1 -0.55,0 -1,-0.45 -1,-1 z m -103.5,-7 -2.87418,-3 h 6.37418 6.37418 l -2.87418,3 c -1.5808,1.65 -3.1558,3 -3.5,3 -0.3442,0 -1.9192,-1.35 -3.5,-3 z m 252.5,-24.39301 c 0,-0.21616 0.675,-0.65204 1.5,-0.96862 0.825,-0.31658 1.5,-0.13973 1.5,0.39301 0,0.53274 -0.675,0.96862 -1.5,0.96862 -0.825,0 -1.5,-0.17686 -1.5,-0.39301 z m 56.73333,-15.73108 c 0.67833,-0.68342 1.48524,-0.99067 1.79313,-0.68279 0.30788,0.30789 -0.24712,0.86705 -1.23334,1.24258 -1.42519,0.54269 -1.54006,0.42782 -0.55979,-0.55979 z m -91.7006,115.60716 c 3.23222,-1.67145 5.96933,-6.11588 5.96353,-9.68341 -0.004,-2.65666 -3.48193,-8.79966 -4.98157,-8.79966 -0.66705,0 -1.01469,-12.06261 -1.01469,-35.20784 v -35.20784 l -3.70295,-3.79216 -3.70295,-3.79216 H 693.0426 673.52246 l -6.27691,-6.22111 -6.2769,-6.22112 v -18.27888 -18.27889 h 2.5 c 2.44444,0 2.5,-0.16667 2.5,-7.5 v -7.5 h -7.5 -7.5 v 7.5 c 0,7.33333 0.0556,7.5 2.5,7.5 h 2.5 l 0.10391,20.25 0.10392,20.25 7.34032,6.75 7.34033,6.75 h 19.36867 19.36866 l 2.68709,2.80472 2.6871,2.80471 v 32.4944 32.49439 l -3.56931,1.29068 c -3.86712,1.39837 -7.42083,6.14054 -7.42696,9.91076 -0.009,5.50176 5.37353,11.06589 10.79593,11.1603 1.26481,0.022 3.61969,-0.64258 5.23307,-1.47689 z m -81,-28 c 3.16015,-1.63418 5.96727,-6.0952 5.96727,-9.48307 0,-3.40609 -2.81336,-7.85212 -6.01693,-9.50876 -1.64069,-0.84843 -2.98307,-2.0855 -2.98307,-2.74903 0,-0.66354 4.37905,-5.60198 9.73123,-10.97432 l 9.73124,-9.76789 h 5.26876 5.26877 v -7.5 -7.5 h -5.70784 c -5.23344,0 -6.02302,-0.30777 -9.5,-3.70295 l -3.79216,-3.70295 0.0318,-35.04705 c 0.025,-27.55755 0.31569,-35.42103 1.36024,-36.79705 1.21485,-1.60037 3.97512,-1.75 32.28111,-1.75 h 30.95266 l 2.60825,-2.75 c 2.58478,-2.72526 2.60934,-2.89979 2.72845,-19.39489 l 0.1202,-16.64489 -2.67622,-2.10511 c -2.53717,-1.99574 -3.82303,-2.10511 -24.74919,-2.10511 h -22.07298 l -3.79216,-3.70295 c -4.60889,-4.50046 -4.8349,-6.29705 -0.79216,-6.29705 h 3 v -7.5 -7.5 h -7.5 -7.5 v 7.5 c 0,7.33333 0.0556,7.5 2.5,7.5 1.91444,0 2.5,0.51895 2.5,2.21565 0,1.29724 1.95334,4.19881 4.7124,7 l 4.71241,4.78435 h 21.95885 c 19.02962,0 22.2028,0.22077 23.7876,1.65498 1.60595,1.45337 1.82874,3.36252 1.82874,15.67126 0,11.63897 -0.28071,14.32645 -1.65499,15.84502 -1.53709,1.69846 -3.91547,1.82874 -33.38499,1.82874 h -31.73 l -1.61501,2.46481 c -1.41383,2.15777 -1.61501,7.1154 -1.61501,39.79706 v 37.33223 l 4,3.9059 c 3.73383,3.64599 4,4.28186 4,9.55598 v 5.65008 l -9.5,9.19039 c -6.87423,6.65018 -9.5,9.86228 -9.5,11.62129 0,1.68652 -0.91347,2.90327 -2.98308,3.9735 -3.20357,1.65664 -6.01692,6.10267 -6.01692,9.50876 0,3.28705 2.75967,7.80526 5.76257,9.43461 3.53914,1.92032 6.62226,1.93486 10.27016,0.0485 z m 67.96727,-8.48307 v -9 h -9 c -5.33334,0 -9,0.4074 -9,1 0,0.5641 -2.83334,1 -6.5,1 h -6.5 v 7.45431 7.45431 l 6.75,0.34983 c 3.7125,0.1924 10.6875,0.43796 15.5,0.54569 l 8.75,0.19586 z m -8.5,-3 c 0.33991,-0.55 0.81647,-1 1.05901,-1 0.24254,0 0.44099,0.45 0.44099,1 0,0.55 -0.47656,1 -1.05902,1 -0.58246,0 -0.7809,-0.45 -0.44098,-1 z m 8.5,-38.5 v -8.5 l -5.75,0.005 c -3.1625,0.003 -10.1375,0.29572 -15.5,0.65082 l -9.75,0.64565 v 7.30349 7.30349 l 6.75,0.34983 c 3.7125,0.1924 10.6875,0.43796 15.5,0.54569 l 8.75,0.19586 z m -6.43571,1.20687 c 0.37553,-0.98622 0.93469,-1.54122 1.24258,-1.23333 0.30789,0.30788 6.3e-4,1.11479 -0.68279,1.79312 -0.98761,0.98027 -1.10248,0.86541 -0.55979,-0.55979 z m -2.06429,-4.70687 c -1.75921,-0.75596 -1.66181,-0.86789 0.80901,-0.92972 1.63222,-0.0408 2.5501,0.34865 2.19099,0.92972 -0.33992,0.55 -0.70398,0.96837 -0.80902,0.92971 -0.10504,-0.0387 -1.09098,-0.45703 -2.19098,-0.92971 z m -81.5,-22 v -7 h -6.5 c -6.26667,0 -6.5,0.0897 -6.5,2.5 0,3.95656 -4.53012,3.36473 -9.20784,-1.20295 -3.52761,-3.44462 -3.79216,-4.10738 -3.79216,-9.5 v -5.79705 h -7.5 -7.5 v 7.5 7.5 h 5.14629 c 4.71993,0 5.54488,0.37282 9.95716,4.5 4.06033,3.79796 5.44158,4.5 8.85371,4.5 3.37617,0 4.04284,0.3298 4.04284,2 0,1.79487 0.66666,2 6.5,2 h 6.5 z m -45.55671,2.77749 c 1.24403,-1.77609 1.55671,-5.29114 1.55671,-17.5 0,-12.91333 0.23212,-15.27749 1.5,-15.27749 0.93333,0 1.5,0.94444 1.5,2.5 0,2.44444 0.16666,2.5 7.5,2.5 h 7.5 v -7.5 -7.5 h -7.5 c -7.33334,0 -7.5,0.0555 -7.5,2.5 0,1.83333 -0.53334,2.5 -2,2.5 -1.92157,0 -2,-0.66667 -2,-17 0,-16.33334 0.0784,-17 2,-17 1.46666,0 2,0.66666 2,2.5 0,2.44444 0.16666,2.5 7.5,2.5 h 7.5 v -7.5 -7.5 h -7.5 -7.5 v 3 c 0,2.33333 -0.44445,3 -2,3 -1.92381,0 -2,-0.66667 -2,-17.5 0,-16.83334 0.0762,-17.5 2,-17.5 1.46666,0 2,0.66666 2,2.5 0,2.44444 0.16666,2.5 7.5,2.5 h 7.5 v -7.5 -7.5 h -7.5 -7.5 v 3 c 0,2.33333 -0.44445,3 -2,3 -1.90033,0 -2,-0.66667 -2,-13.37756 0,-10.78688 0.29625,-13.62342 1.52976,-14.64714 1.00835,-0.83686 4.24639,-1.19778 9.5,-1.05891 l 7.97024,0.21068 v -7.56354 -7.56353 h -7.5 -7.5 v 3.92207 c 0,3.33845 -0.59523,4.43157 -4,7.34593 l -4,3.42385 v 69.45407 c 0,52.68651 -0.28971,69.74378 -1.2,70.65408 -0.8957,0.89569 -11.98048,1.2 -43.71215,1.2 h -42.51215 l -4.28785,-4.20821 -4.28785,-4.20821 V 403.31559 271.33825 l 2.17431,-2.31445 c 2.74062,-2.91725 6.46016,-3.04151 7.34759,-0.24546 0.82097,2.58665 6.16024,5.92353 9.4781,5.92353 1.375,0 3.97338,-0.89832 5.77417,-1.99626 2.30385,-1.40466 5.03798,-1.99626 9.22583,-1.99626 4.18785,0 6.92198,0.5916 9.22583,1.99626 1.80079,1.09794 4.30902,1.99794 5.57383,2 6.00614,0.01 11.64844,-6.16134 11.02938,-12.06308 -0.25759,-2.4558 0.85354,-4.07331 7.15799,-10.42012 7.21142,-7.25987 7.62383,-7.51306 12.23794,-7.51306 h 4.77503 v -7 c 0,-6.8 -0.0714,-7 -2.5,-7 -2.25,0 -2.5,-0.4 -2.5,-4 0,-3.6 0.25,-4 2.5,-4 2.44444,0 2.5,-0.16667 2.5,-7.5 v -7.5 h -5.76564 -5.76562 l -11.73437,-11.76502 c -10.78469,-10.81286 -11.73437,-12.0673 -11.73437,-15.5 0,-3.48331 0.20215,-3.73498 3,-3.73498 h 3 v -7.5 -7.5 h -7.5 -7.5 v 7.5 c 0,7.33333 0.0556,7.5 2.5,7.5 2.31694,0 2.5,0.34895 2.5,4.76563 0,4.75782 0.0197,4.78524 12,16.73437 l 12,11.96873 v 6.26564 6.26563 h 3 c 2.83333,0 3,0.22222 3,4 0,3.77777 -0.16667,4 -3,4 h -3 v 6.7813 6.7813 l -5.87189,5.81063 -5.8719,5.81062 -3.07844,-1.59193 c -4.30488,-2.22614 -7.31145,-1.99042 -11.58263,0.90808 -5.07711,3.44542 -12.11317,3.44542 -17.19028,0 -2.02617,-1.375 -4.7685,-2.5 -6.09407,-2.5 -3.69142,0 -8.10731,2.70583 -9.81954,6.01692 -1.18129,2.28437 -2.23112,2.98308 -4.48213,2.98308 -1.86199,0 -4.23528,1.13768 -6.47432,3.10359 l -3.5348,3.10359 v 135.25135 135.25135 l 5.44014,5.14506 5.44014,5.14506 h 46.00316 46.00315 z m 135.55671,-3.77749 v -3 h 23.27502 23.27503 l 7.44995,-7.5 7.44994,-7.5 h 6.77503 6.77503 v -3 c 0,-1.65 0.45,-3 1,-3 0.55,0 1,0.92234 1,2.04966 0,5.48062 5.74427,10.95034 11.5,10.95034 5.77984,0 11.5,-5.47145 11.5,-11 0,-3.38788 -2.80712,-7.8489 -5.96727,-9.48308 -3.98559,-2.06103 -7.89225,-1.89995 -11.8069,0.48681 -5.12595,3.1253 -7.22583,2.6883 -7.22583,-1.50373 v -3.5 h -9 -9 v 7.2249 7.2249 l -6.72318,6.7751 -6.72318,6.7751 h -16.27682 -16.27682 v -18.77889 -18.77889 l 6.5,-6.44222 6.5,-6.44223 v -36.49454 -36.49453 l -4.71241,-4.78435 -4.71241,-4.78435 h -22.87986 c -21.36567,0 -23.04813,-0.13236 -25.42245,-2 -2.24956,-1.76951 -4.05679,-2 -15.68119,-2 h -13.1386 l -7.92827,-7.97504 -7.92827,-7.97504 -15.02004,-0.27496 c -14.61028,-0.26746 -15.05176,-0.33864 -16.18246,-2.60915 -0.63933,-1.2838 -1.66453,-2.8363 -2.27823,-3.45 -0.63713,-0.63713 -1.11581,-4.58538 -1.11581,-9.20341 v -8.08759 l 5,-4.92481 5,-4.92482 v -7.28759 c 0,-4.00818 0.37776,-7.28759 0.83948,-7.28759 1.66796,0 3.16052,-5.21698 3.16052,-11.04706 v -5.95294 h -6.5 -6.5 v 6.84501 c 0,5.57502 0.37107,7.18083 2,8.65499 1.54905,1.40187 2,3.07996 2,7.44258 0,5.43581 -0.17469,5.80466 -5,10.55742 l -5,4.92481 v 9.3773 c 0,13.87769 1.81861,13.12363 -31.75,13.16462 -17.78501,0.0217 -27.25,-0.31918 -27.25,-0.98143 0,-1.49964 -6.143,-4.97725 -8.79966,-4.98157 -5.48644,-0.009 -11.20034,5.60088 -11.20034,10.99627 0,5.39539 5.7139,11.00518 11.20034,10.99626 3.77022,-0.006 8.51239,-3.55983 9.91076,-7.42696 l 1.29068,-3.5693 h 29.89138 c 28.37718,0 30.02018,0.10131 32.43397,2 2.2685,1.7844 4.05678,2 16.58945,2 h 14.04688 l 8.19608,8 8.19609,8 h 13.21445 c 11.70026,0 13.5058,0.22917 15.75705,2 2.37203,1.86584 4.05678,2 25.11556,2 h 22.57298 l 3.79216,3.70294 3.79217,3.70295 v 33.57594 33.57594 l -6.5,6.44223 -6.5,6.44222 v 20.27889 20.27889 h -3 c -2.76191,0 -3,-0.27778 -3,-3.5 v -3.5 h -9 -9 v 9 9 h 9 9 z m -8.5,-9 c 0.33991,-0.55 0.81647,-1 1.05901,-1 0.24254,0 0.44099,0.45 0.44099,1 0,0.55 -0.47656,1 -1.05902,1 -0.58246,0 -0.7809,-0.45 -0.44098,-1 z m 73.1545,-21.25 c 0.25494,-0.4125 1.33697,-0.75 2.40451,-0.75 1.06754,0 1.94099,0.3375 1.94099,0.75 0,0.4125 -1.08203,0.75 -2.40451,0.75 -1.32248,0 -2.19592,-0.3375 -1.94099,-0.75 z M 517.74191,385.87064 c 1.19833,-0.76052 7.22674,-0.3833 7.22674,0.45221 0,0.21257 -1.9125,0.37961 -4.25,0.37118 -2.54925,-0.009 -3.74047,-0.33868 -2.97674,-0.82339 z m 1.25854,-4.97031 c -0.0189,-0.77822 -0.53866,-1.0045 -1.2818,-0.55804 -0.97974,0.58861 -0.99222,0.4321 -0.0577,-0.72388 0.65574,-0.81117 2.68074,-1.52817 4.5,-1.59335 1.82858,-0.0655 2.42452,0.11317 1.33267,0.39956 -1.08629,0.28494 -2.53447,1.25306 -3.2182,2.15139 -0.86822,1.14075 -1.25272,1.23856 -1.27493,0.32432 z m -22.99907,160.29209 c 3.16015,-1.63418 5.96727,-6.0952 5.96727,-9.48307 0,-5.30015 -5.69986,-11 -11,-11 -5.30014,0 -11,5.69985 -11,11 0,3.28705 2.75968,7.80526 5.76257,9.43461 3.53914,1.92032 6.62226,1.93486 10.27016,0.0485 z m -7.71982,-8.28779 c 1.4779,-1.5426 2.68709,-3.3426 2.68709,-4 0,-1.45793 -3.63242,-1.6004 -4.34167,-0.17028 -0.27958,0.56375 -0.39488,0.45125 -0.25621,-0.25 0.13866,-0.70125 1.45491,-1.41739 2.925,-1.59143 2.07529,-0.24567 2.67288,0.11093 2.67288,1.59502 0,1.05129 -0.92936,2.75249 -2.06524,3.78045 -1.95237,1.76687 -1.96603,1.90813 -0.25,2.5847 1.38482,0.54599 1.11881,0.73235 -1.12185,0.78597 l -2.93709,0.0703 z m 5.21279,-1.13818 c 0.0141,-2.168 0.35163,-4.26776 0.75,-4.66613 0.39836,-0.39837 0.7243,1.37569 0.7243,3.94236 0,2.56667 -0.3375,4.66643 -0.75,4.66614 -0.4125,-3e-4 -0.73844,-1.77436 -0.7243,-3.94237 z m 32.50703,9.42597 c 3.16015,-1.63418 5.96727,-6.0952 5.96727,-9.48307 0,-5.30015 -5.69986,-11 -11,-11 -5.30014,0 -11,5.69985 -11,11 0,3.28705 2.75968,7.80526 5.76257,9.43461 3.53914,1.92032 6.62226,1.93486 10.27016,0.0485 z m -7.61058,-8.40181 c 2.7439,-2.86402 2.78848,-5.08126 0.10217,-5.08126 -0.74671,0 -1.5864,0.46125 -1.86599,1.025 -0.27958,0.56375 -0.39229,0.45125 -0.25046,-0.25 0.36393,-1.79942 3.68313,-2.23902 4.70699,-0.6234 0.63276,0.99848 0.85849,1.02401 0.86983,0.0984 0.008,-0.6875 1.14031,-1.25 2.51531,-1.25 2.8845,0 3.30337,2.35376 0.96827,5.44103 -1.15274,1.52406 -1.19962,2.11152 -0.2182,2.73468 0.82512,0.52392 0.46208,0.79887 -1.06816,0.80897 l -2.3181,0.0153 2.0681,-2.90437 c 4.01462,-5.63803 1.80056,-7.06118 -2.87134,-1.84563 -2.53116,2.82569 -2.69251,3.33874 -1.2359,3.92971 1.17097,0.47509 0.79112,0.70088 -1.26176,0.75 l -2.93709,0.0703 z m 45.57785,-2.58126 v -7.5 h -7.5 c -7.08221,0 -7.5,0.12373 -7.5,2.22111 0,1.86998 -0.99232,1.23762 -6.2769,-4 l -6.27691,-6.22111 h -14.42549 -14.42548 l -3.23451,-3.13501 c -2.97734,-2.88575 -3.19012,-3.50974 -2.67627,-7.84842 0.50126,-4.23235 0.24804,-5.06059 -2.48107,-8.115 -2.7138,-3.03726 -3.59238,-3.40157 -8.20337,-3.40157 -4.5689,0 -5.50035,0.37638 -8.08203,3.26577 -3.94322,4.41324 -3.94319,9.05529 9e-5,13.46845 2.61512,2.92674 3.4835,3.26696 8.36468,3.27716 4.87879,0.0102 5.87804,0.40115 9.58482,3.75 l 4.1382,3.73862 14.24712,0.0304 14.24712,0.0304 7.75,7.48874 c 4.2625,4.1188 7.75,8.15513 7.75,8.96961 0,1.1762 1.54304,1.48088 7.5,1.48088 h 7.5 z m -69.29994,-30.16074 c 0.50552,-1.31737 0.18888,-1.54348 -1.53139,-1.09362 -1.19277,0.31191 -2.16867,0.15925 -2.16867,-0.33926 0,-0.49851 1.125,-0.90638 2.5,-0.90638 1.83333,0 2.5,0.53333 2.5,2 0,1.1 -0.43588,2 -0.96861,2 -0.53274,0 -0.68184,-0.74734 -0.33133,-1.66074 z m -6.15735,-0.27016 c -0.31644,-0.512 -0.11799,-1.21356 0.44098,-1.55902 0.55897,-0.34547 1.01631,0.0734 1.01631,0.9309 0,1.75653 -0.60005,2.01516 -1.45729,0.62812 z m 128.45729,15.4309 v -6.5 h -5.2024 c -4.4969,0 -5.64958,-0.43343 -8.5,-3.19617 -2.11264,-2.04766 -3.2976,-4.15793 -3.2976,-5.87264 0,-1.89094 -1.32074,-3.89388 -4.5,-6.82443 -3.00806,-2.77273 -4.5,-4.96998 -4.5,-6.62736 0,-2.41881 -0.18328,-2.4794 -7.5,-2.4794 h -7.5 v 7.5 7.5 h 7.5 c 5.00428,0 7.5,-0.38434 7.5,-1.15499 0,-0.65499 0.86581,-0.37144 2,0.65499 1.1,0.99548 2,2.99653 2,4.44678 0,1.80415 1.42101,4.03142 4.5,7.05322 3.76566,3.69572 4.5,5.03518 4.5,8.2082 v 3.7918 h 6.5 6.5 z m -53,-4 v -7.5 h -7 c -6.8,0 -7,0.0714 -7,2.5 0,3.57677 -1.63296,3.11701 -7.10345,-2 -3.5209,-3.29339 -5.62677,-4.5 -7.85371,-4.5 -2.88331,0 -3.04284,-0.20971 -3.04284,-4 v -4 h -11 -11 v 10.5 10.5 h 11 11 v -4.5 c 0,-4.02432 0.24226,-4.5 2.29179,-4.5 1.39525,0 4.01949,1.76039 6.70821,4.5 2.68872,2.73961 5.31296,4.5 6.7082,4.5 1.87977,0 2.2918,0.53934 2.2918,3 v 3 h 7 7 z m -48,-5.87756 c 0,-0.20765 0.76138,-0.99515 1.69196,-1.75 0.94507,-0.7666 1.3811,-0.85406 0.98776,-0.19813 -0.41084,0.6851 0.0299,1.36583 1.05804,1.634 1.09891,0.28665 0.72711,0.50335 -0.98776,0.57569 -1.5125,0.0638 -2.75,-0.0539 -2.75,-0.26156 z m 6.65498,-0.37244 c -0.25469,-0.4125 0.68774,-0.81919 2.09427,-0.90376 1.84381,-0.11086 2.1658,0.0941 1.15404,0.73469 -1.73174,1.09639 -2.64638,1.14399 -3.24831,0.16907 z m -6.05596,-6.4096 c 0.50142,-0.81208 9.33844,-0.75053 9.84485,0.0686 0.20097,0.32507 -2.02354,0.59103 -4.94336,0.59103 -2.91982,0 -5.1255,-0.29682 -4.90149,-0.6596 z m 231.43371,10.64267 c 1.61338,-0.83431 3.62759,-2.85931 4.47602,-4.5 l 1.54261,-2.98307 h 24.74218 24.74219 l 10.41646,-10.45203 c 5.72905,-5.74861 10.54633,-11.26111 10.70507,-12.25 0.15874,-0.98888 0.31358,-70.83836 0.34408,-155.22106 l 0.0555,-153.42308 -3.0361,-3.13246 -3.03609,-3.13246 3.00769,-2.88155 3.00769,-2.88155 V 102.21464 46.094119 L 814.11809,35.401731 803.26753,24.709344 h -20.02812 -20.02812 l -1.29163,-3.11827 c -1.4752,-3.561444 -6.27075,-6.874254 -9.95101,-6.874254 -3.68027,0 -8.47582,3.31281 -9.95102,6.874254 l -1.29162,3.11827 h -59.38813 -59.38813 l -5.90189,5.25 -5.90189,5.25 -0.0887,15.520849 -0.0887,15.520849 -8.76979,8.729151 c -4.82338,4.801033 -9.38134,8.729151 -10.1288,8.729151 -0.74745,0 -3.10235,-1.575 -5.23309,-3.5 l -3.87409,-3.5 h -43.22832 -43.22833 l -9.26879,9.230249 -9.26879,9.23025 v 29.048637 29.04864 l 6.5,6.44223 c 8.74696,8.66921 8.74696,10.33079 0,19 l -6.5,6.44222 v 19.65644 c 0,16.25245 0.25976,19.87203 1.5,20.90134 1.1272,0.93549 1.5,3.45123 1.5,10.12244 v 8.87756 h 11 c 10.33333,0 11,-0.12122 11,-2 0,-1.73204 0.66667,-2 4.97583,-2 3.21263,0 6.13605,0.70738 8.25,1.99626 1.80079,1.09794 4.30902,1.99794 5.57383,2 5.48644,0.009 11.20034,-5.60087 11.20034,-10.99626 0,-5.44413 -5.71285,-11 -11.31079,-11 -1.32556,0 -4.0679,1.125 -6.09407,2.5 -2.56609,1.74139 -5.03597,2.5 -8.13955,2.5 -4.06717,0 -4.45559,-0.21455 -4.45559,-2.46107 0,-2.40523 -0.19851,-2.46762 -8.75,-2.75 l -8.75,-0.28893 -0.27572,-16.44715 -0.27571,-16.44715 6.24683,-6.30285 c 5.73045,-5.78185 6.60052,-6.30285 10.52571,-6.30285 h 4.27889 v -7.5 -7.5 h -4.7813 c -4.49712,0 -5.1212,-0.34348 -10.5,-5.779 l -5.7187,-5.779 V 124.15532 98.159287 l 7.27352,-7.224971 7.27351,-7.224972 h 40.41204 c 40.11566,0 40.429,0.01595 42.72647,2.174314 1.79915,1.690211 2.31446,3.248735 2.31446,7 v 4.825689 h 7 7 v -5.772081 -5.772078 l 8.5,-8.455844 8.5,-8.455845 V 54.265771 39.278042 l 4.7124,-4.784349 4.71241,-4.784349 h 58.72021 c 58.49467,0 58.72272,0.0079 59.37687,2.068997 0.82097,2.586644 6.16024,5.923527 9.47811,5.923527 3.31786,0 8.65713,-3.336883 9.4781,-5.923527 0.63388,-1.997181 1.3219,-2.068997 19.82139,-2.068997 h 19.16472 l 9.7679,9.731238 9.76789,9.731238 v 53.0726 53.07259 l -3.27326,3.17256 -3.27325,3.17257 -34.47675,-0.0194 c -18.96221,-0.0107 -36.01404,-0.28711 -37.89295,-0.61429 -6.28533,-1.09446 -13.08379,4.71525 -13.08379,11.18093 0,3.56702 2.61828,7.8433 6.03983,9.86446 7.91773,4.67711 17.9162,-2.20005 16.67309,-11.46812 l -0.52261,-3.89634 h 31.61268 31.61268 l 3.79216,3.70294 3.79217,3.70295 v 85.29705 85.29706 h -34.87748 c -36.1824,0 -38.46989,-0.25573 -36.08055,-4.03354 3.69424,-5.84103 -2.67402,-15.96646 -10.04189,-15.96646 -5.52855,0 -11,5.72015 -11,11.5 0,6.75768 6.26639,12.17502 12.90084,11.15285 2.34669,-0.36155 4.27465,-0.0496 5.54029,0.89632 1.61172,1.20462 8.0179,1.45083 37.75,1.45083 h 35.80887 v 64.23211 64.23211 l -9.73124,9.76789 -9.73124,9.76789 h -23.74308 -23.74308 l -1.54261,-2.98308 c -1.65663,-3.20357 -6.10267,-6.01692 -9.50875,-6.01692 -3.38788,0 -7.8489,2.80711 -9.48308,5.96726 -1.91636,3.70584 -1.91751,6.35742 -0.004,10.05705 2.78703,5.38952 9.01939,7.30332 14.52016,4.45876 z m -5.32972,-334.11339 c -1.03681,-1.03681 -0.85521,-2.58178 0.22499,-1.91418 0.5104,0.31545 1.22649,-0.36691 1.59131,-1.51634 0.36481,-1.14944 0.88243,-1.87076 1.15025,-1.60293 0.26783,0.26782 -0.13191,1.66809 -0.88829,3.1117 -0.75639,1.44362 -1.69161,2.3084 -2.07826,1.92175 z m -8.49752,-4.11968 c -0.0784,-4.15783 -0.011,-4.24675 3.10719,-4.10017 3.02388,0.14215 3.04631,0.17119 0.43732,0.56642 -2.68805,0.40721 -3.98904,3.26857 -1.5,3.29906 0.86475,0.0106 0.91096,0.24174 0.14994,0.75 -0.60503,0.40408 -1.32827,1.40969 -1.60719,2.23469 -0.27892,0.825 -0.54319,-0.4125 -0.58726,-2.75 z m -27.20549,323.75 v -9 l -5.75,0.005 c -3.1625,0.003 -10.1375,0.29572 -15.5,0.65082 l -9.75,0.64565 v 7.34918 7.34918 h 6.5 c 3.66666,0 6.5,0.43589 6.5,1 0,0.59259 3.66666,1 9,1 h 9 z m -6.43571,1.70687 c 0.37553,-0.98622 0.93469,-1.54122 1.24258,-1.23333 0.30789,0.30788 6.3e-4,1.11479 -0.68279,1.79312 -0.98761,0.98027 -1.10248,0.86541 -0.55979,-0.55979 z m -2.06429,-4.70687 c -1.75921,-0.75596 -1.66181,-0.86789 0.80901,-0.92972 1.63222,-0.0408 2.5501,0.34865 2.19099,0.92972 -0.33992,0.55 -0.70398,0.96837 -0.80902,0.92971 -0.10504,-0.0387 -1.09098,-0.45703 -2.19098,-0.92971 z m -134.5,-0.5 v -7.5 h -7.5 -7.5 v 3.08889 3.08889 l -3.07672,-2.58889 c -3.05534,-2.5709 -3.19925,-2.58889 -20.7024,-2.58889 h -17.62566 l -3.23451,-3.13501 c -2.97734,-2.88575 -3.19012,-3.50974 -2.67627,-7.84842 0.50126,-4.23235 0.24804,-5.06059 -2.48107,-8.115 -2.7138,-3.03726 -3.59238,-3.40157 -8.20337,-3.40157 -4.5689,0 -5.50035,0.37638 -8.08203,3.26577 -7.35481,8.23147 1.30201,20.14201 11.94341,16.4324 2.65775,-0.9265 3.24433,-0.67424 6.72806,2.89342 l 3.81646,3.90841 h 17.62273 c 17.50462,0 17.63848,0.0168 19.97137,2.5 1.29175,1.375 3.17019,2.5 4.17431,2.5 1.28073,0 1.82569,0.74623 1.82569,2.5 0,2.44444 0.16666,2.5 7.5,2.5 h 7.5 z m -75.5,-16.5 c 0.33992,-0.55 0.81648,-1 1.05902,-1 0.24254,0 0.44098,0.45 0.44098,1 0,0.55 -0.47656,1 -1.05902,1 -0.58246,0 -0.7809,-0.45 -0.44098,-1 z m 0.15066,-4.46798 c -0.30982,-0.80738 -0.13296,-1.73394 0.39301,-2.05902 0.52598,-0.32507 0.95633,0.33552 0.95633,1.46798 0,2.41456 -0.55611,2.65816 -1.34934,0.59104 z m 5.69971,0.28028 c 0.37436,-1.17209 -0.13145,-1.81788 -1.65566,-2.11382 -1.81444,-0.35229 -1.71823,-0.44971 0.55529,-0.5623 2.96085,-0.14662 3.33545,0.50738 1.64036,2.86382 -0.92171,1.2813 -1.00043,1.25394 -0.53999,-0.1877 z m 135.68236,26.67077 c 3.32804,-1.721 5.96727,-6.13635 5.96727,-9.98307 0,-5.87691 -5.48377,-11.50556 -11.20034,-11.49627 -1.26482,0.002 -3.81712,0.92887 -5.6718,2.05958 l -3.37213,2.05584 -2.19232,-2.05958 c -2.86581,-2.69229 -3.66614,-2.60556 -6.87632,0.74515 -2.32516,2.42693 -2.68709,3.63919 -2.68709,9 v 6.19528 h 5.45559 c 4.17024,0 6.32354,0.589 9.13954,2.5 4.23259,2.87231 7.27803,3.13407 11.4376,0.98307 z m 154,-5 c 3.39148,-1.75381 5.96891,-6.15505 5.96353,-10.18341 -0.005,-3.57742 -3.24791,-8.92737 -5.92727,-9.77776 -1.53211,-0.48628 -2.06899,-1.49886 -2.06899,-3.9022 0,-2.30076 -0.87329,-4.08219 -3,-6.1197 -2.51967,-2.41399 -3,-3.64479 -3,-7.68709 0,-4.68101 0.0822,-4.81291 3,-4.81291 1.65,0 3,-0.45 3,-1 0,-0.55 0.9,-1 2,-1 1.73333,0 2,-0.66667 2,-5 0,-4.33334 -0.26667,-5 -2,-5 -1.55556,0 -2,-0.66667 -2,-3 v -3 h -9 -9 v 9 9 h 3.5 3.5 v 6.31291 c 0,5.70896 0.287,6.58787 3,9.18709 3.76998,3.61187 3.77346,5.04866 0.0169,6.99124 -7.66373,3.96308 -7.81522,15.84088 -0.25435,19.94337 3.53914,1.92032 6.62226,1.93486 10.27016,0.0485 z m -9.03273,-53.5997 c 0,-0.62456 -0.88196,-0.886 -2.00138,-0.59326 -1.10076,0.28785 -1.74921,0.11534 -1.44099,-0.38337 0.92307,-1.49355 4.44237,-1.02356 4.44237,0.59326 0,0.825 -0.225,1.5 -0.5,1.5 -0.275,0 -0.5,-0.50249 -0.5,-1.11663 z m -245.39402,39.68779 3.10597,-3.57116 h 8.64403 c 8.55362,0 8.64402,0.0261 8.64402,2.5 0,2.42857 0.2,2.5 7,2.5 h 7 v -7.5 -7.5 h -7 -7 v 3 3 h -8.93261 c -7.79866,0 -9.00682,-0.23382 -9.51719,-1.84184 -1.29004,-4.06455 -5.46308,-6.65816 -10.71279,-6.65816 -4.3853,0 -5.36095,0.40233 -7.91944,3.26577 -3.56888,3.99427 -3.86218,8.76414 -0.77985,12.68269 2.79915,3.55855 5.4739,4.6196 10.36188,4.11049 3.05605,-0.3183 4.73297,-1.25937 7.10598,-3.98779 z m -12.60598,-2.96417 c 0,-0.21616 0.675,-0.65204 1.5,-0.96862 0.825,-0.31658 1.5,-0.13973 1.5,0.39301 0,0.53274 -0.675,0.96862 -1.5,0.96862 -0.825,0 -1.5,-0.17686 -1.5,-0.39301 z m 4.75,-0.26927 c 0.6875,-0.27742 1.8125,-0.27742 2.5,0 0.6875,0.27741 0.125,0.50438 -1.25,0.50438 -1.375,0 -1.9375,-0.22697 -1.25,-0.50438 z m -2.7182,-4.64674 c -0.0195,-1.10857 -0.47882,-1.53274 -1.18631,-1.09549 -0.67629,0.41797 -0.88451,0.27667 -0.50268,-0.34115 0.91575,-1.48171 7.93671,-1.03865 8.25056,0.52066 0.14115,0.70125 0.0279,0.81375 -0.2517,0.25 -0.79335,-1.59971 -3.48411,-1.20558 -4.94962,0.725 -1.26006,1.65992 -1.33008,1.65688 -1.36025,-0.059 z m 288.00093,2.79209 c 3.23222,-1.67145 5.96933,-6.11588 5.96353,-9.68341 -0.005,-3.14968 -3.40967,-8.47871 -5.92727,-9.27776 -1.28278,-0.40714 -2.06899,-1.50998 -2.06899,-2.9022 0,-1.23504 -1.35,-3.5389 -3,-5.1197 -1.94114,-1.85973 -3,-3.86701 -3,-5.68709 0,-2.74292 -0.13685,-2.81291 -5.5,-2.81291 h -5.5 v 5 5 h 3.82568 c 2.75493,0 4.46254,0.67789 6.10108,2.42205 l 2.2754,2.42204 -3.08415,1.59488 c -3.29207,1.70239 -6.11801,6.11869 -6.11801,9.56103 0,3.28705 2.75967,7.80526 5.76257,9.43461 3.53914,1.92032 6.62226,1.93486 10.27016,0.0485 z M 706.96865,461.70935 v -9 h -9 c -5.33334,0 -9,0.4074 -9,1 0,0.5641 -2.83334,1 -6.5,1 h -6.5 v 7.45431 7.45431 l 6.75,0.34983 c 3.7125,0.1924 10.6875,0.43796 15.5,0.54569 l 8.75,0.19586 z m -8.5,-3 c 0.33991,-0.55 0.81647,-1 1.05901,-1 0.24254,0 0.44099,0.45 0.44099,1 0,0.55 -0.47656,1 -1.05902,1 -0.58246,0 -0.7809,-0.45 -0.44098,-1 z m -33.5,3.5 v -7.5 h -7 c -6.8,0 -7,0.0714 -7,2.5 0,2.28829 -0.37301,2.5 -4.40485,2.5 h -4.40484 l 0.51718,-3.85585 c 0.28521,-2.12643 -0.0202,-4.85985 -0.68084,-6.09435 -1.01566,-1.89777 -0.87784,-2.5793 0.90541,-4.47749 1.90715,-2.03006 5.04885,-3.09292 4.89396,-1.65565 -0.23661,2.19549 0.76944,2.75308 5.34388,2.96181 4.56423,0.20827 5.01957,0.0548 3.8867,-1.31028 -0.70577,-0.85039 -1.75176,-1.2566 -2.32442,-0.90267 -0.59964,0.37059 -0.74264,0.16041 -0.33719,-0.49561 0.41749,-0.67553 -0.63879,-1.95779 -2.5955,-3.15077 -1.81472,-1.10642 -2.75112,-2.01335 -2.08088,-2.01541 0.67024,-0.002 0.96505,-0.6645 0.65515,-1.47211 -0.30991,-0.80761 -0.85829,-1.42932 -1.21862,-1.38158 -0.36033,0.0477 -1.66764,0.0335 -2.90514,-0.0316 -2.20176,-0.11588 -2.25,-0.37573 -2.25,-12.11842 0,-10.75607 -0.18141,-12.00159 -1.75,-12.01532 -1.28572,-0.0113 -1.40972,-0.23123 -0.46739,-0.82917 0.86671,-0.54995 -0.1061,-1.27339 -3,-2.23097 -2.35544,-0.77941 -4.73261,-1.26878 -5.28261,-1.08749 -0.55,0.18129 -0.65839,-0.012 -0.24086,-0.42953 1.06255,-1.06255 -3.30327,-5.48641 -4.6545,-4.71638 -0.60756,0.34623 -0.77105,0.26127 -0.36332,-0.18881 0.80942,-0.89348 -0.95132,-3.50233 -2.36377,-3.50233 -0.48265,0 -0.87755,2.14013 -0.87755,4.75585 v 4.75585 l 5.25,2.45315 c 2.8875,1.34923 5.7,2.3216 6.25,2.16081 0.55,-0.16078 0.6968,0.0109 0.32622,0.38145 -0.37058,0.37057 0.41692,2.7251 1.75,5.23227 2.51772,4.73518 3.09506,10.3648 1.49465,14.5742 -1.17715,3.09615 1.28693,7.1383 3.78288,6.20556 0.90544,-0.33836 0.20546,0.83854 -1.55549,2.61533 -2.89307,2.9191 -3.45194,3.11654 -5.79705,2.04803 -3.46582,-1.57913 -6.00584,-1.49003 -9.53395,0.33442 -3.32804,1.721 -5.96726,6.13635 -5.96726,9.98308 0,6.2866 6.36564,12.26783 11.88228,11.16473 4.60365,-0.92055 5.50122,-0.98274 11.86772,-0.82227 5.95799,0.15018 6.25,0.27434 6.25,2.65754 0,2.42857 0.2,2.5 7,2.5 h 7 z m -28.3987,-52.66391 c 0.25451,-0.41181 1.12333,-0.49525 1.93072,-0.18543 2.03586,0.78123 1.83382,1.2526 -0.46275,1.0796 -1.06189,-0.08 -1.72248,-0.48237 -1.46797,-0.89417 z m -19.6013,47.66391 v -6.5 h -13 -13 v -2.5 c 0,-2.44445 -0.16667,-2.5 -7.5,-2.5 h -7.5 v 7.5 7.5 h 7.5 c 7.33333,0 7.5,-0.0556 7.5,-2.5 0,-2.41026 0.23333,-2.5 6.5,-2.5 h 6.5 v 4 4 h 6.5 6.5 z m -53,-4 v -7.5 h -7.5 c -7.33334,0 -7.5,0.0555 -7.5,2.5 0,2.32548 -0.341,2.5 -4.88499,2.5 -4.10717,0 -5.14581,0.39806 -6.52305,2.5 -1.62064,2.4734 -1.78995,2.5 -15.91206,2.5 h -14.274 l -3.66466,-3.75295 c -2.73225,-2.79808 -3.42386,-4.13384 -2.71826,-5.25 1.90767,-3.01765 1.07072,-7.86063 -1.94095,-11.23128 -2.58168,-2.88939 -3.51313,-3.26577 -8.08203,-3.26577 -4.5689,0 -5.50035,0.37638 -8.08203,3.26577 -3.94362,4.41368 -3.94329,9.05552 9.6e-4,13.46845 2.68508,3.00415 3.40215,3.26578 8.95085,3.26578 5.62066,0 6.29384,0.25568 9.87324,3.75 l 3.84131,3.75 h 16.63525 c 16.55321,0 16.64496,-0.0123 18.60176,-2.5 1.34352,-1.70801 2.9505,-2.5 5.07258,-2.5 2.78453,0 3.10608,0.31056 3.10608,3 v 3 h 7.5 7.5 z m -75.5,-8.5 c 0.33992,-0.55 0.81648,-1 1.05902,-1 0.24254,0 0.44098,0.45 0.44098,1 0,0.55 -0.47656,1 -1.05902,1 -0.58246,0 -0.7809,-0.45 -0.44098,-1 z m 6.15492,-2.45688 c -0.32568,-0.84872 -1.28127,-1.54312 -2.12353,-1.54312 -0.84227,0 -1.53139,-0.675 -1.53139,-1.5 0,-0.99387 0.92792,-1.46637 2.75,-1.40032 l 2.75,0.0997 -2.5,0.80064 c -1.46146,0.46804 -1.81747,0.84205 -0.85699,0.90032 1.53537,0.0931 3.39112,2.89888 2.50407,3.78593 -0.22,0.22 -0.66647,-0.2944 -0.99216,-1.14313 z m -6.00426,-2.0111 c -0.30982,-0.80738 -0.13296,-1.73394 0.39301,-2.05902 0.52598,-0.32507 0.95633,0.33552 0.95633,1.46798 0,2.41456 -0.55611,2.65816 -1.34934,0.59104 z m 40.95532,8.03914 c 2.55839,-2.94157 3.78643,-3.57116 6.96565,-3.57116 3.25669,0 4.60711,-0.73621 8.64402,-4.71241 4.71164,-4.6408 4.78435,-4.67119 4.78435,-2 0,2.69155 0.0538,2.71241 7,2.71241 h 7 v -7.5 -7.5 h -7 -7 v 3 c 0,2.10175 -0.48623,3 -1.62393,3 -0.89316,0 -3.4064,2.025 -5.58498,4.5 -3.21141,3.64834 -4.59462,4.5 -7.30869,4.5 -2.37354,0 -3.51772,-0.53594 -3.9322,-1.84184 -1.29004,-4.06455 -5.46308,-6.65816 -10.71279,-6.65816 -4.3853,0 -5.36095,0.40233 -7.91944,3.26577 -3.56888,3.99427 -3.86218,8.76414 -0.77985,12.68269 2.79915,3.55855 5.4739,4.6196 10.36188,4.11049 3.05605,-0.3183 4.73297,-1.25937 7.10598,-3.98779 z m -12.60598,-2.96417 c 0,-0.21616 0.675,-0.65204 1.5,-0.96862 0.825,-0.31658 1.5,-0.13973 1.5,0.39301 0,0.53274 -0.675,0.96862 -1.5,0.96862 -0.825,0 -1.5,-0.17686 -1.5,-0.39301 z m 4.75,-0.26927 c 0.6875,-0.27742 1.8125,-0.27742 2.5,0 0.6875,0.27741 0.125,0.50438 -1.25,0.50438 -1.375,0 -1.9375,-0.22697 -1.25,-0.50438 z m -2.634,-4.64674 c -0.0732,-1.14108 -0.57754,-1.54844 -1.366,-1.1033 -0.99237,0.56027 -0.9958,0.43159 -0.0167,-0.62431 1.53306,-1.65327 2.60059,-0.72802 1.97107,1.70836 -0.45046,1.74334 -0.47779,1.74423 -0.5884,0.0192 z m 2.884,-0.63197 c 0,-0.51754 0.44485,-1.21591 0.98855,-1.55193 0.56686,-0.35034 0.7345,0.0511 0.39301,0.94098 -0.66479,1.73242 -1.38156,2.04939 -1.38156,0.61095 z m 105.23307,-3.697 c 2.98201,-1.523 5.76693,-6.04404 5.76693,-9.36201 0,-3.38788 -2.80712,-7.8489 -5.96727,-9.48308 -3.68677,-1.9065 -6.35632,-1.91807 -9.98181,-0.0433 -2.51047,1.29822 -2.99535,1.29822 -4.07278,0 -1.80014,-2.16904 -3.26941,-1.82286 -6.47814,1.52634 l -2.87419,3 h 4.18709 c 2.30291,0 4.1871,0.45 4.1871,1 0,0.55 -1.8,1 -4,1 h -4 v 7.00575 7.00575 l 10.25,-0.12681 c 6.56669,-0.0812 11.23212,-0.62842 12.98307,-1.52268 z m -85.50659,-13.58699 7.27352,-7.22497 v 3.22497 3.22498 h 7.5 7.5 v -7.5 -7.5 h -7.5 c -7.33334,0 -7.5,0.0555 -7.5,2.5 0,1.5685 -0.56549,2.5 -1.51769,2.5 -0.83472,0 -4.48923,3.15 -8.12112,7 l -6.60345,7 h -10.59452 -10.59452 l -4.78435,-4.71241 c -3.48102,-3.42868 -4.78435,-5.48532 -4.78435,-7.54966 0,-6.00922 -5.36857,-11.73793 -11,-11.73793 -5.30014,0 -11,5.69985 -11,11 0,5.39539 5.7139,11.00518 11.20034,10.99626 1.26481,-0.002 3.70646,-0.86157 5.42588,-1.91002 l 3.12621,-1.90629 4.83619,4.91002 4.8362,4.91003 h 12.51407 12.51408 z m -53.22648,-7.77502 c 0.33992,-0.55 0.81648,-1 1.05902,-1 0.24254,0 0.44098,0.45 0.44098,1 0,0.55 -0.47656,1 -1.05902,1 -0.58246,0 -0.7809,-0.45 -0.44098,-1 z m 4.3125,0.31688 c 0.72188,-0.28887 1.58438,-0.25334 1.91667,0.079 0.33229,0.33229 -0.25834,0.56864 -1.3125,0.52522 -1.16495,-0.048 -1.4019,-0.28494 -0.60417,-0.60417 z m -4.16184,-4.78486 c -0.30982,-0.80738 -0.13296,-1.73394 0.39301,-2.05902 0.52598,-0.32507 0.95633,0.33552 0.95633,1.46798 0,2.41456 -0.55611,2.65816 -1.34934,0.59104 z m 5.34934,-0.4587 c 0,-0.50967 -0.7875,-1.13247 -1.75,-1.384 -1.08951,-0.28472 -0.72393,-0.5011 0.96862,-0.57332 2.03116,-0.0867 2.57306,0.2633 2.14301,1.384 -0.64502,1.68088 -1.36163,1.98261 -1.36163,0.57332 z m 213,9.92668 v -9 h -9 c -5.33334,0 -9,0.4074 -9,1 0,0.5641 -2.83334,1 -6.5,1 h -6.5 v 7.45431 7.45431 l 6.75,0.34983 c 3.7125,0.1924 10.6875,0.43796 15.5,0.54569 l 8.75,0.19586 z m -6.43571,1.70687 c 0.37553,-0.98622 0.93469,-1.54122 1.24258,-1.23333 0.30789,0.30788 6.3e-4,1.11479 -0.68279,1.79312 -0.98761,0.98027 -1.10248,0.86541 -0.55979,-0.55979 z m -2.06429,-4.70687 c -1.75921,-0.75596 -1.66181,-0.86789 0.80901,-0.92972 1.63222,-0.0408 2.5501,0.34865 2.19099,0.92972 -0.33992,0.55 -0.70398,0.96837 -0.80902,0.92971 -0.10504,-0.0387 -1.09098,-0.45703 -2.19098,-0.92971 z m -172.46727,5.48307 c 4.79903,-2.48167 7.43706,-9.61511 4.9862,-13.48307 -0.72206,-1.13956 0.29467,-2.76155 4.23115,-6.75 4.81613,-4.87971 5.51904,-5.25 9.96576,-5.25 4.64906,0 4.78416,0.0847 4.78416,3 v 3 h 7 7 v -7.5 -7.5 h -7 c -6.8,0 -7,0.0714 -7,2.5 0,2.39088 -0.26378,2.5 -6.0434,2.5 h -6.0434 l -5.25337,5.64395 c -4.7003,5.04976 -5.4784,5.52351 -7.39086,4.5 -6.31343,-3.37885 -15.26897,2.40191 -15.26897,9.85605 0,3.28705 2.75968,7.80526 5.76257,9.43461 3.53914,1.92032 6.62226,1.93486 10.27016,0.0485 z m -9.03273,-6.87608 c 0,-0.21616 0.675,-0.65204 1.5,-0.96862 0.825,-0.31658 1.5,-0.13973 1.5,0.39301 0,0.53274 -0.675,0.96862 -1.5,0.96862 -0.825,0 -1.5,-0.17686 -1.5,-0.39301 z m 2.07895,-5.41601 c -0.0452,-0.74876 -0.61395,-1.00697 -1.32895,-0.6033 -0.99237,0.56027 -0.9958,0.43159 -0.0167,-0.62431 1.4224,-1.53393 2.72596,-0.71551 1.94978,1.22413 -0.43135,1.07794 -0.53933,1.07856 -0.60417,0.003 z m 71.92105,9.30902 c 0,-1.93609 0.51458,-2.5 2.2813,-2.5 1.46188,0 4.41395,-2.15514 8.2187,-6 5.60972,-5.66888 6.20125,-6 10.71869,-6 h 4.78131 v -7 -7 h -6.5 -6.5 v 4.7813 c 0,4.49712 -0.34348,5.1212 -5.779,10.5 -3.17845,3.14528 -6.10345,5.7187 -6.5,5.7187 -0.39655,0 -0.721,-1.125 -0.721,-2.5 0,-2.44445 -0.16667,-2.5 -7.5,-2.5 h -7.5 v 7.5 7.5 h 7.5 c 7.33333,0 7.5,-0.0556 7.5,-2.5 z m 116,-26 v -3.5 h 9.8101 9.8101 l 10.33256,-10.5 10.33255,-10.5 h 8.35734 8.35735 v 3.5 3.5 h 8.93963 8.93964 l 0.31036,-3.75 0.31037,-3.75 1.76692,3.23307 c 1.8795,3.43904 6.27144,6.26693 9.73308,6.26693 5.52855,0 11,-5.72016 11,-11.5 0,-5.77985 -5.47145,-11.5 -11,-11.5 -3.63924,0 -7.89891,2.90004 -9.94122,6.76814 l -1.97039,3.73186 -0.0442,-3.75 -0.0442,-3.75 h -9 -9 v 3.5 3.5 h -10.53139 c -9.13292,0 -10.61166,0.23238 -11.13593,1.75 -0.3325,0.9625 -4.4715,5.6875 -9.19777,10.5 l -8.59322,8.75 h -8.77084 -8.77085 v -3.5 -3.5 h -9 -9 v 3.5 3.5 h -6.71879 -6.71879 l -20.08687,-20 -20.08686,-20 h -4.90218 c -4.30428,0 -5.36471,-0.45164 -8.69435,-3.70295 l -3.79216,-3.70295 v -12.72447 c 0,-12.55538 -0.035,-12.75202 -2.63486,-14.79705 -2.29947,-1.80877 -4.02186,-2.07258 -13.53139,-2.07258 -9.47569,0 -10.97706,0.22819 -11.51415,1.75 -1.4366,4.07049 -4.57297,6.25 -8.99392,6.25 h -4.32568 v 6.5 c 0,6.26666 0.0897,6.5 2.5,6.5 2.4182,0 2.5,0.21947 2.5,6.70783 0,6.38673 -0.17727,6.88937 -3.70295,10.5 l -3.70295,3.79217 H 553.2657 531.96865 v -4 -4 h -11 -11 v 10.5 10.5 h 11 11 v -4.5 -4.5 h 22.28759 22.28759 l 4.96241,-5.03817 c 2.72932,-2.77099 4.84991,-5.24599 4.71241,-5.5 -0.1375,-0.25401 -0.25,-3.61183 -0.25,-7.46183 0,-6.33334 0.19047,-7 2,-7 1.76445,0 2.00372,-0.6772 2.0316,-5.75 0.0255,-4.63117 0.50257,-6.2851 2.45203,-8.5 2.27705,-2.58709 2.91497,-2.75 10.7684,-2.75 5.15953,0 8.8063,0.45833 9.54797,1.2 0.80549,0.80549 1.2,5.31459 1.2,13.71565 v 12.51565 l 4.7124,4.78435 c 4.39099,4.45801 5.05666,4.78435 9.75938,4.78435 h 5.04697 l 19.98125,20 19.98124,20 h 7.75938 7.75938 v 3.5 3.5 h 9 9 z m -8.5,-8.5 c 0.33991,-0.55 0.81647,-1 1.05901,-1 0.24254,0 0.44099,0.45 0.44099,1 0,0.55 -0.47656,1 -1.05902,1 -0.58246,0 -0.7809,-0.45 -0.44098,-1 z m 73.25,-15.66228 c 0.6875,-0.27742 1.8125,-0.27742 2.5,0 0.6875,0.27741 0.125,0.50438 -1.25,0.50438 -1.375,0 -1.9375,-0.22697 -1.25,-0.50438 z m -0.0955,-5.58772 c 0.25494,-0.4125 1.33697,-0.75 2.40451,-0.75 1.06754,0 1.94099,0.3375 1.94099,0.75 0,0.4125 -1.08203,0.75 -2.40451,0.75 -1.32248,0 -2.19592,-0.3375 -1.94099,-0.75 z m -254.0828,-7.5 c 0.49777,-0.4125 1.24088,-1.2 1.65135,-1.75 0.42591,-0.57068 0.7529,-0.24869 0.76164,0.75 0.009,0.97279 -0.72489,1.75 -1.65136,1.75 -0.91666,0 -1.2594,-0.3375 -0.76163,-0.75 z m 4.06074,-0.0357 c -0.26708,-0.43214 0.34832,-0.78571 1.36756,-0.78571 1.01924,0 1.63464,0.35357 1.36756,0.78571 -0.26707,0.43215 -0.88248,0.78572 -1.36756,0.78572 -0.48508,0 -1.10048,-0.35357 -1.36756,-0.78572 z m -2.55349,-5.0233 c -0.0452,-0.74876 -0.61395,-1.00697 -1.32895,-0.6033 -0.99237,0.56027 -0.9958,0.43159 -0.0167,-0.62431 1.4224,-1.53393 2.72596,-0.71551 1.94978,1.22413 -0.43135,1.07794 -0.53933,1.07856 -0.60417,0.003 z m 2.93534,-1.60527 c 0.64762,-0.64762 1.32381,-0.64762 1.97142,0 0.64762,0.64762 0.30953,0.98572 -0.98571,0.98572 -1.29524,0 -1.63333,-0.3381 -0.98571,-0.98572 z m -25.98156,42.89736 c 3.16015,-1.63418 5.96727,-6.0952 5.96727,-9.48307 0,-5.30015 -5.69986,-11 -11,-11 -5.30014,0 -11,5.69985 -11,11 0,3.28705 2.75968,7.80526 5.76257,9.43461 3.53914,1.92032 6.62226,1.93486 10.27016,0.0485 z m -7.50703,-9.42597 c 0.0141,-2.168 0.35163,-4.26776 0.75,-4.66613 0.39836,-0.39837 0.7243,1.37569 0.7243,3.94236 0,2.56667 -0.3375,4.66643 -0.75,4.66614 -0.4125,-3e-4 -0.73844,-1.77436 -0.7243,-3.94237 z m 4,0 c 0.0141,-2.168 0.35163,-4.26776 0.75,-4.66613 0.39836,-0.39837 0.7243,1.37569 0.7243,3.94236 0,2.56667 -0.3375,4.66643 -0.75,4.66614 -0.4125,-3e-4 -0.73844,-1.77436 -0.7243,-3.94237 z m 124.4743,-6.66409 c 0,-1.14891 0.49884,-1.39365 1.75,-0.85857 7.97883,3.41228 16.25,-1.6952 16.25,-10.03444 0,-5.87691 -5.48377,-11.50556 -11.20034,-11.49627 -2.78948,0.005 -8.79966,3.51281 -8.79966,5.13656 0,0.71599 -0.70932,0.52776 -1.82874,-0.48531 -2.51722,-2.27804 -3.36365,-2.10739 -6.67126,1.34502 l -2.87419,3 h 4.68709 c 2.57791,0 4.6871,0.45 4.6871,1 0,0.55 -2.025,1 -4.5,1 h -4.5 v 6.5 6.5 h 6.5 c 5.30344,0 6.5,-0.29583 6.5,-1.60699 z m 65,-1.89301 v -3.5 h 17 17 v 3.5 c 0,3.00498 0.33166,3.5 2.34501,3.5 2.37883,0 6.07709,-3.10592 5.15717,-4.33115 -0.2762,-0.36787 -0.19807,-0.43974 0.17363,-0.15971 1.04501,0.7873 5.34351,-3.66887 4.63886,-4.80901 -0.34303,-0.55503 -0.15515,-0.71958 0.41751,-0.36565 1.1451,0.70771 3.54662,-1.62188 2.75914,-2.67649 -0.27023,-0.3619 -0.18721,-0.42888 0.18449,-0.14885 1.07926,0.8131 5.32815,-3.68474 4.63304,-4.9045 -0.34623,-0.60756 -0.28446,-0.79424 0.13727,-0.41486 0.42173,0.37938 1.66823,-0.15006 2.77002,-1.17652 1.10178,-1.02647 2.58336,-1.64369 3.2924,-1.37161 0.70903,0.27208 1.58623,0.014 1.94932,-0.57348 0.36309,-0.5875 0.22042,-1.06817 -0.31706,-1.06817 -0.53748,0 -1.76285,-0.30148 -2.72306,-0.66994 -1.19029,-0.45676 -1.51575,-0.29765 -1.02277,0.5 0.43826,0.70913 0.0858,1.16994 -0.89497,1.16994 -0.88992,0 -1.37042,-0.40066 -1.06777,-0.89035 0.49559,-0.80188 -4.08199,-2.20029 -8.71388,-2.66202 -0.97991,-0.0977 -2.10491,-0.53505 -2.5,-0.97194 -0.3951,-0.4369 0.18165,-0.49655 1.28165,-0.13257 1.94564,0.6438 1.94843,0.62182 0.10267,-0.80864 -1.04352,-0.80873 -2.20602,-1.27963 -2.58333,-1.04644 -0.37731,0.23319 -0.71528,-0.11873 -0.75106,-0.78203 -0.0915,-1.6961 -3.91832,-8.72264 -4.45713,-8.18383 -0.74502,0.74501 0.0351,-6.23754 1.1662,-10.43807 0.58564,-2.1749 2.37874,-5.19452 3.98468,-6.71026 1.60593,-1.51575 2.6493,-3.23244 2.3186,-3.81488 -0.33071,-0.58243 -0.25787,-0.7502 0.16186,-0.37282 0.41973,0.37739 1.89892,0.25434 3.28709,-0.27344 6.97332,-2.65125 9.90589,-2.7081 14.90154,-0.28885 5.73297,2.77631 5.36888,2.70026 5.36888,1.12139 0,-0.69011 2.48478,-3.61511 5.52173,-6.5 l 5.52174,-5.24525 h -3.02174 -3.02173 v -16.5 -16.5 h 14.92742 14.92742 l 2.07258,2.63486 c 2.47259,3.14339 2.85299,9.36514 0.57258,9.36514 -1.15152,0 -1.5,1.27777 -1.5,5.5 0,4.83333 0.24242,5.5 2,5.5 3.08566,0 2.36599,2.60576 -1.11827,4.04899 -3.48305,1.44272 -6.8723,6.24754 -6.878,9.75067 -0.0126,7.77082 9.45767,13.69969 16.15636,10.11466 1.64987,-0.88299 2.47539,-0.66594 4.42177,1.16258 3.02311,2.84007 1.93546,4.39113 -4.46027,6.36063 -2.54188,0.78274 -3.86065,1.45451 -2.93061,1.49282 0.93004,0.0383 1.9025,0.41189 2.16102,0.83018 0.25852,0.4183 -1.96492,0.73897 -4.94098,0.7126 -4.54771,-0.0403 -5.41102,0.23723 -5.41102,1.73946 0,1.62828 1.20189,1.78741 13.5,1.78741 h 13.5 v -10 c 0,-11.2206 -1.1814,-12.80583 -4.37921,-5.87614 l -1.87921,4.07227 -2.47869,-2.47869 c -2.32173,-2.32173 -2.39581,-2.70788 -1.1699,-6.09807 1.07393,-2.96989 1.07621,-4.26255 0.0127,-7.2036 -1.19233,-3.29733 -1.11535,-3.7766 0.96169,-5.98751 1.55974,-1.66027 2.62241,-2.10066 3.4372,-1.42445 0.64868,0.53836 1.43052,0.72774 1.73742,0.42084 0.30689,-0.30689 0.5321,0.0345 0.50045,0.75868 -0.14145,3.23704 0.33416,4.88734 1.24608,4.32375 0.56686,-0.35034 0.73451,0.0511 0.39301,0.94098 -0.32754,0.85356 -0.0974,1.55194 0.51146,1.55194 1.70065,0 1.55849,-102.89744 -0.14301,-103.5205 -0.6875,-0.25175 -3.275,0.21957 -5.75,1.04738 -2.475,0.82781 -3.2625,1.33531 -1.75,1.12778 1.5125,-0.20752 2.75,0.0103 2.75,0.48401 0,0.47373 -2.1375,0.80913 -4.75,0.74533 -2.6125,-0.0638 -3.87546,-0.33856 -2.80658,-0.61058 1.41769,-0.36078 0.60614,-0.95002 -3,-2.17817 -2.71888,-0.92598 -5.50592,-1.50308 -6.19342,-1.28244 -0.92352,0.29639 -1.25,4.16039 -1.25,14.79418 v 14.39301 h -7.78416 -7.78416 l -5.46584,5.55295 c -7.48876,7.60811 -11.98398,9.44705 -23.09296,9.44705 h -8.87288 v 16.58655 16.58655 l -6.15851,6.41345 -6.15851,6.41345 h -28.40135 -28.40136 l -5.28676,5 c -4.04462,3.82524 -6.02765,5 -8.44014,5 h -3.15337 v 7.5 7.5 h 2.9452 c 2.80414,0 2.95981,0.22751 3.25,4.75 l 0.3048,4.75 12.32842,0.28141 c 8.28142,0.18903 12.11918,-0.0572 11.69099,-0.75 -0.37506,-0.60686 -5.14102,-1.03141 -11.57843,-1.03141 h -10.94098 v -4 c 0,-3.77778 0.16666,-4 3,-4 h 3 v -7.19528 c 0,-6.44605 0.2798,-7.48734 2.68709,-10 l 2.68709,-2.80472 h 22.81291 22.81291 v 31.16041 31.16041 l -26.66043,-0.66642 c -26.53866,-0.66339 -26.65224,-0.65738 -24.86636,1.316 0.98675,1.09034 2.29644,1.6959 2.91043,1.34569 0.614,-0.35021 0.78276,-0.2685 0.37503,0.18157 -1.01424,1.11958 1.21312,3.63781 2.50914,2.83682 0.57266,-0.35393 0.76054,-0.18938 0.41751,0.36565 -0.70464,1.14014 3.59385,5.59631 4.63886,4.80901 0.3717,-0.28003 0.44983,-0.20816 0.17363,0.15971 -0.82055,1.09288 2.66147,4.33115 4.65717,4.33115 1.44192,0 1.84502,-0.76467 1.84502,-3.5 z m 49.75,-19.16228 c 0.6875,-0.27742 1.8125,-0.27742 2.5,0 0.6875,0.27741 0.125,0.50438 -1.25,0.50438 -1.375,0 -1.9375,-0.22697 -1.25,-0.50438 z m 66.25,-23.72109 c 0,-0.88774 4.04568,-1.35173 4.55802,-0.52275 0.308,0.49836 -0.59155,0.90612 -1.99901,0.90612 -1.40746,0 -2.55901,-0.17252 -2.55901,-0.38337 z m 6.39732,-3.1164 c 1.04353,-0.78989 2.36366,-1.14796 2.93362,-0.7957 0.59803,0.3696 0.21853,0.96071 -0.89732,1.39768 -3.12661,1.22439 -4.07769,0.94323 -2.0363,-0.60198 z m -6.64732,-25.58033 c -2.14098,-1.247 -2.31145,-3.9199 -0.25,-3.9199 1.15151,0 1.5,-1.27778 1.5,-5.5 0,-4.22223 -0.34849,-5.5 -1.5,-5.5 -1.04762,0 -1.5,-1.05556 -1.5,-3.5 v -3.5 h 5.5 5.5 v 8.30383 c 0,8.08019 -0.0888,8.38991 -3.29761,11.5 -3.68625,3.57285 -3.54032,3.52097 -5.95239,2.11607 z m -38.9375,-53.60302 c 0.72187,-0.28887 1.58437,-0.25334 1.91666,0.0789 0.33229,0.33229 -0.25833,0.56864 -1.3125,0.52522 -1.16494,-0.048 -1.4019,-0.28494 -0.60416,-0.60417 z m 37.6875,-40.31688 c -0.33992,-0.55 -0.14148,-1 0.44098,-1 0.58246,0 1.05902,0.45 1.05902,1 0,0.55 -0.19845,1 -0.44099,1 -0.24254,0 -0.7191,-0.45 -1.05901,-1 z m 14.3125,-1.68312 c 0.72187,-0.28887 1.58437,-0.25334 1.91666,0.0789 0.33229,0.33229 -0.25833,0.56864 -1.3125,0.52522 -1.16494,-0.048 -1.4019,-0.28494 -0.60416,-0.60417 z m -311.5625,152.72906 c 3.76903,-4.21791 3.7093,-8.94077 -0.16797,-13.28019 -2.58168,-2.88939 -3.51313,-3.26577 -8.08203,-3.26577 -4.5689,0 -5.50035,0.37638 -8.08203,3.26577 -4.79256,5.36381 -3.05908,13.50902 3.47015,16.30533 3.96205,1.69685 9.88785,0.30309 12.86188,-3.02514 z m -7.30907,-4.93558 c 0.82148,-1.53496 0.62062,-1.99178 -1.07018,-2.43393 -2.41628,-0.63187 -2.03132,-3.01627 0.56834,-3.52023 3.02526,-0.58648 3.8815,1.32315 2.12033,4.72887 -0.88593,1.7132 -1.84006,3.11491 -2.12028,3.11491 -0.28023,0 -0.0544,-0.85033 0.50179,-1.88962 z m 2.05907,-4.11038 c 0,-0.55 -0.9,-1 -2,-1 -1.1,0 -2,0.45 -2,1 0,0.55 0.9,1 2,1 1.1,0 2,-0.45 2,-1 z m 213,-5 v -9 l -5.75,0.005 c -3.1625,0.003 -10.1375,0.29572 -15.5,0.65082 l -9.75,0.64565 v 7.34918 7.34918 h 6.5 c 3.66666,0 6.5,0.43589 6.5,1 0,0.59259 3.66666,1 9,1 h 9 z m -6.43571,1.70687 c 0.37553,-0.98622 0.93469,-1.54122 1.24258,-1.23333 0.30789,0.30788 6.3e-4,1.11479 -0.68279,1.79312 -0.98761,0.98027 -1.10248,0.86541 -0.55979,-0.55979 z m -2.06429,-4.70687 c -1.75921,-0.75596 -1.66181,-0.86789 0.80901,-0.92972 1.63222,-0.0408 2.5501,0.34865 2.19099,0.92972 -0.33992,0.55 -0.70398,0.96837 -0.80902,0.92971 -0.10504,-0.0387 -1.09098,-0.45703 -2.19098,-0.92971 z m -32.5,2.5 v -7.5 h -5.78416 c -5.66225,0 -5.89185,-0.11066 -10.89347,-5.25 -2.81012,-2.8875 -5.83987,-6.70489 -6.73277,-8.48308 -1.71456,-3.4145 -6.07932,-6.26692 -9.5896,-6.26692 -5.52855,0 -11,5.72015 -11,11.5 0,5.77984 5.47145,11.5 11,11.5 2.82165,0 7.6695,-2.59064 8.88861,-4.74998 0.8836,-1.56509 1.41724,-1.33229 5.0497,2.20292 3.74022,3.6401 4.06169,4.37219 4.06169,9.25 v 5.29706 h 7.5 7.5 z m 109.03273,-8.01693 c 3.26708,-1.68947 5.96727,-6.1212 5.96727,-9.79387 0,-1.32556 -1.125,-4.06789 -2.5,-6.09407 -2.17911,-3.21108 -2.5,-4.7693 -2.5,-12.13954 v -8.45559 h 3 c 1.65,0 3,-0.45 3,-1 0,-0.55 0.9,-1 2,-1 1.75757,0 2,-0.66667 2,-5.5 0,-4.83334 -0.24243,-5.5 -2,-5.5 -1.46667,0 -2,-0.66667 -2,-2.5 0,-2.48148 -0.0667,-2.5 -9,-2.5 h -9 v 9 9 h 3.5 3.5 v 8 c 0,7.39794 -0.15426,8 -2.04966,8 -5.25268,0 -10.95034,5.7235 -10.95034,11 0,8.11898 9.47228,13.39273 17.03273,9.48307 z m -3.37823,-48.73307 c 0.25494,-0.4125 1.33697,-0.75 2.40451,-0.75 1.06754,0 1.94099,0.3375 1.94099,0.75 0,0.4125 -1.08203,0.75 -2.40451,0.75 -1.32248,0 -2.19592,-0.3375 -1.94099,-0.75 z m -272.4045,41.29596 c 3.76903,-4.21791 3.7093,-8.94077 -0.16797,-13.28019 -2.58168,-2.88939 -3.51313,-3.26577 -8.08203,-3.26577 -4.5689,0 -5.50035,0.37638 -8.08203,3.26577 -4.79256,5.36381 -3.05908,13.50902 3.47015,16.30533 3.96205,1.69685 9.88785,0.30309 12.86188,-3.02514 z m -7.90933,-5.29596 c 0.36263,-0.9625 0.91874,-2.3892 1.23579,-3.17043 0.37851,-0.93268 -0.22241,-1.57268 -1.75,-1.86382 -1.76174,-0.33576 -1.53133,-0.47645 0.94922,-0.57957 l 3.27568,-0.13618 -1.65286,3.25 c -1.88222,3.701 -3.04046,5.10811 -2.05783,2.5 z m 37.89523,5.31174 2.73591,-3.06174 h 13.51409 c 11.34586,0 13.5141,0.24066 13.5141,1.5 0,1.17948 1.38888,1.5 6.5,1.5 h 6.5 l 0.0189,-6.25 0.0189,-6.25 6.07733,-6.25 6.07732,-6.25 h 16.68267 16.68266 l 6.44223,-6.5 6.44222,-6.5 h 45.57594 45.57594 l 3.66178,-3.75 c 2.01398,-2.0625 3.6803,-4.0875 3.70295,-4.5 0.0226,-0.4125 0.0409,-10.0875 0.0405,-21.5 l -6.6e-4,-20.75 13.75066,0.31864 13.75066,0.31865 7.47497,-7.56865 c 7.43051,-7.52362 7.50635,-7.56864 12.75,-7.56864 h 5.27503 v -9 -9 l -3.25,-0.0266 -3.25,-0.0266 2.62719,-1.6305 c 7.67081,-4.76067 7.58304,-15.10267 -0.16703,-19.68074 -5.32136,-3.14341 -11.99991,-1.22399 -15.32462,4.40429 -3.10275,5.25254 -1.27053,11.8582 4.23726,15.27645 l 2.6272,1.6305 -2.75,0.0266 -2.75,0.0266 v 8.71855 8.71856 l -5.21584,5.28144 -5.21584,5.28145 h -23.28416 -23.28416 v -3.5 -3.5 h -9 -9 v 9 9 h 9 9 v -3 c 0,-2.99291 0.0139,-3 5.875,-3 3.23125,0 7.28125,-0.28125 9,-0.625 l 3.125,-0.625 v 20.82028 20.82028 l -2.6871,2.80472 -2.68709,2.80472 H 673.74733 627.9002 l -6.08043,6.5 -6.08044,6.5 h -17.91672 c -16.16568,0 -17.97605,0.17103 -18.52366,1.75 -0.33381,0.9625 -3.34418,4.5625 -6.68973,8 -5.34403,5.49093 -6.54175,6.25 -9.86169,6.25 -3.36414,0 -3.77888,0.27438 -3.77888,2.5 v 2.5 h -13.43261 c -12.16985,0 -13.48757,-0.17315 -14.01719,-1.84184 -1.29004,-4.06455 -5.46308,-6.65816 -10.71279,-6.65816 -4.3853,0 -5.36095,0.40233 -7.91944,3.26577 -4.79256,5.36381 -3.05908,13.50902 3.47015,16.30533 3.95327,1.69309 9.88793,0.30301 12.84778,-3.00936 z m -10.15695,-9.37817 c -0.0607,-1.39551 0.54042,-1.74309 2.59393,-1.5 1.47009,0.17404 2.78634,0.89018 2.925,1.59143 0.13867,0.70125 0.0234,0.81375 -0.25621,0.25 -0.71444,-1.44059 -4.07246,-1.27913 -4.67939,0.225 -0.29156,0.72257 -0.5377,0.48357 -0.58333,-0.56643 z m 179.42105,-84.68357 c 0.33991,-0.55 0.81647,-1 1.05901,-1 0.24254,0 0.44099,0.45 0.44099,1 0,0.55 -0.47656,1 -1.05902,1 -0.58246,0 -0.7809,-0.45 -0.44098,-1 z m 93.63671,95.21223 c -0.72144,-0.24048 -1.78716,0.0382 -2.36826,0.61932 -0.74207,0.74206 -0.35164,0.87221 1.31171,0.43723 1.3522,-0.35361 1.80549,-0.8069 1.05655,-1.05655 z m -85.13671,-18.21223 v -9 h -9 c -5.33334,0 -9,0.4074 -9,1 0,0.5641 -2.83334,1 -6.5,1 h -6.5 v 7.45431 7.45431 l 6.75,0.34983 c 3.7125,0.1924 10.6875,0.43796 15.5,0.54569 l 8.75,0.19586 z m -8.5,-3 c 0.33991,-0.55 0.81647,-1 1.05901,-1 0.24254,0 0.44099,0.45 0.44099,1 0,0.55 -0.47656,1 -1.05902,1 -0.58246,0 -0.7809,-0.45 -0.44098,-1 z m -142.5,-8.5 v -4.5 l 9.25,-0.10879 c 5.0875,-0.0598 16.7875,-0.0724 26,-0.0279 l 16.75,0.0809 v -6.47215 -6.47214 h -3 c -2.76191,0 -3,-0.27778 -3,-3.5 v -3.5 h 6.94774 6.94774 l 0.30226,5.25 0.30226,5.25 3.25,-3.17308 c 1.7875,-1.74519 3.25,-2.89269 3.25,-2.55 0,0.34269 0.54,0.0831 1.2,-0.57692 0.74056,-0.74057 4.37777,-1.2 9.5,-1.2 h 8.3 V 268.2482 256.78713 l 8.75,-0.28893 c 6.34769,-0.20961 8.68136,-0.63212 8.5,-1.53893 -0.1375,-0.6875 0.3125,-1.1375 1,-1 0.96748,0.19349 1.25,-4.38334 1.25,-20.25 v -20.5 l -5.34076,-0.1177 c -6.44979,-0.14215 -13.63584,1.74111 -12.18391,3.19304 0.66146,0.66145 0.32068,0.99609 -1.01438,0.99609 -1.141,0 -1.81342,-0.51352 -1.55483,-1.18739 0.41418,-1.07933 -3.57124,-2.42637 -8.68777,-2.93641 -0.97991,-0.0977 -2.10491,-0.53505 -2.5,-0.97194 -0.3951,-0.4369 0.12426,-0.49063 1.15411,-0.11941 1.19223,0.42974 0.73232,-0.39012 -1.26599,-2.25682 -3.81657,-3.56521 -6.10721,-8.75019 -6.10429,-13.81734 l 0.002,-3.78212 -10.00217,0.31641 c -9.84286,0.31137 -10.00218,0.35518 -10.00218,2.75 v 2.43359 h -19 -19 v -4.5 c 0,-3.83334 0.29629,-4.5 2,-4.5 1.82222,0 2,-0.66667 2,-7.5 v -7.5 h -5.7024 c -5.05927,0 -6.07429,-0.36047 -9,-3.19617 -5.25001,-5.08851 -4.53338,-6.41016 3.85719,-7.11359 3.93514,-0.32991 7.62514,-1.07018 8.2,-1.64504 1.7913,-1.7913 2.64521,-1.16026 2.64521,1.9548 0,2.83826 0.21779,3 4.03985,3 h 4.03985 l -0.14862,-10.86919 c -0.11759,-8.59995 0.1959,-11.39498 1.50154,-13.38764 1.30233,-1.9876 1.62247,-4.80807 1.51881,-13.38081 -0.12674,-10.48125 0.75441,-15.44449 2.98688,-16.82424 0.65646,-0.40571 1.06169,0.45995 1.06169,2.268 0,1.60829 0.9,4.06832 2,5.46675 1.72432,2.19212 2,4.05678 2,13.52787 0,8.8422 -0.29263,11.09757 -1.5,11.56088 -1.23472,0.47381 -1.5,3.05714 -1.5,14.60699 v 14.03139 h -2.5 c -2.44445,0 -2.5,0.16666 -2.5,7.5 v 7.5 h 7 c 6.8,0 7,-0.0714 7,-2.5 v -2.5 H 610.46 c 14.40852,0 15.57885,-0.13982 16.74055,-2 1.17805,-1.88636 2.33203,-2 20.30847,-2 13.49069,0 19.41007,0.35061 20.25946,1.2 0.89067,0.89067 1.2,10.8672 1.2,38.70239 v 37.50239 l -3.19617,3.29761 c -2.99869,3.09386 -3.61656,3.29761 -10,3.29761 h -6.80383 v 7.5 7.5 h 7.5 7.5 v -5.2918 c 0,-4.94282 0.29376,-5.58009 4.45466,-9.6637 l 4.45465,-4.37192 0.0673,-37.51029 c 0.0462,-25.72696 0.413,-37.92684 1.16778,-38.83629 0.84573,-1.01904 5.65086,-1.326 20.75693,-1.326 h 19.65644 l 6.44223,6.5 6.44222,6.5 h 11.55097 11.55096 l 8.45585,-8.5 8.45584,-8.5 h 10.08499 c 9.70539,0 10.18452,0.10389 12.72935,2.76012 1.92122,2.00532 2.38677,3.16754 1.7024,4.25 -3.70738,5.86389 2.64273,15.98988 10.02742,15.98988 5.52855,0 11,-5.72016 11,-11.5 0,-7.8636 -8.73006,-13.85558 -15.16748,-10.41038 -1.69799,0.90875 -2.52753,0.61823 -4.99694,-1.75 -2.87763,-2.75971 -3.30821,-2.8489 -15.29947,-3.16908 l -12.33851,-0.32945 -8.23662,8.57945 -8.23662,8.57946 h -9.53212 -9.53212 l -6.76816,-6.53411 -6.76816,-6.5341 -22.49518,0.10499 c -14.27964,0.0667 -23.22596,-0.2861 -24.49616,-0.96589 -1.24034,-0.66381 -9.99537,-1.07089 -23.03154,-1.07089 -20.0071,0 -21.08265,0.0973 -22.10092,2 -0.99193,1.85342 -2.09383,2 -15.03519,2 h -13.96481 v -3 c 0,-2.53334 -0.38889,-3 -2.5,-3 h -2.5 v -12.13968 c 0,-10.38894 0.25238,-12.33135 1.75,-13.4682 2.05484,-1.55985 7.25,-1.84078 7.25,-0.39204 0,0.60869 4.5,1 11.5,1 h 11.5 v -4.5 -4.5 h -11.5 c -9.55556,0 -11.5,0.25362 -11.5,1.5 0,1 -1,1.5 -3,1.5 h -3 v -9 -9 h 3 c 2.88888,0 3,0.16666 3,4.5 v 4.5 h 11.5 11.5 v -4.5 -4.5 h -11.5348 -11.5348 l 3.41681,-3 c 3.19628,-2.80637 3.94078,-3 11.5348,-3 4.74532,0 8.11799,-0.41546 8.11799,-1 0,-0.55 1.48672,-1 3.30383,-1 2.46298,0 4.16721,0.89077 6.69617,3.5 3.30626,3.4112 3.59032,3.5 11.19616,3.5 h 7.80384 v 3 3 h 7.5 7.5 v -7.5 -7.5 h -7.5 c -7.33334,0 -7.5,0.0555 -7.5,2.5 0,2.41524 -0.22475,2.5 -6.6288,2.5 -6.17119,0 -6.89625,-0.24162 -10.50288,-3.5 -3.06617,-2.7701 -4.70766,-3.5 -7.8712,-3.5 -2.88633,0 -3.99712,-0.41685 -3.99712,-1.5 0,-0.83334 -0.88889,-1.5 -2,-1.5 -1.77778,0 -2,-0.66667 -2,-6 0,-5.733343 0.11111,-6.000003 2.5,-6.000003 2.42857,0 2.5,-0.2 2.5,-7.000003 v -7 h -7 -7 v 7 c 0,6.800003 0.0714,7.000003 2.5,7.000003 2.38888,0 2.5,0.26666 2.5,6.000003 v 6 h -4.11799 c -3.14958,0 -4.9215,-0.7055 -7.5348,-3 -3.4707,-3.04732 -8.30283,-3.94746 -11.23207,-2.09233 -0.85631,0.54232 0.31425,0.68554 3.06702,0.37526 3.76721,-0.42462 4.90294,-0.10534 7.38485,2.07604 l 2.93299,2.57782 -2.75,0.0316 c -1.76374,0.0203 -2.75,0.56956 -2.75,1.5316 0,0.89588 -0.92067,1.5 -2.286,1.5 -1.49544,0 -3.37049,1.41103 -5.42191,4.08017 -2.95607,3.84619 -3.19773,3.96466 -4.214,2.06575 -1.54449,-2.88591 -1.32957,-7.34187 0.47861,-9.92342 l 1.5567,-2.2225 h -6.51289 -6.51289 l -0.29381,-7.250003 -0.29381,-7.250003 -5.5,-0.651103 c -3.025,-0.358107 -13.45298,-0.695607 -23.17328,-0.75 -17.44395,-0.09761 -17.71169,-0.06657 -20.63446,2.392779 -2.58007,2.170984 -3.12052,2.299687 -4.19917,1 -0.68089,-0.820422 -1.72076,-1.491676 -2.31082,-1.491676 -1.79588,0 -6.68227,5.255533 -6.68227,7.187093 0,1.481963 -0.82147,1.812913 -4.5,1.812913 -3.67853,0 -4.5,-0.33095 -4.5,-1.812913 0,-1.87484 -4.88525,-7.209551 -6.55472,-7.15778 -0.5199,0.01612 -2.40778,1.359779 -4.19528,2.9859 -2.97866,2.70975 -3.25,3.4587 -3.25,8.970693 v 6.0141 h 7 c 6.33333,0 7,-0.19048 7,-2 0,-1.70371 0.66667,-2 4.5,-2 3.83333,0 4.5,0.29629 4.5,2 0,1.79487 0.66667,2 6.5,2 h 6.5 v -4.81291 c 0,-3.96784 0.49247,-5.28472 2.80472,-7.500003 3.7937,-3.634595 5.19528,-3.415288 5.19528,0.81291 0,3.319173 0.17707,3.500003 3.4272,3.500003 2.71087,0 4.03982,-0.74323 6.35827,-3.555913 2.73299,-3.31559 3.27776,-3.54008 8.06128,-3.32181 2.82161,0.12875 4.94065,0.42365 4.70896,0.65533 -0.23168,0.23169 0.91402,1.7265 2.546,3.32182 2.26519,2.214293 3.90549,2.900573 6.93276,2.900573 h 3.96553 v 24.20239 24.20239 l -3.19617,3.29761 c -3.49833,3.60936 -4.80383,4.09788 -4.80383,1.79761 0,-1.24243 -1.88889,-1.5 -11,-1.5 h -10.99982 v 4.5 4.5 h 4 c 3.71328,0 4,0.20049 4,2.79705 0,1.94558 1.21767,3.98608 4,6.70295 5.29913,5.17446 5.31695,7.5 0.0575,7.5 -3.92333,0 -3.94399,-0.0207 -4.25,-4.25 l -0.30749,-4.25 -6.25,-0.29772 -6.25,-0.29772 v 6.54772 c 0,4.46323 -0.38597,6.54772 -1.21241,6.54772 -0.66682,0 0.98385,2.22978 3.66817,4.95508 2.68432,2.7253 5.3674,4.67815 5.96241,4.33968 0.59501,-0.33848 0.73803,-0.23697 0.31783,0.22558 -0.4202,0.46254 0.45149,2.10969 1.93709,3.66032 2.40422,2.50947 3.39493,2.81934 9.014,2.81934 h 6.31291 v 3.32568 c 0,2.25443 0.80528,4.08222 2.5,5.67432 2.05971,1.935 2.5,3.28655 2.5,7.67431 0,5.25076 0.0422,5.32569 3,5.32569 2.83333,0 3,0.22222 3,4 0,3.77777 -0.16667,4 -3,4 h -3 v 7 7 h 3 c 2.96735,0 3,0.0595 3,5.46481 0,4.43189 -0.37608,5.66609 -1.98965,6.52965 -2.3509,1.25816 -5.01035,6.03823 -5.01035,9.00554 0,6.34228 6.46839,11.6029 13.16274,10.70499 l 3.83726,-0.51468 v 3.90484 c 0,3.4985 -0.26016,3.90485 -2.5,3.90485 -1.375,0 -2.5,0.45 -2.5,1 0,0.55 -0.675,1 -1.5,1 -0.825,0 -1.5,-0.45 -1.5,-1 0,-0.57143 -3,-1 -7,-1 h -7 v 3.86407 c 0,3.83883 -0.0303,3.86823 -4.63958,4.5 -2.55176,0.34976 -6.37676,0.63593 -8.5,0.63593 h -3.86042 v 6.5 6.5 h 6.5 6.5 z m 34,-16.5 c 0,-0.55 -0.63503,-1 -1.41118,-1 -1.77094,0 -2.60541,-11.17174 -1.13909,-15.25 0.69288,-1.92713 0.62415,-3.71593 -0.22971,-5.97806 -1.11609,-2.95686 -1.00384,-3.43993 1.33624,-5.75 2.37999,-2.34948 2.64315,-2.40333 3.84809,-0.78749 0.71137,0.95395 1.65855,1.40395 2.10485,1 0.44629,-0.40395 0.49247,-0.17961 0.10262,0.49854 -0.86414,1.50315 0.31745,8.42875 1.33116,7.80225 0.39802,-0.246 0.72368,0.18814 0.72368,0.96476 0,0.77661 -0.32186,1.2131 -0.71524,0.96998 -0.86872,-0.5369 -3.04067,7.5766 -2.33421,8.71967 0.27545,0.44569 1.82426,0.81035 3.4418,0.81035 2.69446,0 2.94099,0.29338 2.94099,3.5 0,3.06666 -0.30953,3.5 -2.5,3.5 -1.375,0 -2.5,0.45 -2.5,1 0,0.55 -1.125,1 -2.5,1 -1.375,0 -2.5,-0.45 -2.5,-1 z m 5,-14 c 0,-0.55 0.47655,-1 1.05901,-1 0.58246,0 0.7809,0.45 0.44099,1 -0.33992,0.55 -0.81648,1 -1.05902,1 -0.24254,0 -0.44098,-0.45 -0.44098,-1 z m 0.5427,-8.9309 c -0.31643,-0.512 -0.19299,-1.16721 0.27432,-1.45602 0.4673,-0.28881 0.84964,0.1301 0.84964,0.93091 0,1.68616 -0.31533,1.83349 -1.12396,0.52511 z m -15.7927,-6.36853 c -2.46791,-0.97519 -2.75,-1.57976 -2.75,-5.89361 0,-4.1403 0.27737,-4.80696 2,-4.80696 1.55555,0 2,-0.66667 2,-3 0,-2.83334 0.22222,-3 4,-3 h 4 v 6.82568 c 0,5.84184 -0.33361,7.13909 -2.31446,9 -2.5529,2.39833 -2.95261,2.44875 -6.93554,0.87489 z m 1.25,-21.70057 c 0,-2.33334 -0.44445,-3 -2,-3 -1.66667,0 -2,-0.66667 -2,-4 0,-3.33334 0.33333,-4 2,-4 1.55555,0 2,-0.66667 2,-3 0,-2.83334 0.22222,-3 4,-3 h 4 v 10 10 h -4 c -3.77778,0 -4,-0.16667 -4,-3 z m 54.8125,-18.68312 c 0.72187,-0.28887 1.58437,-0.25334 1.91666,0.0789 0.33229,0.33229 -0.25833,0.56864 -1.3125,0.52522 -1.16494,-0.048 -1.4019,-0.28494 -0.60416,-0.60417 z m 12.45653,-0.01 c 0.97297,-0.25355 2.32297,-0.23687 3,0.037 0.67703,0.27392 -0.11903,0.48137 -1.76903,0.46099 -1.65,-0.0204 -2.20394,-0.2445 -1.23097,-0.49804 z m -67.26903,-3.80701 c 0,-3.22223 -0.2381,-3.5 -3,-3.5 -2.76191,0 -3,-0.27778 -3,-3.5 v -3.5 h 7 7 v 7 7 h -4 c -3.90477,0 -4,-0.0833 -4,-3.5 z m -13.34502,-5.32874 c -2.83957,-3.1377 -2.11403,-5.17126 1.84502,-5.17126 3.33333,0 3.5,0.16666 3.5,3.5 0,2.73533 -0.4031,3.5 -1.84502,3.5 -1.01475,0 -2.58975,-0.82294 -3.5,-1.82874 z m -19.65498,-15.67126 v -7.5 h 4 c 3.77777,0 4,0.16666 4,3 0,2.53333 0.38888,3 2.5,3 2.29629,0 2.5,0.36666 2.5,4.5 v 4.5 h -6.5 -6.5 z m 45.0316,-67.25 c 0.0702,-1.66495 5.31528,-6.70935 5.71851,-5.49966 0.2291,0.68731 1.61655,1.26388 3.08322,1.28126 l 2.66667,0.0316 -2.80577,2.4684 c -2.60099,2.28824 -8.73794,3.50563 -8.66263,1.7184 z m -93.7816,176.79609 c 3.76903,-4.21791 3.7093,-8.94077 -0.16797,-13.28019 -2.58168,-2.88939 -3.51313,-3.26577 -8.08203,-3.26577 -4.5689,0 -5.50035,0.37638 -8.08203,3.26577 -4.79256,5.36381 -3.05908,13.50902 3.47015,16.30533 3.96205,1.69685 9.88785,0.30309 12.86188,-3.02514 z m -7.44154,-3.75936 c 2.96189,-0.56587 2.53287,-3.66366 -0.56868,-4.10615 -3.64767,-0.52042 -2.76382,-3.19953 1.01022,-3.06214 l 3.25,0.11832 -3,0.76337 c -2.31865,0.58999 -2.50429,0.79024 -0.81739,0.88168 2.22917,0.12084 3.96466,3.262 2.82292,5.10937 -0.34296,0.55492 -1.60951,0.94766 -2.81455,0.87276 -2.12899,-0.13232 -2.12566,-0.14866 0.11748,-0.57721 z m 36.40717,5.04814 c 1.13322,-1.00911 2.63644,-3.18474 3.34048,-4.83474 0.70404,-1.65 2.66694,-4.32169 4.36198,-5.93709 2.48498,-2.36821 3.08191,-3.74875 3.08191,-7.12756 0,-5.77056 1.58581,-6.8011 10.04348,-6.52679 l 6.95652,0.22563 v -6.76238 c 0,-5.97624 -0.31238,-7.08843 -2.6871,-9.56709 -1.4779,-1.5426 -3.1937,-2.80472 -3.8129,-2.80472 -1.91538,0 -6.5,5.49035 -6.5,7.78412 0,1.29623 -1.81776,3.85024 -4.5,6.32264 -3.90765,3.60195 -4.5,4.68027 -4.5,8.19186 0,2.37327 -0.68951,4.8058 -1.66903,5.88815 -1.61664,1.78637 -1.74473,1.77314 -4.08056,-0.42126 -1.84214,-1.73059 -3.59245,-2.26551 -7.413,-2.26551 -4.3853,0 -5.36095,0.40233 -7.91944,3.26577 -4.79256,5.36381 -3.05908,13.50902 3.47015,16.30533 3.07789,1.31819 9.44738,0.3831 11.82751,-1.73636 z m -7.65134,-10.62787 c 0.37553,-0.98622 0.9347,-1.54122 1.24258,-1.23333 0.30789,0.30788 6.4e-4,1.11479 -0.68278,1.79312 -0.98762,0.98027 -1.10248,0.86541 -0.5598,-0.55979 z m 186.43571,-19.70687 v -9 h -9 c -5.33334,0 -9,0.4074 -9,1 0,0.57777 -3.16667,1 -7.5,1 h -7.5 v 7.45793 7.45794 l 7.75,0.34082 c 4.2625,0.18745 11.6875,0.43138 16.5,0.54206 l 8.75,0.20125 z m -6.43571,1.70687 c 0.37553,-0.98622 0.93469,-1.54122 1.24258,-1.23333 0.30789,0.30788 6.3e-4,1.11479 -0.68279,1.79312 -0.98761,0.98027 -1.10248,0.86541 -0.55979,-0.55979 z m -2.06429,-4.70687 c -1.75921,-0.75596 -1.66181,-0.86789 0.80901,-0.92972 1.63222,-0.0408 2.5501,0.34865 2.19099,0.92972 -0.33992,0.55 -0.70398,0.96837 -0.80902,0.92971 -0.10504,-0.0387 -1.09098,-0.45703 -2.19098,-0.92971 z m -50,-62 c 2.29771,-1.52172 4.69718,-1.98837 10.25,-1.99341 l 7.25,-0.007 v -7.5 -7.5 l -7.25,-0.007 c -5.55282,-0.005 -7.95229,-0.4717 -10.25,-1.99341 -9.64529,-6.38782 -21.74827,4.99968 -15.8772,14.9386 3.48562,5.90069 10.42114,7.6748 15.8772,4.0614 z m 58.5,-9 v -9 l -5.75,0.005 c -3.1625,0.003 -10.1375,0.29572 -15.5,0.65082 l -9.75,0.64565 v 7.34918 7.34918 h 6.5 c 3.66666,0 6.5,0.43589 6.5,1 0,0.59259 3.66666,1 9,1 h 9 z m -6.43571,1.70687 c 0.37553,-0.98622 0.93469,-1.54122 1.24258,-1.23333 0.30789,0.30788 6.3e-4,1.11479 -0.68279,1.79312 -0.98761,0.98027 -1.10248,0.86541 -0.55979,-0.55979 z m -2.06429,-4.70687 c -1.75921,-0.75596 -1.66181,-0.86789 0.80901,-0.92972 1.63222,-0.0408 2.5501,0.34865 2.19099,0.92972 -0.33992,0.55 -0.70398,0.96837 -0.80902,0.92971 -0.10504,-0.0387 -1.09098,-0.45703 -2.19098,-0.92971 z m 8.5,-30 v -9 h -9 c -5.33334,0 -9,0.4074 -9,1 0,0.5641 -2.83334,1 -6.5,1 h -6.5 v 7 7 h 6.5 c 3.66666,0 6.5,0.43589 6.5,1 0,0.59259 3.66666,1 9,1 h 9 z m -8.5,-3 c 0.33991,-0.55 0.81647,-1 1.05901,-1 0.24254,0 0.44099,0.45 0.44099,1 0,0.55 -0.47656,1 -1.05902,1 -0.58246,0 -0.7809,-0.45 -0.44098,-1 z m 22.05251,8.52786 c -0.14925,-1.35968 0.0674,-2.26279 0.48138,-2.00691 0.80703,0.49877 2.45813,-4.35817 2.04681,-6.02095 -0.13605,-0.55 0.0555,-0.69715 0.42563,-0.327 0.37016,0.37015 2.0494,-0.64235 3.73165,-2.25 1.68225,-1.60765 3.46846,-2.923 3.96935,-2.923 0.50088,0 0.68152,-0.37083 0.4014,-0.82406 -0.28011,-0.45323 0.25583,-0.82301 1.19099,-0.82172 0.93515,0.001 2.91481,-0.0779 4.39925,-0.17594 2.66973,-0.17635 2.68364,-0.21498 1.28402,-3.56474 -1.30824,-3.13105 -2.67507,-13.13895 -1.65516,-12.11905 0.2477,0.24771 1.35299,-1.374 2.4562,-3.60379 2.98142,-6.02597 8.69008,-9.41598 15.64119,-9.28831 3.06613,0.0563 7.71228,0.45234 10.32478,0.88006 3.32321,0.54406 4.75,0.43821 4.75,-0.3524 0,-0.65006 1.68407,-1.13005 3.96481,-1.13005 2.93449,0 4.24153,0.51704 5.02965,1.98965 1.50061,2.80392 6.74524,5.27555 10.13782,4.77762 2.7307,-0.40078 2.86772,-0.23804 2.86772,3.40592 0,3.16014 -0.34842,3.82681 -2,3.82681 -1.75758,0 -2,0.66666 -2,5.5 v 5.5 h 5.5 5.5 v -5.5 c 0,-3.025 -0.45,-5.5 -1,-5.5 -1.40198,0 -1.24973,-10.66741 0.20986,-14.70383 0.89749,-2.48195 0.92735,-4.09431 0.11566,-6.24472 -0.97775,-2.59035 -0.79674,-3.18388 1.70066,-5.57654 l 2.79487,-2.67765 1.71394,2.61579 c 2.31349,3.53084 2.97497,10.5117 1.4375,15.1703 -0.93305,2.82716 -0.96339,3.91968 -0.11669,4.20191 0.76635,0.25546 1.1442,4.00935 1.1442,11.36762 0,10.82113 0.0338,10.98142 2.25,10.66667 l 2.25,-0.31955 0.25935,-50.44274 0.25936,-50.442744 -3.16781,-3.268349 c -1.74229,-1.797592 -3.659,-2.988714 -4.25936,-2.646936 -0.60035,0.341777 -0.74993,0.245151 -0.3324,-0.214725 1.00632,-1.108377 -3.26154,-5.601066 -4.55901,-4.799183 -0.557,0.344245 -0.70335,0.128891 -0.32663,-0.480647 0.92164,-1.491259 -2.51634,-3.204682 -6.43021,-3.204682 -2.86881,0 -3.0507,0.169492 -1.81574,1.691958 0.75485,0.930577 0.85191,1.379956 0.2157,0.99862 -0.77439,-0.464161 -0.98471,-0.03552 -0.63631,1.296795 0.28624,1.094572 0.83357,1.796604 1.21629,1.56007 0.38272,-0.236534 0.3685,2.346268 -0.0316,5.73956 -0.4001,3.393292 -0.46987,6.586409 -0.15504,7.095817 0.31483,0.509408 0.10005,0.634253 -0.4773,0.277432 -0.57735,-0.356821 -1.30775,0.02365 -1.62312,0.845491 -0.3669,0.956109 0.0455,1.522689 1.14521,1.573204 1.0432,0.04792 1.22736,0.277173 0.46862,0.583334 -0.90945,0.366971 -1.25,4.023391 -1.25,13.421052 V 85.709344 H 773.532 757.09536 l -0.31336,-3.25 -0.31335,-3.25 -8.91543,-0.291346 c -6.45021,-0.210785 -9.13533,0.06446 -9.71069,0.995401 -0.54442,0.880896 -3.40978,1.288198 -9.08457,1.291346 -6.34947,0.0035 -8.22501,0.314516 -8.01454,1.328929 0.15113,0.728381 -0.13715,1.069745 -0.64061,0.758586 -0.50347,-0.311159 -1.63962,0.53956 -2.52478,1.890487 -1.37507,2.098627 -1.60938,6.246704 -1.60938,28.491413 v 26.03519 h -16.94099 c -10.2153,0 -17.18634,-0.39701 -17.55901,-1 -0.37574,-0.60795 -7.82054,-1 -18.98947,-1 -18.26838,0 -18.37322,-0.0126 -18.69098,-2.24105 -0.31634,-2.21852 -1.49524,-2.63345 -11.31955,-3.98401 -1.92855,-0.26512 -2.00974,0.3771 -2.27256,17.97506 l -0.27256,18.25 h 6.52256 c 5.13116,0 6.52256,-0.31998 6.52256,-1.5 0,-1.08334 1.11111,-1.5 4,-1.5 3.77777,0 4,0.16666 4,3 v 3 h 7 7 v -4.77889 c 0,-4.55627 0.30409,-5.08033 6.52791,-11.25 l 6.52792,-6.47111 18.97208,-0.34367 18.97209,-0.34368 v 11.65269 c 0,6.93719 0.37671,11.41987 0.9309,11.07736 0.51199,-0.31643 1.21355,-0.11799 1.55901,0.44098 1.1578,1.87335 2.33671,1.04125 2.0626,-1.45582 z m -77.55251,-13.52786 v -7 h 7 7 v 4 c 0,3.77777 -0.16667,4 -3,4 -2.66667,0 -3,0.33333 -3,3 0,2.83333 -0.22223,3 -4,3 h -4 z m 16,-3 v -4 h 5.20294 5.20295 l -3.90589,4 c -2.14825,2.2 -4.48957,4 -5.20295,4 -0.84656,0 -1.29705,-1.38928 -1.29705,-4 z m -25.1875,-19.68312 c 0.72187,-0.28887 1.58437,-0.25334 1.91666,0.0789 0.33229,0.33229 -0.25833,0.56864 -1.3125,0.52522 -1.16494,-0.048 -1.4019,-0.28494 -0.60416,-0.60417 z m 136.64681,-16.06688 c 0.37187,-1.5125 1.36741,-3.81802 2.2123,-5.12338 l 1.53617,-2.37338 2.45252,2.45252 c 2.17961,2.1796 2.3171,2.74972 1.23559,5.12338 -0.9763,2.14275 -1.89867,2.67086 -4.66482,2.67086 -3.25858,0 -3.41077,-0.151 -2.77176,-2.75 z m 22.54069,-5.78411 c -3.09086,-1.72472 -6.12602,-1.82123 -9.46284,-0.30087 -2.21788,1.01053 -2.89032,0.85183 -5.07103,-1.19683 -2.14444,-2.01461 -2.28692,-2.48898 -0.96907,-3.22649 0.84975,-0.47554 1.31538,-1.23616 1.03473,-1.69026 -0.28065,-0.4541 0.0474,-0.78363 0.72897,-0.7323 2.52295,0.19001 9.26317,-1.64365 9.97392,-2.71339 0.5245,-0.7894 0.73907,-0.77086 0.75,0.0648 0.008,0.6438 1.26162,1.44428 2.78487,1.77884 1.52325,0.33456 3.99628,1.41302 5.49561,2.39657 l 2.72606,1.78827 -2.74561,2.61335 c -2.51916,2.3978 -2.95181,2.49829 -5.24561,1.21832 z m -171,48.03411 v -4.5 h -11.5 -11.5 v 4.5 4.5 h 11.5 11.5 z m 138.22517,-6.62051 c 1.21138,-0.64831 6.24067,-1.04907 11.93426,-0.95097 6.30813,0.10869 9.84057,-0.20702 9.84057,-0.87949 0,-0.57697 0.9,-1.04903 2,-1.04903 1.75757,0 2,-0.66667 2,-5.5 0,-4.83334 -0.24243,-5.5 -2,-5.5 -1.47693,0 -2,-0.66667 -2,-2.54904 v -2.54904 l -9.84057,0.16955 c -5.69359,0.0981 -10.72288,-0.30265 -11.93426,-0.95096 -6.66651,-3.56781 -16.22517,2.25245 -16.22517,9.87949 0,7.64776 9.54055,13.45699 16.22517,9.87949 z m 11.42933,-13.12949 c 0.25494,-0.4125 1.33697,-0.75 2.40451,-0.75 1.06754,0 1.94099,0.3375 1.94099,0.75 0,0.4125 -1.08203,0.75 -2.40451,0.75 -1.32248,0 -2.19592,-0.3375 -1.94099,-0.75 z m -266.66161,7 c -0.004,-2.8875 -0.29398,-8.2875 -0.6446,-12 l -0.6375,-6.75 h -6.85539 -6.8554 v 12 12 h 7.5 7.5 z m 22,0 c -0.004,-2.8875 -0.29398,-8.2875 -0.6446,-12 l -0.6375,-6.75 h -6.21079 -6.21079 l -0.6375,6.75 c -0.35062,3.7125 -0.64069,9.1125 -0.6446,12 l -0.007,5.25 h 7.5 7.5 z m 35.00711,-2.25 v -4.5 h -11 -11 v 4.5 4.5 h 11 11 z m 0,-15 v -4.5 h -11 -11 v 4.5 4.5 h 11 11 z m 145,-7.5 v -9 h -9 c -5.33334,0 -9,0.4074 -9,1 0,0.5641 -2.83334,1 -6.5,1 h -6.5 v 7.45431 7.45431 l 6.75,0.34983 c 3.7125,0.1924 10.6875,0.43796 15.5,0.54569 l 8.75,0.19586 z m -6.43571,1.70687 c 0.37553,-0.98622 0.93469,-1.54122 1.24258,-1.23333 0.30789,0.30788 6.3e-4,1.11479 -0.68279,1.79312 -0.98761,0.98027 -1.10248,0.86541 -0.55979,-0.55979 z m -2.06429,-4.70687 c -1.75921,-0.75596 -1.66181,-0.86789 0.80901,-0.92972 1.63222,-0.0408 2.5501,0.34865 2.19099,0.92972 -0.33992,0.55 -0.70398,0.96837 -0.80902,0.92971 -0.10504,-0.0387 -1.09098,-0.45703 -2.19098,-0.92971 z m -136.5,-4.5 c 0,-3.49149 -0.36504,-4.5 -1.6288,-4.5 -0.89584,0 -3.42005,-1.61828 -5.60934,-3.59618 l -3.98054,-3.59618 -3.68283,3.59618 c -2.02554,1.9779 -4.45134,3.59618 -5.39065,3.59618 -1.35744,0 -1.70784,0.92327 -1.70784,4.5 v 4.5 h 11 11 z m 82.03273,-16.016933 c 1.61338,-0.83431 3.65478,-2.9119 4.53645,-4.616868 1.46466,-2.832335 1.91934,-3.047639 5.26693,-2.494079 2.01514,0.333224 10.75139,0.610815 19.41389,0.616868 l 15.75,0.01101 v 3 3.000003 h 9 9 v -6.223098 -6.223095 l 6.22111,-6.276905 6.22111,-6.276905 h 7.21987 c 3.97093,0 7.49799,-0.45 7.83791,-1 0.36585,-0.59197 6.51038,-1 15.05901,-1 h 14.44099 v 3.5 3.5 h 9 9 v -9 -9 l -2.75,-0.02661 -2.75,-0.02661 2.62719,-1.630495 c 7.67081,-4.760669 7.58304,-15.102669 -0.16703,-19.680745 -5.32136,-3.143405 -11.99991,-1.223991 -15.32462,4.404292 -3.10275,5.252538 -1.27053,11.858203 4.23726,15.276453 l 2.6272,1.630495 -3.25,0.02661 c -3.04255,0.02491 -3.25,0.250017 -3.25,3.52661 v 3.5 h -15.94099 c -9.54863,0 -16.18881,0.401001 -16.55901,1 -0.33992,0.55 -3.76523,1 -7.61179,1 h -6.99376 l -5.55494,6 -5.55494,6 h -8.39229 -8.39228 v 3.5 3.5 h -14.86043 c -20.41736,0 -23.85654,-0.551989 -25.70451,-4.125578 -1.59224,-3.079056 -6.08195,-5.874422 -9.43506,-5.874422 -3.38788,0 -7.8489,2.807116 -9.48308,5.967267 -1.91636,3.705833 -1.91751,6.357411 -0.004,10.057042 2.78703,5.389524 9.01939,7.303323 14.52016,4.458764 z M 771.71865,71.047063 c 0.6875,-0.277412 1.8125,-0.277412 2.5,0 0.6875,0.277412 0.125,0.504386 -1.25,0.504386 -1.375,0 -1.9375,-0.226974 -1.25,-0.504386 z m 3.32894,-4.921053 c 0.048,-1.164943 0.28494,-1.401899 0.60417,-0.604166 0.28887,0.721875 0.25334,1.584375 -0.079,1.916666 -0.33229,0.332292 -0.56864,-0.258333 -0.52522,-1.3125 z m -39.07894,13.583334 c 1.82796,-1.181323 0.24908,-1.181323 -2.5,0 -1.31874,0.566682 -1.48906,0.878155 -0.5,0.914402 0.825,0.03023 2.175,-0.381246 3,-0.914402 z m -241,-16 c 0,-0.55 -0.45,-1 -1,-1 -0.5641,0 -1,-2.833334 -1,-6.5 0,-6.655999 -0.71432,-7.760841 -3.12755,-4.837379 -1.06997,1.296192 -1.09696,1.755343 -0.12245,2.083333 1.49648,0.503671 1.73288,9.254046 0.25,9.254046 -0.55,0 -1,0.45 -1,1 0,0.55 1.35,1 3,1 1.65,0 3,-0.45 3,-1 z m 16,-3.3 c 0,-5.16063 -1.30961,-6.7 -5.7,-6.7 -1.815,0 -3.3,-0.45 -3.3,-1 0,-0.55 2.025,-1 4.5,-1 2.475,0 4.5,-0.45 4.5,-1 0,-0.55 -2.475,-1 -5.5,-1 -5.44444,0 -5.5,0.0303 -5.5,3 0,2.727273 0.3,3 3.3,3 3.87359,0 5.7,1.505987 5.7,4.7 0,1.819138 -0.55189,2.3 -2.63976,2.3 -1.45186,0 -3.21507,-0.786793 -3.91824,-1.748428 -1.60079,-2.189216 -2.54764,-1.37154 -1.7857,1.542098 0.49558,1.895137 1.26574,2.20633 5.46033,2.20633 h 4.88337 z m 13,3.3 c 0,-0.55 -0.45,-1 -1,-1 -0.5641,0 -1,-2.833334 -1,-6.5 0,-6.655999 -0.71432,-7.760841 -3.12755,-4.837379 -1.06997,1.296192 -1.09696,1.755343 -0.12245,2.083333 1.49648,0.503671 1.73288,9.254046 0.25,9.254046 -0.55,0 -1,0.45 -1,1 0,0.55 1.35,1 3,1 1.65,0 3,-0.45 3,-1 z m 14.96482,-0.934259 c 2.60278,-4.863353 0.21387,-13.065741 -3.80536,-13.065741 -2.68922,0 -6.15946,4.146539 -6.15946,7.359863 0,5.909664 7.54393,10.229339 9.96482,5.705878 z m -5.7404,-2.326859 c -2.70748,-2.881974 -2.77105,-3.934213 -0.36904,-6.108005 3.89974,-3.529215 7.18822,2.192068 3.86904,6.731326 -1.19265,1.631049 -1.4202,1.590524 -3.5,-0.623321 z m 22.77558,3.261118 c 0,-0.55 -1.43828,-1 -3.19617,-1 h -3.19617 l 3.27434,-3.378258 c 2.45608,-2.534029 3.19233,-4.095909 2.94617,-6.25 -0.29941,-2.620003 -0.71396,-2.899344 -4.72906,-3.186613 -2.84394,-0.203475 -4.69587,0.150307 -5.23469,1 -1.23797,1.952251 -1.0432,2.814871 0.63558,2.814871 0.825,0 1.5,-0.45 1.5,-1 0,-0.55 1.35,-1 3,-1 4.18088,0 3.7943,1.804032 -1.5,7 -2.475,2.429029 -4.5,4.772722 -4.5,5.208208 0,0.435485 2.475,0.791792 5.5,0.791792 3.025,0 5.5,-0.45 5.5,-1 z m 13,-1.416667 c 0,-1.329167 0.5625,-2.679167 1.25,-3 1,-0.466667 1,-0.7 0,-1.166667 -0.68795,-0.32104 -1.25,-2.344444 -1.25,-4.5 0,-5.509495 -2.84492,-5.329775 -5.4376,0.343505 -1.06567,2.331906 -2.11567,4.577329 -2.33333,4.989829 -0.21766,0.4125 0.99176,0.75 2.68759,0.75 2.62222,0 3.08334,0.373874 3.08334,2.5 0,1.375 0.45,2.5 1,2.5 0.55,0 1,-1.0875 1,-2.416667 z m -3.98469,-5.333333 c 0.008,-0.4125 0.45153,-1.425 0.98469,-2.25 0.78387,-1.212959 0.9723,-1.069438 0.98468,0.75 0.008,1.2375 -0.43468,2.25 -0.98468,2.25 -0.55,0 -0.99311,-0.3375 -0.98469,-0.75 z m 12.98469,4.25 c 0,-3.333334 0.16666,-3.5 3.5,-3.5 1.925,0 3.5,-0.45 3.5,-1 0,-0.55 -1.575,-1 -3.5,-1 -2.83334,0 -3.5,-0.380953 -3.5,-2 0,-1.703704 0.66666,-2 4.5,-2 2.475,0 4.5,-0.45 4.5,-1 0,-0.55 -2.475,-1 -5.5,-1 h -5.5 v 7.5 c 0,4.333333 0.42222,7.5 1,7.5 0.55,0 1,-1.575 1,-3.5 z m 24.80242,-2.834373 c 0.36953,-7.129106 -0.72535,-8.665627 -6.17487,-8.665627 h -4.12755 v 7.543589 7.54359 l 5,-0.29359 5,-0.293589 z m -7.80242,1.900795 c 0,-2.197836 0.44084,-2.566422 3.06955,-2.566422 2.61125,0 3.02184,0.335935 2.75,2.25 -0.2288,1.611005 -1.10055,2.339863 -3.06955,2.566422 -2.36785,0.27245 -2.75,-0.04022 -2.75,-2.25 z m 0,-6.566422 c 0,-2.255046 2.8671,-2.732896 4.8,-0.8 1.94521,1.945214 1.3957,2.8 -1.8,2.8 -2.33334,0 -3,-0.444445 -3,-2 z m 48.66071,3.065258 c 1.73839,-1.059995 3.45622,-2.858313 3.81739,-3.996261 0.84069,-2.648775 3.5219,-2.701302 3.5219,-0.069 0,1.822222 0.66666,2 7.5,2 h 7.5 v -7.5 -7.5 h -7.5 -7.5 v 3 c 0,3.886106 -1.41303,3.831295 -3.04899,-0.11827 -0.7104,-1.715048 -2.67749,-3.963366 -4.37132,-4.996262 -9.70089,-5.91559 -20.39719,4.831627 -15.06712,15.138841 2.92848,5.66307 9.57854,7.437051 15.14814,4.040949 z m 63.33929,-9.065258 v -9 l -5.75,0.0052 c -3.1625,0.0028 -10.1375,0.295716 -15.5,0.650824 l -9.75,0.645649 v 7.349177 7.349177 h 6.5 c 3.66666,0 6.5,0.435897 6.5,1 0,0.592592 3.66666,1 9,1 h 9 z m -6.43571,1.706872 c 0.37553,-0.986221 0.93469,-1.541221 1.24258,-1.233334 0.30789,0.307888 6.3e-4,1.114795 -0.68279,1.793128 -0.98761,0.980268 -1.10248,0.865404 -0.55979,-0.559794 z m -2.06429,-4.706872 c -1.75921,-0.755957 -1.66181,-0.867892 0.80901,-0.929715 1.63222,-0.04084 2.5501,0.348653 2.19099,0.929715 -0.33992,0.55 -0.70398,0.968371 -0.80902,0.929715 -0.10504,-0.03866 -1.09098,-0.457029 -2.19098,-0.929715 z m -127.5,-5 c 0,-0.55 -2.025,-1 -4.5,-1 -2.475,0 -4.5,0.45 -4.5,1 0,0.55 2.025,1 4.5,1 2.475,0 4.5,-0.45 4.5,-1 z M 516.77428,31.99755 c 0.44024,-6.066835 -1.05818,-8.288206 -5.59081,-8.288206 h -3.71482 v 6.544581 6.544581 l 4.5,-0.294581 4.5,-0.294581 z m -6.80563,-1.718655 c 0,-3.888235 0.29536,-4.569551 1.98095,-4.569551 3.86073,0 4.10347,8.271036 0.25883,8.819551 -2.03956,0.290985 -2.23978,-0.08893 -2.23978,-4.25 z m 21,4.430449 c 0,-1.1 -0.45,-2 -1,-2 -0.55,0 -1,0.45 -1,1 0,0.55 -1.125,1 -2.5,1 -2.2963,0 -2.5,-0.366667 -2.5,-4.5 0,-4.091954 0.21914,-4.5 2.41667,-4.5 1.32916,0 2.61756,0.5625 2.86309,1.25 0.24554,0.6875 0.78863,0.931907 1.20687,0.543128 1.86727,-1.73572 -0.54928,-3.793128 -4.45524,-3.793128 h -4.03139 v 6.5 6.5 h 4.5 c 3.83333,0 4.5,-0.296296 4.5,-2 z m 12,1 c 0,-0.55 -0.45,-1 -1,-1 -0.55,0 -1,-2.025 -1,-4.5 0,-2.475 0.45,-4.5 1,-4.5 0.55,0 1,-0.45 1,-1 0,-0.55 -1.35,-1 -3,-1 -1.65,0 -3,0.45 -3,1 0,0.55 0.45,1 1,1 0.55,0 1,2.025 1,4.5 0,2.475 -0.45,4.5 -1,4.5 -0.55,0 -1,0.45 -1,1 0,0.55 1.35,1 3,1 1.65,0 3,-0.45 3,-1 z m 7.06395,-3.75 0.064,-4.75 1.36178,3 c 0.74898,1.65 1.60608,3.7875 1.90466,4.75 0.29859,0.9625 1.23201,1.75 2.07427,1.75 1.21812,0 1.53139,-1.329683 1.53139,-6.5 0,-3.666667 -0.4359,-6.5 -1,-6.5 -0.55,0 -1,1.641547 -1,3.647883 v 3.647883 l -2.25,-3.32079 c -3.73139,-5.507183 -4.75,-4.983576 -4.75,2.44169 0,3.722223 0.4346,6.583334 1,6.583334 0.55,0 1.02878,-2.1375 1.06395,-4.75 z m 34.73605,3.55 c 1.74671,-1.74671 1.4684,-7.845938 -0.45499,-9.97126 -3.49378,-3.860577 -8.34501,-0.550599 -8.34501,5.693766 0,3.761097 1.56677,5.477494 5,5.477494 1.43,0 3.14,-0.54 3.8,-1.2 z m -5.6,-2 c -1.53932,-1.539314 -1.51796,-2.982906 0.0764,-5.163296 1.66895,-2.282426 4.72362,-1.137619 4.72362,1.770285 0,2.056727 -1.65662,4.593011 -3,4.593011 -0.33,0 -1.14,-0.54 -1.8,-1.2 z m 19.6,2 c 1.74671,-1.74671 1.4684,-7.845938 -0.45499,-9.97126 -3.49378,-3.860577 -8.34501,-0.550599 -8.34501,5.693766 0,3.761097 1.56677,5.477494 5,5.477494 1.43,0 3.14,-0.54 3.8,-1.2 z m -5.6,-2 c -1.53932,-1.539314 -1.51796,-2.982906 0.0764,-5.163296 1.66895,-2.282426 4.72362,-1.137619 4.72362,1.770285 0,2.056727 -1.65662,4.593011 -3,4.593011 -0.33,0 -1.14,-0.54 -1.8,-1.2 z"
       id="path3" />
  </g>
</svg>
